<svg width="348" height="22" viewBox="0 0 348 22" fill="none" xmlns="http://www.w3.org/2000/svg">
<path d="M3.55397 18V0.959999H16.418V18H14.738V2.448H5.23397V18H3.55397ZM27.5508 18.12C26.3508 18.12 25.2628 17.88 24.2868 17.4C23.3108 16.92 22.4708 16.272 21.7668 15.456C21.0628 14.624 20.5188 13.696 20.1348 12.672C19.7508 11.632 19.5588 10.568 19.5588 9.48C19.5588 8.344 19.7588 7.264 20.1588 6.24C20.5588 5.2 21.1188 4.28 21.8388 3.48C22.5748 2.664 23.4308 2.024 24.4068 1.56C25.3828 1.08 26.4388 0.839999 27.5748 0.839999C28.7748 0.839999 29.8628 1.088 30.8388 1.584C31.8148 2.08 32.6468 2.744 33.3348 3.576C34.0388 4.408 34.5828 5.336 34.9668 6.36C35.3508 7.384 35.5428 8.432 35.5428 9.504C35.5428 10.64 35.3428 11.728 34.9428 12.768C34.5428 13.792 33.9828 14.712 33.2628 15.528C32.5428 16.328 31.6948 16.96 30.7188 17.424C29.7428 17.888 28.6868 18.12 27.5508 18.12ZM21.2388 9.48C21.2388 10.408 21.3908 11.304 21.6948 12.168C21.9988 13.016 22.4308 13.776 22.9908 14.448C23.5508 15.104 24.2148 15.632 24.9828 16.032C25.7668 16.416 26.6228 16.608 27.5508 16.608C28.5268 16.608 29.3988 16.408 30.1668 16.008C30.9508 15.592 31.6148 15.048 32.1588 14.376C32.7188 13.688 33.1428 12.92 33.4308 12.072C33.7188 11.224 33.8628 10.36 33.8628 9.48C33.8628 8.552 33.7108 7.664 33.4068 6.816C33.1028 5.968 32.6628 5.208 32.0868 4.536C31.5268 3.864 30.8628 3.336 30.0948 2.952C29.3268 2.568 28.4788 2.376 27.5508 2.376C26.5908 2.376 25.7188 2.576 24.9348 2.976C24.1668 3.376 23.5028 3.92 22.9428 4.608C22.3988 5.28 21.9748 6.04 21.6708 6.888C21.3828 7.736 21.2388 8.6 21.2388 9.48ZM37.4862 21.264V16.512H38.2062C38.6542 16.512 39.0462 16.328 39.3822 15.96C39.7342 15.592 40.0302 15 40.2702 14.184C40.5262 13.352 40.7262 12.24 40.8702 10.848C41.0302 9.456 41.1422 7.728 41.2062 5.664L41.3262 0.959999H51.5262V16.512H53.5662V21.264H52.0782V18H38.9742V21.264H37.4862ZM40.6062 16.512H49.8462V2.448H42.8622L42.7662 5.856C42.7182 8.016 42.6062 9.824 42.4302 11.28C42.2702 12.72 42.0382 13.864 41.7342 14.712C41.4302 15.544 41.0542 16.144 40.6062 16.512ZM56.6868 18V0.959999H63.7428C64.4788 0.959999 65.1508 1.112 65.7588 1.416C66.3828 1.72 66.9188 2.136 67.3668 2.664C67.8148 3.176 68.1668 3.752 68.4228 4.392C68.6788 5.016 68.8068 5.656 68.8068 6.312C68.8068 7.24 68.5988 8.12 68.1828 8.952C67.7828 9.768 67.2148 10.432 66.4788 10.944C65.7428 11.456 64.8788 11.712 63.8868 11.712H58.3668V18H56.6868ZM58.3668 10.224H63.8148C64.4868 10.224 65.0708 10.04 65.5668 9.672C66.0628 9.304 66.4468 8.824 66.7188 8.232C66.9908 7.64 67.1268 7 67.1268 6.312C67.1268 5.608 66.9668 4.96 66.6468 4.368C66.3268 3.776 65.9028 3.312 65.3748 2.976C64.8628 2.624 64.2948 2.448 63.6708 2.448H58.3668V10.224ZM78.4805 18.12C77.2805 18.12 76.1925 17.88 75.2165 17.4C74.2405 16.92 73.4005 16.272 72.6965 15.456C71.9925 14.624 71.4485 13.696 71.0645 12.672C70.6805 11.632 70.4885 10.568 70.4885 9.48C70.4885 8.344 70.6885 7.264 71.0885 6.24C71.4885 5.2 72.0485 4.28 72.7685 3.48C73.5045 2.664 74.3605 2.024 75.3365 1.56C76.3125 1.08 77.3685 0.839999 78.5045 0.839999C79.7045 0.839999 80.7925 1.088 81.7685 1.584C82.7445 2.08 83.5765 2.744 84.2645 3.576C84.9685 4.408 85.5125 5.336 85.8965 6.36C86.2805 7.384 86.4725 8.432 86.4725 9.504C86.4725 10.64 86.2725 11.728 85.8725 12.768C85.4725 13.792 84.9125 14.712 84.1925 15.528C83.4725 16.328 82.6245 16.96 81.6485 17.424C80.6725 17.888 79.6165 18.12 78.4805 18.12ZM72.1685 9.48C72.1685 10.408 72.3205 11.304 72.6245 12.168C72.9285 13.016 73.3605 13.776 73.9205 14.448C74.4805 15.104 75.1445 15.632 75.9125 16.032C76.6965 16.416 77.5525 16.608 78.4805 16.608C79.4565 16.608 80.3285 16.408 81.0965 16.008C81.8805 15.592 82.5445 15.048 83.0885 14.376C83.6485 13.688 84.0725 12.92 84.3605 12.072C84.6485 11.224 84.7925 10.36 84.7925 9.48C84.7925 8.552 84.6405 7.664 84.3365 6.816C84.0325 5.968 83.5925 5.208 83.0165 4.536C82.4565 3.864 81.7925 3.336 81.0245 2.952C80.2565 2.568 79.4085 2.376 78.4805 2.376C77.5205 2.376 76.6485 2.576 75.8645 2.976C75.0965 3.376 74.4325 3.92 73.8725 4.608C73.3285 5.28 72.9045 6.04 72.6005 6.888C72.3125 7.736 72.1685 8.6 72.1685 9.48ZM89.6399 18V0.959999H101.064V2.448H91.3199V8.376H96.9359C98.8079 8.376 100.192 8.816 101.088 9.696C101.984 10.56 102.432 11.688 102.432 13.08C102.432 13.992 102.232 14.824 101.832 15.576C101.448 16.312 100.856 16.904 100.056 17.352C99.2719 17.784 98.2799 18 97.0799 18H89.6399ZM91.3199 16.512H96.8879C97.8159 16.512 98.5599 16.344 99.1199 16.008C99.6799 15.672 100.088 15.24 100.344 14.712C100.6 14.168 100.728 13.608 100.728 13.032C100.728 12.456 100.616 11.92 100.392 11.424C100.168 10.912 99.7679 10.504 99.1919 10.2C98.6319 9.88 97.8399 9.72 96.8159 9.72H91.3199V16.512ZM118.736 0.959999V18H117.08V10.032H106.976V18H105.296V0.959999H106.976V8.544H117.08V0.959999H118.736ZM134.463 16.512V18H123.015V0.959999H134.247V2.448H124.695V8.592H133.023V10.008H124.695V16.512H134.463ZM149.088 16.512V18H137.64V0.959999H148.872V2.448H139.32V8.592H147.648V10.008H139.32V16.512H149.088ZM165.246 18.12C164.046 18.12 162.958 17.88 161.982 17.4C161.006 16.92 160.166 16.272 159.462 15.456C158.758 14.624 158.214 13.696 157.83 12.672C157.446 11.632 157.254 10.568 157.254 9.48C157.254 8.344 157.454 7.264 157.854 6.24C158.254 5.2 158.814 4.28 159.534 3.48C160.27 2.664 161.126 2.024 162.102 1.56C163.078 1.08 164.134 0.839999 165.27 0.839999C166.47 0.839999 167.558 1.088 168.534 1.584C169.51 2.08 170.342 2.744 171.03 3.576C171.734 4.408 172.278 5.336 172.662 6.36C173.046 7.384 173.238 8.432 173.238 9.504C173.238 10.64 173.038 11.728 172.638 12.768C172.238 13.792 171.678 14.712 170.958 15.528C170.238 16.328 169.39 16.96 168.414 17.424C167.438 17.888 166.382 18.12 165.246 18.12ZM158.934 9.48C158.934 10.408 159.086 11.304 159.39 12.168C159.694 13.016 160.126 13.776 160.686 14.448C161.246 15.104 161.91 15.632 162.678 16.032C163.462 16.416 164.318 16.608 165.246 16.608C166.222 16.608 167.094 16.408 167.862 16.008C168.646 15.592 169.31 15.048 169.854 14.376C170.414 13.688 170.838 12.92 171.126 12.072C171.414 11.224 171.558 10.36 171.558 9.48C171.558 8.552 171.406 7.664 171.102 6.816C170.798 5.968 170.358 5.208 169.782 4.536C169.222 3.864 168.558 3.336 167.79 2.952C167.022 2.568 166.174 2.376 165.246 2.376C164.286 2.376 163.414 2.576 162.63 2.976C161.862 3.376 161.198 3.92 160.638 4.608C160.094 5.28 159.67 6.04 159.366 6.888C159.078 7.736 158.934 8.6 158.934 9.48ZM182.523 18V0.959999H195.387V18H193.707V2.448H184.203V18H182.523ZM199.656 18V0.959999H206.712C207.448 0.959999 208.12 1.112 208.728 1.416C209.352 1.72 209.888 2.136 210.336 2.664C210.784 3.176 211.136 3.752 211.392 4.392C211.648 5.016 211.776 5.656 211.776 6.312C211.776 7.24 211.568 8.12 211.152 8.952C210.752 9.768 210.184 10.432 209.448 10.944C208.712 11.456 207.848 11.712 206.856 11.712H201.336V18H199.656ZM201.336 10.224H206.784C207.456 10.224 208.04 10.04 208.536 9.672C209.032 9.304 209.416 8.824 209.688 8.232C209.96 7.64 210.096 7 210.096 6.312C210.096 5.608 209.936 4.96 209.616 4.368C209.296 3.776 208.872 3.312 208.344 2.976C207.832 2.624 207.264 2.448 206.64 2.448H201.336V10.224ZM221.449 18.12C220.249 18.12 219.161 17.88 218.185 17.4C217.209 16.92 216.369 16.272 215.665 15.456C214.961 14.624 214.417 13.696 214.033 12.672C213.649 11.632 213.457 10.568 213.457 9.48C213.457 8.344 213.657 7.264 214.057 6.24C214.457 5.2 215.017 4.28 215.737 3.48C216.473 2.664 217.329 2.024 218.305 1.56C219.281 1.08 220.337 0.839999 221.473 0.839999C222.673 0.839999 223.761 1.088 224.737 1.584C225.713 2.08 226.545 2.744 227.233 3.576C227.937 4.408 228.481 5.336 228.865 6.36C229.249 7.384 229.441 8.432 229.441 9.504C229.441 10.64 229.241 11.728 228.841 12.768C228.441 13.792 227.881 14.712 227.161 15.528C226.441 16.328 225.593 16.96 224.617 17.424C223.641 17.888 222.585 18.12 221.449 18.12ZM215.137 9.48C215.137 10.408 215.289 11.304 215.593 12.168C215.897 13.016 216.329 13.776 216.889 14.448C217.449 15.104 218.113 15.632 218.881 16.032C219.665 16.416 220.521 16.608 221.449 16.608C222.425 16.608 223.297 16.408 224.065 16.008C224.849 15.592 225.513 15.048 226.057 14.376C226.617 13.688 227.041 12.92 227.329 12.072C227.617 11.224 227.761 10.36 227.761 9.48C227.761 8.552 227.609 7.664 227.305 6.816C227.001 5.968 226.561 5.208 225.985 4.536C225.425 3.864 224.761 3.336 223.993 2.952C223.225 2.568 222.377 2.376 221.449 2.376C220.489 2.376 219.617 2.576 218.833 2.976C218.065 3.376 217.401 3.92 216.841 4.608C216.297 5.28 215.873 6.04 215.569 6.888C215.281 7.736 215.137 8.6 215.137 9.48ZM244.057 16.512V18H232.609V0.959999H243.841V2.448H234.289V8.592H242.617V10.008H234.289V16.512H244.057ZM247.234 18V0.959999H248.914V8.544H251.482L257.338 0.959999H259.282L252.874 9.216L259.69 18H257.626L251.53 10.08H248.914V18H247.234ZM274.541 2.448H268.469V18H266.789V2.448H260.717V0.959999H274.541V2.448ZM288.541 16.512V18H277.093V0.959999H288.325V2.448H278.773V8.592H287.101V10.008H278.773V16.512H288.541Z" fill="#9A031E"/>
<path d="M294 10H346M346 10L334.826 5M346 10L334.826 15" stroke="#9A031E" stroke-linecap="round"/>
</svg>
