<svg width="333" height="58" viewBox="0 0 333 58" fill="none" xmlns="http://www.w3.org/2000/svg">
<g opacity="0.5">
<rect x="0.5" y="0.5" width="332" height="57" rx="4.5" fill="white" stroke="#9A031E"/>
<path d="M75.944 38V20.96H89.408V38H86.696V23.336H78.632V38H75.944ZM94.6318 43.328C94.3438 43.328 94.0398 43.288 93.7198 43.208C93.3998 43.128 93.0638 43.008 92.7118 42.848L93.3838 40.88C93.5758 40.976 93.7598 41.048 93.9358 41.096C94.1118 41.144 94.2718 41.168 94.4158 41.168C94.8158 41.168 95.1758 41 95.4958 40.664C95.8318 40.344 96.1278 39.856 96.3838 39.2L96.8638 37.904L91.5598 25.448H94.3198L98.1598 35.312L101.568 25.448H104.112L98.5918 39.92C98.3198 40.672 97.9758 41.296 97.5598 41.792C97.1598 42.288 96.7118 42.664 96.2158 42.92C95.7198 43.192 95.1918 43.328 94.6318 43.328ZM106.053 38V25.448H108.693V35.696H113.181V25.448H115.845V35.696H120.309V25.448H122.949V38H106.053ZM126.139 38V25.448H128.755V30.416H130.003L133.699 25.448H136.627L132.043 31.52L137.155 38H134.107L129.979 32.792H128.755V38H126.139ZM139.17 38V25.472H141.81V34.472L148.17 25.448H150.57V38H147.93V29.192L141.642 38H139.17ZM153.725 38V25.448H156.365V30.44H162.197V25.448H164.837V38H162.197V32.72H156.365V38H153.725ZM173.71 38.24C172.734 38.24 171.846 38.072 171.046 37.736C170.262 37.384 169.582 36.904 169.006 36.296C168.43 35.688 167.982 34.992 167.662 34.208C167.358 33.424 167.206 32.592 167.206 31.712C167.206 30.528 167.47 29.448 167.998 28.472C168.542 27.496 169.294 26.712 170.254 26.12C171.23 25.528 172.382 25.232 173.71 25.232C174.99 25.232 176.102 25.52 177.046 26.096C178.006 26.656 178.71 27.408 179.158 28.352L176.59 29.168C176.302 28.64 175.894 28.232 175.366 27.944C174.854 27.64 174.286 27.488 173.662 27.488C172.958 27.488 172.318 27.672 171.742 28.04C171.182 28.392 170.734 28.888 170.398 29.528C170.078 30.152 169.918 30.88 169.918 31.712C169.918 32.512 170.086 33.24 170.422 33.896C170.758 34.536 171.206 35.048 171.766 35.432C172.342 35.8 172.982 35.984 173.686 35.984C174.118 35.984 174.534 35.912 174.934 35.768C175.35 35.608 175.71 35.4 176.014 35.144C176.318 34.872 176.534 34.576 176.662 34.256L179.254 35.024C178.982 35.648 178.574 36.2 178.03 36.68C177.502 37.16 176.87 37.544 176.134 37.832C175.414 38.104 174.606 38.24 173.71 38.24ZM181.428 38V25.448H184.044V30.416H185.292L188.988 25.448H191.916L187.332 31.52L192.444 38H189.396L185.268 32.792H184.044V38H181.428ZM193.5 34.328C193.5 33.528 193.724 32.832 194.172 32.24C194.636 31.632 195.268 31.168 196.068 30.848C196.868 30.512 197.796 30.344 198.852 30.344C199.412 30.344 199.98 30.384 200.556 30.464C201.148 30.544 201.668 30.672 202.116 30.848V30.056C202.116 29.176 201.852 28.488 201.324 27.992C200.796 27.496 200.036 27.248 199.044 27.248C198.34 27.248 197.676 27.376 197.052 27.632C196.428 27.872 195.764 28.216 195.06 28.664L194.172 26.888C195.004 26.328 195.836 25.912 196.668 25.64C197.516 25.368 198.404 25.232 199.332 25.232C201.012 25.232 202.332 25.68 203.292 26.576C204.268 27.456 204.756 28.712 204.756 30.344V35.024C204.756 35.328 204.804 35.544 204.9 35.672C205.012 35.8 205.196 35.872 205.452 35.888V38C205.212 38.048 204.996 38.08 204.804 38.096C204.612 38.112 204.452 38.12 204.324 38.12C203.764 38.12 203.34 37.984 203.052 37.712C202.764 37.44 202.596 37.12 202.548 36.752L202.476 36.032C201.932 36.736 201.236 37.28 200.388 37.664C199.54 38.048 198.684 38.24 197.82 38.24C196.988 38.24 196.244 38.072 195.588 37.736C194.932 37.384 194.42 36.912 194.052 36.32C193.684 35.728 193.5 35.064 193.5 34.328ZM201.492 35.096C201.684 34.888 201.836 34.68 201.948 34.472C202.06 34.264 202.116 34.08 202.116 33.92V32.48C201.668 32.304 201.196 32.176 200.7 32.096C200.204 32 199.716 31.952 199.236 31.952C198.276 31.952 197.492 32.144 196.884 32.528C196.292 32.912 195.996 33.44 195.996 34.112C195.996 34.48 196.092 34.832 196.284 35.168C196.492 35.504 196.78 35.776 197.148 35.984C197.532 36.192 198.004 36.296 198.564 36.296C199.14 36.296 199.692 36.184 200.22 35.96C200.748 35.736 201.172 35.448 201.492 35.096ZM207.167 38L210.527 33.032C209.743 32.84 209.119 32.44 208.655 31.832C208.191 31.224 207.959 30.408 207.959 29.384C207.959 28.6 208.135 27.912 208.487 27.32C208.855 26.728 209.367 26.264 210.023 25.928C210.679 25.592 211.439 25.424 212.303 25.424H217.823V38H215.183V33.464H213.119L210.047 38H207.167ZM212.567 31.544H215.183V27.464H212.735C212.063 27.464 211.527 27.648 211.127 28.016C210.743 28.384 210.551 28.864 210.551 29.456C210.551 30.048 210.719 30.544 211.055 30.944C211.407 31.344 211.911 31.544 212.567 31.544ZM226.943 38V25.448H229.559V30.416H230.807L234.503 25.448H237.431L232.847 31.52L237.959 38H234.911L230.783 32.792H229.559V38H226.943ZM239.016 34.328C239.016 33.528 239.24 32.832 239.688 32.24C240.152 31.632 240.784 31.168 241.584 30.848C242.384 30.512 243.312 30.344 244.368 30.344C244.928 30.344 245.496 30.384 246.072 30.464C246.664 30.544 247.184 30.672 247.632 30.848V30.056C247.632 29.176 247.368 28.488 246.84 27.992C246.312 27.496 245.552 27.248 244.56 27.248C243.856 27.248 243.192 27.376 242.568 27.632C241.944 27.872 241.28 28.216 240.576 28.664L239.688 26.888C240.52 26.328 241.352 25.912 242.184 25.64C243.032 25.368 243.92 25.232 244.848 25.232C246.528 25.232 247.848 25.68 248.808 26.576C249.784 27.456 250.272 28.712 250.272 30.344V35.024C250.272 35.328 250.32 35.544 250.416 35.672C250.528 35.8 250.712 35.872 250.968 35.888V38C250.728 38.048 250.512 38.08 250.32 38.096C250.128 38.112 249.968 38.12 249.84 38.12C249.28 38.12 248.856 37.984 248.568 37.712C248.28 37.44 248.112 37.12 248.064 36.752L247.992 36.032C247.448 36.736 246.752 37.28 245.904 37.664C245.056 38.048 244.2 38.24 243.336 38.24C242.504 38.24 241.76 38.072 241.104 37.736C240.448 37.384 239.936 36.912 239.568 36.32C239.2 35.728 239.016 35.064 239.016 34.328ZM247.008 35.096C247.2 34.888 247.352 34.68 247.464 34.472C247.576 34.264 247.632 34.08 247.632 33.92V32.48C247.184 32.304 246.712 32.176 246.216 32.096C245.72 32 245.232 31.952 244.752 31.952C243.792 31.952 243.008 32.144 242.4 32.528C241.808 32.912 241.512 33.44 241.512 34.112C241.512 34.48 241.608 34.832 241.8 35.168C242.008 35.504 242.296 35.776 242.664 35.984C243.048 36.192 243.52 36.296 244.08 36.296C244.656 36.296 245.208 36.184 245.736 35.96C246.264 35.736 246.688 35.448 247.008 35.096ZM260.603 38.24C259.595 38.24 258.707 38 257.939 37.52C257.171 37.04 256.563 36.416 256.115 35.648V43.112H253.475V25.448H255.803V27.704C256.283 26.952 256.907 26.352 257.675 25.904C258.443 25.456 259.299 25.232 260.243 25.232C261.107 25.232 261.899 25.408 262.619 25.76C263.339 26.096 263.963 26.568 264.491 27.176C265.019 27.784 265.427 28.48 265.715 29.264C266.019 30.032 266.171 30.848 266.171 31.712C266.171 32.912 265.931 34.008 265.451 35C264.987 35.992 264.331 36.784 263.483 37.376C262.651 37.952 261.691 38.24 260.603 38.24ZM259.739 35.984C260.299 35.984 260.803 35.864 261.251 35.624C261.715 35.384 262.107 35.064 262.427 34.664C262.763 34.264 263.019 33.808 263.195 33.296C263.371 32.784 263.459 32.256 263.459 31.712C263.459 31.136 263.363 30.592 263.171 30.08C262.979 29.568 262.699 29.12 262.331 28.736C261.979 28.352 261.563 28.048 261.083 27.824C260.619 27.6 260.107 27.488 259.547 27.488C259.211 27.488 258.859 27.552 258.491 27.68C258.123 27.808 257.779 27.984 257.459 28.208C257.139 28.432 256.859 28.696 256.619 29C256.379 29.304 256.211 29.624 256.115 29.96V33.248C256.339 33.76 256.635 34.224 257.003 34.64C257.371 35.04 257.795 35.368 258.275 35.624C258.755 35.864 259.243 35.984 259.739 35.984ZM271.521 38V27.776H267.369V25.448H278.337V27.776H274.161V38H271.521ZM279.375 34.328C279.375 33.528 279.599 32.832 280.047 32.24C280.511 31.632 281.143 31.168 281.943 30.848C282.743 30.512 283.671 30.344 284.727 30.344C285.287 30.344 285.855 30.384 286.431 30.464C287.023 30.544 287.543 30.672 287.991 30.848V30.056C287.991 29.176 287.727 28.488 287.199 27.992C286.671 27.496 285.911 27.248 284.919 27.248C284.215 27.248 283.551 27.376 282.927 27.632C282.303 27.872 281.639 28.216 280.935 28.664L280.047 26.888C280.879 26.328 281.711 25.912 282.543 25.64C283.391 25.368 284.279 25.232 285.207 25.232C286.887 25.232 288.207 25.68 289.167 26.576C290.143 27.456 290.631 28.712 290.631 30.344V35.024C290.631 35.328 290.679 35.544 290.775 35.672C290.887 35.8 291.071 35.872 291.327 35.888V38C291.087 38.048 290.871 38.08 290.679 38.096C290.487 38.112 290.327 38.12 290.199 38.12C289.639 38.12 289.215 37.984 288.927 37.712C288.639 37.44 288.471 37.12 288.423 36.752L288.351 36.032C287.807 36.736 287.111 37.28 286.263 37.664C285.415 38.048 284.559 38.24 283.695 38.24C282.863 38.24 282.119 38.072 281.463 37.736C280.807 37.384 280.295 36.912 279.927 36.32C279.559 35.728 279.375 35.064 279.375 34.328ZM287.367 35.096C287.559 34.888 287.711 34.68 287.823 34.472C287.935 34.264 287.991 34.08 287.991 33.92V32.48C287.543 32.304 287.071 32.176 286.575 32.096C286.079 32 285.591 31.952 285.111 31.952C284.151 31.952 283.367 32.144 282.759 32.528C282.167 32.912 281.871 33.44 281.871 34.112C281.871 34.48 281.967 34.832 282.159 35.168C282.367 35.504 282.655 35.776 283.023 35.984C283.407 36.192 283.879 36.296 284.439 36.296C285.015 36.296 285.567 36.184 286.095 35.96C286.623 35.736 287.047 35.448 287.367 35.096Z" fill="#9A031E"/>
<path fill-rule="evenodd" clip-rule="evenodd" d="M51.5233 19.0598C51.431 19.0937 51.1698 19.2086 50.9428 19.3151C50.6473 19.4537 50.502 19.5046 50.4314 19.4942C50.3113 19.4765 50.303 19.5292 50.41 19.6304C50.4786 19.6951 50.485 19.7243 50.4669 19.8892C50.4525 20.0208 50.4581 20.075 50.4861 20.075C50.5078 20.075 50.5346 20.0294 50.5457 19.9738C50.5601 19.9014 50.5851 19.8726 50.6337 19.8726C50.6868 19.8726 50.7016 19.8947 50.7016 19.9738C50.7016 20.066 50.7115 20.075 50.8138 20.075C50.8784 20.075 50.9481 20.1 50.9782 20.134C51.098 20.2695 51.1409 20.7085 51.0678 21.0513C51.037 21.1954 51.0197 21.2215 50.9549 21.2215C50.8952 21.2215 50.8659 21.1884 50.8212 21.0707C50.7474 20.8766 50.5991 20.7494 50.4464 20.7494C50.2963 20.7494 50.0303 20.8861 49.8435 21.0593C49.7009 21.1914 49.6956 21.2035 49.6956 21.3944V21.5925H49.5603C49.4369 21.5925 49.428 21.5982 49.4597 21.6577C49.4787 21.6936 49.4944 21.837 49.4944 21.9764C49.4944 22.2891 49.5448 22.5354 49.6493 22.733C49.694 22.8175 49.7291 22.9417 49.7291 23.0152V23.1464L49.4525 23.1366L49.1758 23.1268L49.166 22.9218L49.1561 22.7167L49.3001 22.6561L49.4441 22.5956L49.2672 22.5527C49.0647 22.5037 49.0078 22.4642 48.9349 22.3224C48.867 22.1904 48.8926 21.9702 49.0101 21.6749C49.0942 21.4635 49.0972 21.4377 49.06 21.2431C48.9732 20.7893 48.9609 20.7611 48.8222 20.6982C48.6599 20.6246 48.5406 20.4996 48.5668 20.4308C48.6009 20.3416 48.6977 20.3725 48.8475 20.5204L48.9913 20.6623V20.4361V20.2099H49.0919C49.2097 20.2099 49.208 20.2035 49.138 20.3794C49.0855 20.5112 49.0861 20.5196 49.1525 20.5909C49.1942 20.6356 49.231 20.7356 49.245 20.8421C49.2711 21.0404 49.3393 21.0789 49.3964 20.9278C49.4279 20.8446 49.4228 20.7743 49.3732 20.6064C49.3614 20.5663 49.3833 20.5351 49.4421 20.5081C49.5234 20.4709 49.5252 20.465 49.4725 20.4065C49.3985 20.3243 49.4544 20.1935 49.5768 20.1626C49.6972 20.1323 49.9218 20.1983 49.9633 20.2762C49.982 20.3115 49.9974 20.4324 49.9974 20.5449C49.9974 20.6587 50.0123 20.7494 50.0309 20.7494C50.0501 20.7494 50.0645 20.6483 50.0645 20.5136V20.2777L50.2036 20.1763L50.3428 20.075L50.2288 20.0749C50.125 20.0748 50.1063 20.0586 50.0208 19.894C49.9692 19.7946 49.8903 19.6965 49.8455 19.676C49.7789 19.6455 49.7691 19.6246 49.7917 19.5617C49.8078 19.5169 49.8634 19.4714 49.9251 19.4525C49.9926 19.432 50.0309 19.3984 50.0309 19.3598C50.0309 19.3111 50.0032 19.2994 49.8884 19.2995C49.6709 19.2998 49.5074 19.3583 49.4149 19.4689C49.3687 19.524 49.3093 19.5691 49.2828 19.5691C49.1947 19.5691 48.944 19.6716 48.8749 19.7358C48.808 19.7981 48.8033 19.7969 48.5889 19.6649L48.3709 19.5307L48.0859 19.5472C47.6232 19.574 47.5766 19.5926 47.3974 19.822C47.1672 20.1168 47.1192 20.2473 47.0814 20.6809C47.0505 21.0341 47.0385 21.0783 46.9069 21.318C46.7775 21.5537 46.7643 21.6007 46.7509 21.8703C46.7393 22.1035 46.7476 22.1825 46.7907 22.2485C46.8206 22.2944 46.8451 22.3943 46.8451 22.4703C46.8451 22.5981 46.8393 22.6069 46.7696 22.5857C46.7281 22.573 46.6611 22.5322 46.6206 22.495C46.5611 22.4403 46.5194 22.4314 46.4026 22.4485L46.2582 22.4696L46.097 22.1575C45.9622 21.8965 45.9277 21.7905 45.8864 21.51C45.8592 21.3255 45.8296 21.1671 45.8207 21.1581C45.8117 21.1491 45.787 21.1592 45.7658 21.1805C45.7082 21.2384 45.782 21.8328 45.8776 22.0814C45.9203 22.1927 46.0796 22.471 46.2315 22.6998L46.5078 23.1158L46.4115 23.3075C46.1871 23.7545 46.1406 23.9186 46.0727 24.5018C46.0028 25.1035 45.9691 25.2212 45.7962 25.4669C45.7361 25.5524 45.6671 25.6678 45.6428 25.7235C45.6185 25.7791 45.4883 25.9992 45.3535 26.2125C45.2129 26.435 45.0767 26.6985 45.034 26.8308C44.962 27.0541 44.9615 27.0649 45.0187 27.1717C45.1498 27.4164 45.0232 27.6935 44.5137 28.2774C44.3353 28.4819 44.1176 28.7795 44.009 28.9675C43.7031 29.4969 43.6184 29.626 43.4716 29.787C43.3954 29.8705 43.2913 30.0071 43.2401 30.0905C43.1889 30.174 43.0768 30.3182 42.9909 30.4109C42.8273 30.5877 42.5825 30.9059 42.2033 31.4344C41.9889 31.7334 41.9792 31.7549 42.0174 31.8475C42.0395 31.9013 42.0822 31.9453 42.1122 31.9454C42.1423 31.9455 42.2574 31.9831 42.3681 32.0289C42.4787 32.0748 42.6246 32.1126 42.6923 32.1131C42.8246 32.114 43.1219 32.2275 43.1634 32.2931C43.1773 32.3151 43.1889 32.4404 43.1892 32.5715C43.1896 32.7863 43.1811 32.8174 43.1028 32.8859C43.034 32.946 43.0206 32.9806 43.0384 33.0521C43.0647 33.1584 43.1412 33.2511 43.2245 33.2777C43.2745 33.2937 43.2857 33.3458 43.2955 33.6075L43.3071 33.9183L43.4615 34.1205C43.7502 34.4986 43.7442 34.4742 43.7341 35.2212C43.7289 35.61 43.7392 35.9207 43.7591 35.9734C43.8646 36.2523 44.2196 36.506 44.7994 36.7167C45.0188 36.7964 45.0839 36.8057 45.3086 36.7891C45.5248 36.7731 45.5782 36.7798 45.6404 36.8304C45.7117 36.8884 45.723 36.8883 45.9361 36.8265C46.1347 36.7689 46.2374 36.7641 46.9289 36.7801C47.6914 36.7976 47.7048 36.7992 48.0997 36.9176C48.6477 37.0819 48.7728 37.0747 48.5561 36.8914C48.4131 36.7704 48.1406 36.648 47.8149 36.5585C47.5611 36.4888 47.4622 36.4812 46.8367 36.4828C46.454 36.4839 46.1408 36.473 46.1408 36.4587C46.1408 36.4032 46.3627 36.1827 46.5408 36.0614C46.7973 35.8865 47.3961 35.5752 47.5996 35.5108C47.6918 35.4817 47.8356 35.4486 47.9191 35.4373C48.0049 35.4257 48.136 35.3725 48.2209 35.3149C48.3034 35.2588 48.4667 35.1684 48.5837 35.1141C48.9147 34.9605 49.1938 34.7414 49.76 34.1906C50.4063 33.5618 50.8637 33.1903 51.5568 32.7309C52.2728 32.2563 52.3241 32.2212 52.5964 32.021C52.7255 31.926 52.9005 31.8296 52.9852 31.8069C53.1248 31.7694 53.1538 31.7726 53.2946 31.8412C53.3801 31.8828 53.4758 31.9118 53.5074 31.9057C53.5551 31.8964 53.5464 31.8736 53.4558 31.7699C53.3396 31.6368 53.1041 31.529 52.8466 31.4912C52.6516 31.4625 52.0362 31.5613 51.9996 31.6272C51.9823 31.6582 51.9163 31.6758 51.815 31.6763C51.7283 31.6767 51.5726 31.7122 51.469 31.7551L51.2806 31.833L51.1275 31.7547C50.9811 31.6799 50.8687 31.5649 50.8699 31.4909C50.8701 31.4719 51.0386 31.4036 51.2443 31.3391C51.592 31.2302 51.6342 31.2073 51.8439 31.0137C51.968 30.8992 52.1013 30.7954 52.1401 30.783C52.179 30.7706 52.2124 30.7349 52.2145 30.7037C52.2266 30.5177 52.2009 30.159 52.1686 30.0661C52.1478 30.0063 52.1375 29.9513 52.1456 29.9439C52.1538 29.9365 52.2434 29.9421 52.3449 29.9564C52.4966 29.9777 52.549 29.971 52.6402 29.9184C52.8038 29.8242 53.0061 29.8355 53.1851 29.949C53.549 30.1798 53.9068 30.2394 54.2564 30.1275C54.3763 30.0891 54.5017 30.0575 54.5351 30.0573C54.5993 30.0568 54.8712 29.8544 54.8441 29.8272C54.8353 29.8184 54.8061 29.8296 54.7791 29.8521C54.7521 29.8747 54.6903 29.8882 54.6418 29.8822C54.5538 29.8713 54.5541 29.8708 54.7893 29.4938C55.0408 29.0904 55.1954 28.8027 55.1954 28.7375C55.1954 28.6608 55.0539 28.826 54.9607 29.0116C54.8169 29.2977 54.6468 29.4453 54.399 29.499C54.3029 29.5198 54.2927 29.5153 54.3123 29.4609C54.3246 29.427 54.3778 29.3613 54.4307 29.3149C54.5528 29.2077 54.8044 28.7961 54.7575 28.7803C54.7052 28.7628 54.605 28.8638 54.4036 29.1367C54.173 29.4493 54.0874 29.4956 53.8204 29.4524C53.7095 29.4344 53.6037 29.4105 53.5854 29.3991C53.5672 29.3877 53.5522 29.4021 53.5522 29.431C53.5522 29.461 53.5235 29.4835 53.4851 29.4835C53.4299 29.4835 53.418 29.461 53.418 29.3568C53.418 29.2665 53.3987 29.2178 53.351 29.1879C53.3 29.1559 53.2839 29.1092 53.2839 28.9943V28.8428H53.5167C53.6447 28.8428 53.7587 28.858 53.7701 28.8765C53.7816 28.8951 53.9326 28.9103 54.1075 28.9103C54.2962 28.9103 54.4241 28.8966 54.4241 28.8765C54.4241 28.8577 54.3334 28.8428 54.2192 28.8428C54.0654 28.8428 53.9419 28.8142 53.7245 28.7283C53.5652 28.6653 53.4073 28.6046 53.3736 28.5935C53.3382 28.5818 53.3172 28.5484 53.3237 28.5141C53.3328 28.4658 53.3828 28.4516 53.5985 28.4362C53.8039 28.4215 53.8724 28.4033 53.9084 28.3539C53.9893 28.2427 53.9599 28.1735 53.7282 27.9298L53.5019 27.6916L53.3546 27.7251C53.2499 27.749 53.161 27.8047 53.0463 27.9182L52.8852 28.0777L52.7995 27.8828C52.6982 27.6524 52.6985 27.6553 52.7685 27.519C52.8064 27.4454 52.8115 27.4087 52.7853 27.3999C52.7644 27.3928 52.7473 27.3429 52.7473 27.2888C52.7473 27.1417 52.8568 27.161 53.0723 27.3461C53.172 27.4318 53.2622 27.4933 53.2727 27.4827C53.2832 27.4721 53.2058 27.3729 53.1008 27.2622C52.9421 27.0949 52.9155 27.0502 52.9434 26.9978C53.0036 26.8846 53.3128 26.6171 53.3834 26.6171C53.4255 26.6171 53.4879 26.6685 53.5441 26.7494C53.6357 26.8812 53.7028 26.9193 53.845 26.9202C53.8991 26.9205 53.9254 26.9463 53.9403 27.0134C53.9825 27.2042 54.0008 27.2441 54.1473 27.4656C54.2426 27.6098 54.3235 27.6963 54.3691 27.7028C54.433 27.712 54.4408 27.7343 54.44 27.907C54.4394 28.0372 54.4526 28.1009 54.48 28.1009C54.5024 28.1009 54.5301 28.0857 54.5415 28.0672C54.5789 28.0063 54.6863 28.0319 54.7534 28.1178C54.8202 28.2032 54.9395 28.2301 54.9774 28.1684C55.0102 28.115 55.1218 28.1284 55.3773 28.2161C55.5078 28.261 55.6523 28.3027 55.6984 28.3089C55.7755 28.3192 55.7815 28.3106 55.7723 28.2021C55.7652 28.1175 55.7866 28.0511 55.8478 27.9679C56.0072 27.751 55.9579 27.7132 55.4805 27.6863C54.8478 27.6507 54.3096 27.3704 54.1705 27.0043C54.0942 26.8032 54.1275 26.6541 54.2914 26.4637C54.4294 26.3033 54.4533 26.2461 54.3822 26.2463C54.2722 26.2466 54.1275 26.3822 54.0705 26.5384C53.983 26.7779 53.9457 26.8097 53.8364 26.7377C53.7465 26.6785 53.6213 26.4474 53.62 26.3382C53.6196 26.3053 53.6576 26.2609 53.7044 26.2394C53.8026 26.1944 53.8016 26.1011 53.7027 26.0829C53.5361 26.0522 53.4607 25.875 53.5857 25.8078C53.6263 25.7859 53.6528 25.7372 53.6528 25.6841C53.6528 25.6014 53.6453 25.5976 53.5186 25.6147C53.4448 25.6246 53.3845 25.6186 53.3845 25.6012C53.3845 25.4683 53.6434 25.0841 53.8045 24.9779C53.8771 24.9301 53.8915 24.9335 54.0214 25.0281C54.3321 25.2544 54.8254 25.3104 55.2525 25.1679C55.4941 25.0873 55.4942 25.0873 55.6146 25.1525C55.6808 25.1883 55.7747 25.2494 55.8233 25.2884L55.9115 25.359L55.8373 25.4797C55.7965 25.5461 55.6722 25.685 55.5611 25.7885C55.3601 25.9756 55.3579 25.9766 55.1571 25.972C55.0087 25.9687 54.9403 25.9824 54.8992 26.0237C54.85 26.0732 54.8493 26.0841 54.8936 26.1141C54.9728 26.1678 55.295 26.1184 55.4913 26.0225C55.663 25.9386 55.8661 25.7201 55.8661 25.6192C55.8661 25.5521 55.9247 25.5311 55.9996 25.5714C56.0849 25.6173 56.085 25.6758 56.0004 25.8154C55.9563 25.8881 55.9334 25.9855 55.9333 26.1007C55.9332 26.3417 55.9012 26.4083 55.6632 26.6641C55.5493 26.7866 55.4748 26.8869 55.4978 26.8869C55.5951 26.8869 55.7712 26.7337 55.9683 26.4775L56.179 26.2036L56.184 25.9467C56.1878 25.7555 56.2078 25.6534 56.2623 25.5478C56.3401 25.3971 56.3575 25.2521 56.3021 25.2176C56.2836 25.2062 56.2685 25.1695 56.2685 25.1361C56.2685 25.0884 56.3374 25.0549 56.5871 24.9807C56.7623 24.9287 56.9057 24.876 56.9057 24.8636C56.9057 24.8079 56.8508 24.8108 56.5486 24.8824L56.2264 24.9589L56.2458 24.7939C56.2626 24.6514 56.2555 24.6221 56.1939 24.5787C56.139 24.5401 56.1207 24.4882 56.1147 24.3534C56.1104 24.2572 56.0964 24.0591 56.0836 23.9133C56.066 23.7131 56.0712 23.6348 56.1052 23.5937C56.1457 23.5447 56.1367 23.5408 56.0166 23.5554C55.9114 23.5682 55.8453 23.5505 55.7068 23.4725C55.5335 23.3749 55.5308 23.3709 55.5316 23.2164C55.5327 22.9832 55.5845 22.8 55.667 22.7375C55.7303 22.6894 55.7328 22.6791 55.6858 22.661C55.5666 22.615 55.65 22.3238 55.8541 22.0734C56.0393 21.8461 56.1759 21.7746 56.541 21.7137C57.0643 21.6265 57.0789 21.6292 57.4476 21.8797C57.9089 22.1931 58.113 22.3929 58.113 22.5312C58.113 22.6336 58.1084 22.6378 58.0375 22.6005C57.996 22.5787 57.8515 22.4641 57.7165 22.3459C57.4375 22.1016 57.2875 22.0158 57.0788 21.9809C56.9401 21.9576 56.9349 21.9597 56.9694 22.0245C56.9915 22.066 57.0923 22.1216 57.2275 22.1668C57.37 22.2145 57.5111 22.294 57.6219 22.389C57.7168 22.4704 57.8669 22.5921 57.9555 22.6594C58.0441 22.7267 58.1684 22.8632 58.2318 22.9627C58.2951 23.0623 58.3625 23.1437 58.3816 23.1437C58.4007 23.1437 58.4329 23.1805 58.4533 23.2255C58.4832 23.2915 58.477 23.3352 58.4208 23.4531C58.3825 23.5333 58.3362 23.6395 58.3178 23.689C58.2704 23.8167 58.1618 23.7784 58.0736 23.6031C58.0352 23.5266 57.9453 23.3999 57.8739 23.3215C57.8025 23.2431 57.7441 23.1498 57.7441 23.1143C57.7441 23.056 57.7576 23.0528 57.8827 23.081C57.9589 23.0982 58.0282 23.1053 58.0367 23.0968C58.0612 23.0721 57.8552 22.9751 57.7782 22.9751C57.6443 22.9751 57.4577 22.8696 57.2746 22.6905C57.0954 22.5152 56.9615 22.4388 56.9289 22.4932C56.9201 22.5078 57.0013 22.6185 57.1094 22.739C57.2429 22.888 57.2902 22.9617 57.2568 22.9691C57.2297 22.9751 57.2075 23.0017 57.2075 23.0281C57.2075 23.0635 57.2526 23.0763 57.3774 23.0763C57.5823 23.0763 57.6625 23.1145 57.6901 23.2254C57.7016 23.2713 57.7838 23.4045 57.8728 23.5213C58.0782 23.7909 58.113 23.8576 58.113 23.982C58.113 24.1285 57.977 24.2707 57.6063 24.5119C57.1566 24.8044 57.1118 24.8794 57.5021 24.6865C57.6286 24.624 57.8089 24.4937 57.9219 24.383C58.2278 24.0838 58.2794 24.1173 58.2802 24.6162L58.2807 24.8915L58.125 25.0293C58.0394 25.1051 57.9564 25.1671 57.9406 25.1671C57.9248 25.1671 57.9118 25.1898 57.9118 25.2176C57.9118 25.2455 57.9263 25.2682 57.9441 25.2682C57.9863 25.2682 58.0313 25.3589 58.0571 25.4957C58.0741 25.5857 58.06 25.6254 57.9778 25.7195C57.9229 25.7824 57.856 25.8965 57.8291 25.973C57.725 26.2699 57.3272 26.7373 56.9458 27.011C56.8291 27.0948 56.7409 27.1708 56.75 27.18C56.7873 27.2174 56.9228 27.1405 57.0938 26.9847C57.2012 26.887 57.307 26.8195 57.3529 26.8195C57.4453 26.8195 57.503 26.758 57.7595 26.3869C58.0023 26.0356 58.0399 26.0548 57.9659 26.4919C57.8993 26.8842 57.8986 26.8626 57.9766 26.8206C58.0123 26.8015 58.0878 26.7857 58.1443 26.7857C58.2418 26.7857 58.2471 26.7927 58.2471 26.9198C58.2471 27.0335 58.2324 27.0614 58.1501 27.1042C58.0968 27.1319 58.0372 27.2006 58.0177 27.2568C57.9938 27.3258 57.96 27.359 57.9135 27.359C57.8374 27.359 57.832 27.3224 57.8752 27.0977C57.8968 26.9855 57.8928 26.9543 57.857 26.9543C57.8318 26.9543 57.8112 26.9764 57.8112 27.0033C57.8112 27.1478 57.2724 28.0209 56.9946 28.3266C56.8175 28.5214 56.7769 28.5372 56.6929 28.4439C56.584 28.3229 56.6523 27.8621 56.7868 27.8102C56.8504 27.7856 56.8601 27.5823 56.7967 27.6034C56.7737 27.611 56.7103 27.6808 56.6558 27.7585C56.5735 27.8759 56.5538 27.9435 56.5385 28.1597L56.5201 28.4197L56.3691 28.4449C56.115 28.4872 56.0673 28.5049 56.0673 28.5568C56.0673 28.5843 56.09 28.6068 56.1176 28.6068C56.1771 28.6068 56.1869 28.7779 56.1332 28.8788C56.1025 28.9364 56.11 28.944 56.198 28.944C56.2692 28.944 56.3169 28.9165 56.366 28.8473C56.4187 28.7729 56.4539 28.7544 56.5191 28.7669C56.5713 28.777 56.6039 28.8059 56.6039 28.8423C56.6039 28.9188 56.8552 29.0861 56.95 29.0725C56.9939 29.0662 57.0431 29.0186 57.0734 28.9531C57.1326 28.825 57.248 28.8064 57.3563 28.9075C57.3944 28.9431 57.4783 28.9857 57.5429 29.0022C57.6566 29.0313 57.6606 29.0379 57.6705 29.211C57.6788 29.3546 57.6936 29.393 57.746 29.4068C57.8174 29.4256 57.8278 29.4729 57.7776 29.551C57.7571 29.583 57.7449 29.5865 57.7446 29.5605C57.7443 29.5379 57.7215 29.5281 57.6938 29.5388C57.6582 29.5525 57.6433 29.6091 57.6428 29.7316L57.6421 29.9051L57.327 30.2001C57.1536 30.3624 56.995 30.4952 56.9743 30.4952C56.9537 30.4952 56.8997 30.4707 56.8542 30.4408C56.7725 30.3869 56.7716 30.3875 56.7716 30.4902C56.7716 30.6219 56.6971 30.6639 56.4636 30.6637C56.3433 30.6636 56.2488 30.6412 56.173 30.5947C56.0843 30.5403 56.0296 30.5305 55.9131 30.5481C55.7455 30.5733 55.73 30.5432 55.8115 30.3508C55.8722 30.2074 55.9689 30.1244 56.2518 29.9724C56.8357 29.6588 57.4313 29.1773 57.3851 29.0563C57.3594 28.9889 57.2625 29.0551 56.9829 29.3308C56.8057 29.5056 56.6385 29.6278 56.3909 29.7635C55.9986 29.9785 55.8518 30.0211 55.4988 30.0223C55.2719 30.023 55.2208 30.0369 54.9454 30.1726C54.7006 30.2932 54.61 30.3599 54.4761 30.5182C54.3849 30.6262 54.2301 30.7798 54.1322 30.8595C53.9378 31.0179 53.8572 31.1503 53.7687 31.4562C53.6544 31.8515 53.7563 32.4887 53.9936 32.8633C54.1479 33.1067 54.2777 33.171 54.6478 33.1873C54.9562 33.2009 54.9585 33.2004 55.0599 33.0984C55.116 33.042 55.1619 32.9719 55.1619 32.9427C55.1619 32.8818 55.2373 32.8736 55.3314 32.9242C55.4322 32.9785 55.5007 33.1461 55.5076 33.3555C55.5135 33.5333 55.5083 33.5479 55.4349 33.5584C55.3666 33.5681 55.3585 33.5832 55.3757 33.6696C55.3871 33.7266 55.3824 33.7614 55.365 33.7506C55.3481 33.7401 55.262 33.8157 55.1737 33.9186C55.0327 34.0828 55.0017 34.1031 54.9201 34.0851C54.8202 34.0631 54.8202 34.0634 54.8782 34.3591C54.8903 34.4209 54.8677 34.4337 54.6865 34.4676C54.4761 34.5069 54.3441 34.5938 54.313 34.7134C54.2986 34.769 54.3147 34.778 54.4289 34.778C54.6011 34.778 54.7144 34.8393 54.8841 35.0244C55.1206 35.2824 55.1745 35.4385 55.0761 35.5798C54.9974 35.6928 54.865 35.6792 54.8215 35.5536C54.7616 35.3808 54.6924 35.4264 54.6924 35.6387C54.6924 35.8052 54.7011 35.8284 54.7742 35.8563C54.8192 35.8735 54.8725 35.9187 54.8927 35.9566C54.9386 36.0428 54.9241 36.0427 54.7548 35.9559C54.5991 35.876 54.5691 35.8858 54.6276 35.9975C54.6857 36.1083 54.7222 36.1259 54.8936 36.1254C55.0389 36.125 55.0525 36.1158 55.2625 35.8762C55.3985 35.7209 55.516 35.6186 55.5751 35.6041C55.6891 35.5761 55.6869 35.5742 55.7149 35.7249C55.7334 35.8248 55.7224 35.8634 55.6508 35.9489C55.5638 36.0529 55.5341 36.1943 55.5993 36.1943C55.6186 36.1943 55.6713 36.2314 55.7165 36.2768L55.7986 36.3594L55.8384 36.2853C55.8604 36.2445 55.8848 36.0822 55.8928 35.9245C55.9073 35.6353 55.9669 35.4922 56.1273 35.361C56.1802 35.3177 56.3021 35.3579 56.3021 35.4186C56.3021 35.4358 56.3334 35.534 56.3716 35.6368C56.4705 35.9026 56.5788 35.9722 57.1653 36.1471C57.9751 36.3886 58.3115 36.3502 58.5701 35.9869C58.7138 35.7851 58.9946 35.2147 58.9399 35.2358C58.9155 35.2453 58.8213 35.3823 58.7306 35.5404C58.5493 35.8565 58.4286 35.9583 58.2348 35.9583C58.1024 35.9583 58.0829 35.9167 58.1644 35.8085C58.1914 35.7725 58.2136 35.7288 58.2136 35.7114C58.2136 35.6826 57.9722 35.7 57.7944 35.7417C57.745 35.7533 57.7063 35.7245 57.6476 35.6325C57.5684 35.5085 57.5682 35.5067 57.6297 35.3919C57.7018 35.2572 58.055 34.8791 58.1087 34.8791C58.1325 34.8791 58.1383 34.9301 58.1253 35.0257C58.1104 35.1347 58.1235 35.2136 58.1762 35.3335C58.2152 35.4222 58.2471 35.5341 58.2471 35.5822C58.2471 35.663 58.2638 35.6531 58.4659 35.4517C58.5861 35.3318 58.6667 35.2277 58.6448 35.2204C58.623 35.2131 58.5864 35.2328 58.5635 35.2643C58.5325 35.3069 58.4825 35.3188 58.3672 35.3111L58.2125 35.3007L58.3311 35.1239C58.4194 34.9924 58.4444 34.9257 58.4289 34.8636C58.4145 34.8058 58.4302 34.7511 58.4799 34.6862C58.5195 34.6347 58.5776 34.5579 58.6091 34.5156C58.6439 34.4688 58.7176 34.4304 58.7972 34.4176L58.9281 34.3965L58.9087 34.5422C58.898 34.6223 58.858 34.7271 58.8199 34.775C58.7237 34.8961 58.6412 35.0506 58.6618 35.0713C58.6712 35.0807 58.7214 35.0744 58.7732 35.0572C58.8487 35.0321 58.8792 34.9893 58.926 34.8429C58.9794 34.6756 59.0817 34.5419 59.1563 34.5419C59.2135 34.5419 59.1856 34.7116 59.1191 34.7689C59.0495 34.8288 59.0261 34.9803 59.0864 34.9803C59.1052 34.9803 59.1364 34.9386 59.1556 34.8876C59.1747 34.8366 59.2504 34.723 59.3239 34.6353C59.4977 34.4275 59.5446 34.308 59.5722 34.0017C59.5903 33.8013 59.6149 33.7207 59.6918 33.6099C59.8184 33.4273 59.8442 33.3541 59.9047 33.0055C59.9525 32.7301 59.9518 32.7071 59.8924 32.5901C59.8578 32.5219 59.7895 32.2704 59.7405 32.0313C59.6915 31.7921 59.6288 31.5525 59.6012 31.4988C59.5736 31.4451 59.4217 31.3074 59.2638 31.1927C59.1058 31.078 58.869 30.9041 58.7376 30.8063C58.5042 30.6325 58.4947 30.6288 58.326 30.6495C58.0821 30.6795 58.0132 30.6072 58.0102 30.3182L58.0081 30.1074L57.9539 30.217C57.924 30.2773 57.8891 30.3266 57.8762 30.3266C57.8544 30.3266 57.7441 29.9337 57.7441 29.8561C57.7441 29.8367 57.7947 29.764 57.8566 29.6944C58.0026 29.5303 58.0323 29.4681 58.0616 29.2653C58.0778 29.1532 58.1126 29.0726 58.1665 29.0224C58.225 28.9679 58.2468 28.912 58.246 28.8191L58.2449 28.6911L58.1817 28.7673L58.1184 28.8435L58.0479 28.7534L57.9774 28.6632L58.0452 28.5907C58.0991 28.5329 58.113 28.4725 58.113 28.2945C58.113 28.1018 58.1233 28.0638 58.1875 28.0185C58.3142 27.9293 58.3252 27.952 58.3021 28.254C58.2809 28.5312 58.2825 28.5407 58.3447 28.5072C58.3803 28.4881 58.4193 28.423 58.4313 28.3625C58.4745 28.1473 58.483 28.1346 58.5847 28.1346C58.6771 28.1346 58.6831 28.1428 58.6831 28.2695C58.6831 28.3437 58.6673 28.4044 58.648 28.4044C58.6042 28.4044 58.4491 28.734 58.4487 28.8279C58.4485 28.8661 58.4705 28.9268 58.4976 28.9628C58.5256 29.0001 58.5473 29.103 58.5479 29.202C58.5495 29.4634 58.6757 30.1552 58.75 30.3095C58.786 30.3843 58.8876 30.5169 58.9758 30.6042C59.1262 30.7531 59.1522 30.7653 59.3969 30.802C59.6329 30.8372 59.664 30.8352 59.7238 30.7809C59.8096 30.7028 59.807 30.6826 59.7059 30.6362C59.6327 30.6027 59.6221 30.5764 59.6221 30.4285C59.6221 30.2703 59.6276 30.2592 59.7059 30.2592C59.7636 30.2592 59.7896 30.2407 59.7893 30.2001C59.7876 30.0113 59.6024 30.0169 59.5115 30.2086C59.4397 30.3599 59.3772 30.384 59.2343 30.3155C58.9771 30.1921 58.7721 29.7208 58.7904 29.295L58.8005 29.062L58.9095 29.0515C59.0143 29.0413 59.0184 29.0352 59.0184 28.8929C59.0184 28.8114 59.0352 28.7079 59.0557 28.6626C59.1148 28.5322 59.3283 28.4597 59.4103 28.5422C59.4876 28.6199 59.8316 28.3823 59.9036 28.2013C59.931 28.1324 59.9782 28.0664 60.0085 28.0547C60.0856 28.0249 60.0916 28.0271 60.0916 28.0839C60.0916 28.1265 60.1188 28.1239 60.2676 28.0671C60.3645 28.0301 60.4706 27.9998 60.5034 27.9998C60.5363 27.9997 60.5719 27.977 60.5825 27.9492C60.5932 27.921 60.6431 27.8986 60.6948 27.8986C60.7847 27.8986 60.7883 27.8916 60.8046 27.6878C60.8196 27.4995 60.8129 27.4682 60.742 27.394C60.6797 27.3288 60.6538 27.3197 60.6219 27.3518C60.5995 27.3743 60.5465 27.3927 60.5041 27.3927C60.4383 27.3927 60.4269 27.3754 60.4269 27.2747C60.4269 27.1923 60.4421 27.1567 60.4772 27.1567C60.5082 27.1567 60.5275 27.1251 60.5275 27.0746C60.5275 26.9704 60.4506 26.9448 60.1814 26.9597L59.9742 26.9712L59.9767 26.8363C59.9781 26.7621 60.0213 26.5958 60.0728 26.4667C60.1552 26.2602 60.1646 26.1998 60.1511 25.965C60.137 25.7203 60.1198 25.6673 59.946 25.3314C59.8416 25.1298 59.7562 24.9421 59.7562 24.9142C59.7562 24.8817 59.7893 24.8632 59.8485 24.8624C59.8992 24.8618 59.9776 24.8304 60.0227 24.7926C60.1089 24.7205 60.1071 24.7163 59.952 24.6268C59.9213 24.6091 59.8702 24.5261 59.8384 24.4424C59.7746 24.2744 59.7645 24.2682 59.6704 24.3398C59.5844 24.4052 59.4241 24.4054 59.3992 24.3401C59.3884 24.3118 59.3958 24.2246 59.4156 24.1462C59.4505 24.0086 59.4481 24.0008 59.3476 23.9215C59.2197 23.8206 59.0492 23.6349 58.9945 23.537C58.9447 23.4479 58.9392 23.2901 58.9849 23.2617C59.0034 23.2503 59.0184 23.2115 59.0184 23.1754C59.0184 23.0781 58.89 23.0905 58.8518 23.1916C58.8305 23.2478 58.802 23.2681 58.7604 23.2569C58.6463 23.2262 58.5769 23.151 58.5882 23.0706C58.5979 23.0015 58.6176 22.992 58.7502 22.992H58.9011L58.8971 22.864C58.8947 22.786 58.8663 22.707 58.8244 22.6616C58.7866 22.6207 58.7448 22.5266 58.7316 22.4524C58.6968 22.2571 58.5922 22.0671 58.4857 22.0056C58.3958 21.9537 58.394 21.9469 58.4221 21.7666L58.4511 21.581L58.3088 21.4352C57.9393 21.0566 57.1698 20.8185 56.1136 20.756L55.7182 20.7326L55.549 20.4027C55.4094 20.1305 55.3418 20.0399 55.1619 19.8841C54.8677 19.6293 54.5061 19.3928 54.1223 19.2042C53.807 19.0493 53.7991 19.0474 53.3677 19.0248C53.1279 19.0123 52.6526 19.0012 52.3114 19.0002C51.7911 18.9986 51.6639 19.0082 51.5233 19.0598ZM53.2532 19.1698C53.2879 19.235 53.2953 19.2368 53.3231 19.1867C53.3804 19.0839 53.477 19.1289 53.7019 19.3631C53.983 19.6559 54.2027 19.9548 54.2535 20.1136C54.2767 20.186 54.3197 20.2435 54.3585 20.2537C54.4482 20.2773 54.4424 20.2265 54.3235 19.9455C54.2681 19.8147 54.2229 19.7005 54.2229 19.6917C54.2229 19.6829 54.2945 19.6602 54.3822 19.6412C54.5279 19.6095 54.552 19.6139 54.6656 19.6925C54.7339 19.7397 54.866 19.8594 54.959 19.9584L55.1283 20.1384V20.3781C55.1283 20.5271 55.1089 20.6556 55.0772 20.7174L55.026 20.8169L54.549 20.8189C54.0813 20.8208 53.9649 20.8331 53.5786 20.9214L53.3871 20.9651L53.2499 20.8543C53.0734 20.7116 53.0159 20.7331 53.0145 20.9423C53.0135 21.092 53.0054 21.1073 52.9 21.1568C52.7529 21.226 52.6819 21.1888 52.5312 20.9639C52.4243 20.8042 52.4185 20.7812 52.4361 20.5862C52.4555 20.3709 52.4166 20.3111 52.3449 20.4459C52.2969 20.5361 52.2496 20.5316 51.9563 20.4088C51.7046 20.3034 51.6071 20.2994 51.6071 20.3943C51.6071 20.4276 51.6385 20.4459 51.6954 20.4459C51.8183 20.4459 51.9845 20.5572 52.0854 20.7071C52.2344 20.9286 52.2322 20.9681 52.0678 21.0312C51.9884 21.0617 51.8745 21.0866 51.8145 21.0866C51.7473 21.0866 51.698 21.1066 51.6857 21.1387C51.6577 21.2122 51.6721 21.2171 51.8419 21.1914C52.0742 21.1564 52.1101 21.1733 52.1101 21.3178C52.1101 21.4258 52.0829 21.4699 51.9098 21.6422C51.7996 21.7518 51.7158 21.8479 51.7236 21.8557C51.7584 21.8907 51.9807 21.7095 52.1891 21.4762C52.3143 21.3361 52.4368 21.2215 52.4615 21.2215C52.5669 21.2215 52.4451 21.3858 52.0219 21.8143C51.7753 22.064 51.5736 22.2881 51.5736 22.3123C51.5736 22.3365 51.6079 22.3888 51.65 22.4285C51.7865 22.5575 52.0007 22.6121 52.4386 22.6296L52.8508 22.6461L52.8288 22.7937L52.8068 22.9414H52.9972C53.2342 22.9414 53.2806 22.9663 53.4333 23.1754C53.5377 23.3184 53.5525 23.3603 53.534 23.4598C53.4999 23.6425 53.3962 23.7139 53.0785 23.7735C52.6201 23.8595 52.5595 23.8806 52.3415 24.0297C52.1416 24.1665 51.9657 24.3924 52.0181 24.4451C52.0316 24.4586 52.2093 24.3838 52.4131 24.2788C52.8047 24.0771 52.8813 24.057 52.9485 24.1385C53.0203 24.2255 53.2339 24.2025 53.3399 24.0964L53.4325 24.0036L53.4577 24.1507C53.4715 24.2317 53.5196 24.3463 53.5646 24.4056C53.6095 24.4648 53.6494 24.5503 53.6532 24.5957C53.676 24.8652 53.658 24.9077 53.3185 25.3847L52.9843 25.8543L53.1089 25.8971C53.2983 25.9621 53.3845 26.0824 53.3845 26.2818C53.3845 26.4034 53.3716 26.4485 53.3368 26.4485C53.3106 26.4485 53.1823 26.5472 53.0516 26.6677C52.8758 26.83 52.7894 26.8869 52.7188 26.8869C52.5949 26.8869 52.4992 26.7812 52.5207 26.6681C52.5401 26.5662 52.4963 26.5246 52.4525 26.6033C52.4246 26.6535 52.4075 26.652 52.2617 26.5872C52.1737 26.548 52.0658 26.516 52.0219 26.516C51.9454 26.516 51.944 26.5202 51.9863 26.6256C52.0381 26.7544 52.3564 26.9659 52.4525 26.9353C52.5521 26.9035 52.6383 26.9511 52.6569 27.0482C52.6719 27.1262 52.6408 27.1749 52.4474 27.3759C52.1532 27.6816 52.0431 27.8968 52.0431 28.1661C52.0431 28.3427 52.0303 28.3829 51.9425 28.4836C51.7501 28.7039 51.8336 28.9309 52.2311 29.2681C52.6023 29.5829 52.7344 29.718 52.6719 29.7188C52.6396 29.7193 52.6132 29.7427 52.6132 29.7708C52.6132 29.8301 52.4742 29.8083 52.3626 29.7314C52.2607 29.6613 52.1545 29.6748 51.6365 29.8243C51.072 29.9871 50.9674 29.9967 50.8596 29.8948C50.7715 29.8117 50.6974 29.8018 50.6034 29.8608C50.5539 29.8919 50.5108 29.8913 50.4107 29.8581C50.2473 29.8039 50.0516 29.8201 50.0386 29.8889C50.0323 29.9226 50.1024 29.9766 50.2434 30.0465C50.5143 30.1809 50.5538 30.2739 50.3724 30.3501C50.2846 30.387 50.1928 30.396 50.0534 30.3813C49.8069 30.3554 49.2837 30.1816 49.1131 30.0689C48.9881 29.9862 48.984 29.9775 48.9985 29.8261C49.0069 29.7397 49.0766 29.5267 49.1534 29.3528C49.3062 29.0071 49.3217 28.9334 49.238 28.9499C49.1428 28.9688 49.0563 29.1254 49.0261 29.3336C48.9962 29.5397 48.8765 29.8522 48.8105 29.8961C48.7901 29.9097 48.7239 29.9117 48.6635 29.9006C48.5791 29.885 48.5232 29.9007 48.4218 29.9681C48.3493 30.0164 48.274 30.0858 48.2546 30.1223C48.2235 30.1807 48.2444 30.2057 48.4292 30.331C48.5447 30.4092 48.699 30.5242 48.7722 30.5864C48.8453 30.6486 48.9962 30.7276 49.1075 30.762C49.2433 30.8038 49.3138 30.8441 49.3218 30.8843C49.333 30.9412 49.2782 30.9433 48.2829 30.9242C47.5888 30.9109 47.2281 30.8919 47.2202 30.8682C47.2051 30.8225 46.923 30.8212 46.895 30.8668C46.8445 30.9489 47.1379 31.2719 47.4655 31.4947C47.6263 31.6041 48.0531 31.7468 48.2234 31.7481C48.3095 31.7488 48.4666 31.7312 48.5727 31.7091C48.7256 31.6772 48.7819 31.6777 48.8449 31.7116C48.9841 31.7865 48.9293 31.9407 48.7264 32.0447C48.542 32.1393 47.7525 32.2293 47.7495 32.156C47.7489 32.1421 47.7279 32.1036 47.7028 32.0704C47.6597 32.0132 47.6407 32.0166 47.3462 32.1351L47.0351 32.2603L47.1664 32.3739C47.589 32.739 48.179 33.0581 48.4318 33.0581C48.5883 33.0581 48.593 33.0611 48.5827 33.1509C48.5724 33.2412 48.5661 33.2438 48.3339 33.2534C48.0656 33.2644 47.7875 33.1809 47.6194 33.0386C47.5062 32.9429 47.4087 32.9345 47.3299 33.0138C47.2632 33.0808 47.1466 33.3428 47.1475 33.4234C47.1479 33.4544 47.246 33.6459 47.3655 33.8492C47.485 34.0524 47.5828 34.2308 47.5828 34.2454C47.5828 34.2892 47.3922 34.2758 47.2738 34.2237C47.1625 34.1749 46.1821 34.0508 46.1513 34.0817C46.0798 34.1536 46.5257 34.6611 46.8076 34.8286C46.9012 34.8842 46.9782 34.9532 46.9785 34.982C46.9795 35.0619 47.0496 35.1152 47.1536 35.1152C47.23 35.1152 47.2475 35.1301 47.2475 35.1949C47.2475 35.2536 47.1785 35.3316 46.9876 35.4889C46.8447 35.6067 46.529 35.8819 46.2861 36.1004L45.8445 36.4978H45.3882C45.0172 36.4978 44.896 36.4851 44.7399 36.4301C44.477 36.3373 44.2223 36.1535 44.0439 35.9281L43.8944 35.7391L43.8942 35.1152C43.8939 34.4029 43.8604 34.2592 43.6229 33.9487C43.4622 33.7386 43.4492 33.6023 43.5799 33.499C43.6826 33.4177 43.8161 33.4103 43.9087 33.4807C43.9519 33.5135 44.0536 33.5301 44.2106 33.5297C44.4614 33.5292 44.5065 33.5144 44.5405 33.4216C44.5719 33.336 44.7222 33.3082 44.7951 33.3746C44.8719 33.4445 44.9001 33.4144 44.8995 33.2633C44.8988 33.0896 44.8607 33.0408 44.7659 33.0918C44.7097 33.1221 44.6696 33.123 44.6091 33.0953C44.4792 33.0358 44.3369 33.0494 44.2966 33.1252C44.277 33.1621 44.2256 33.2011 44.1825 33.212C44.0792 33.2381 43.3573 33.064 43.3576 33.013C43.3577 32.9915 43.3742 32.9141 43.3944 32.8411C43.4235 32.7357 43.4187 32.6453 43.3714 32.4027C43.2948 32.0099 43.2505 31.9206 43.1143 31.8851L43.0062 31.8569L43.0964 31.7662C43.1725 31.6898 43.2156 31.6755 43.3709 31.6755C43.5421 31.6755 43.5615 31.6839 43.6447 31.7935C43.8812 32.1054 44.2304 31.7855 44.2838 31.2081C44.3008 31.0241 44.2946 30.9741 44.2506 30.9374C44.1454 30.8496 44.0952 30.9158 44.0947 31.1433C44.0938 31.5164 43.9656 31.6306 43.7547 31.4463C43.5583 31.2747 43.51 31.2606 43.314 31.3181C43.218 31.3462 43.0667 31.4157 42.9779 31.4725C42.8221 31.572 42.8168 31.5806 42.827 31.7183C42.8364 31.8445 42.8289 31.8622 42.7619 31.8718C42.6796 31.8835 42.3178 31.7308 42.3178 31.6843C42.3178 31.6686 42.4272 31.5217 42.5609 31.3578C42.7594 31.1147 42.8323 31.0499 42.9579 31.0052C43.1833 30.925 43.3859 30.6876 43.4213 30.4622C43.4418 30.3324 43.4782 30.2571 43.5654 30.1642C43.6297 30.0959 43.7174 29.9868 43.7603 29.9219C43.8033 29.857 43.9537 29.6597 44.0946 29.4835C44.789 28.615 45.0607 28.1693 45.2353 27.6123C45.3291 27.313 45.3397 27.2387 45.3305 26.9448C45.3195 26.59 45.3357 26.5513 45.4959 26.5502C45.5378 26.5499 45.7076 26.4812 45.8732 26.3976C46.2387 26.213 46.525 26.1632 47.0712 26.189C47.2785 26.1988 47.456 26.194 47.4657 26.1784C47.4866 26.1444 47.4456 26.1312 47.1064 26.0625C46.7501 25.9903 46.401 25.9964 46.1827 26.0787C45.749 26.2421 45.6545 26.2742 45.6423 26.262C45.6125 26.2319 45.9194 25.6695 46.0257 25.5594C46.1359 25.4453 46.1535 25.4392 46.3983 25.4298C46.7157 25.4176 46.7823 25.3445 46.49 25.329C46.3018 25.319 46.2974 25.3164 46.2552 25.1935L46.2122 25.0683L46.4792 25.0106C46.626 24.9789 46.7344 24.9413 46.7201 24.927C46.7059 24.9128 46.6112 24.8965 46.5097 24.8908L46.3253 24.8804L46.3328 24.5095C46.3462 23.8601 46.4256 23.5202 46.6256 23.2568C46.691 23.1707 46.7445 23.0721 46.7445 23.0377C46.7445 23.0033 46.7575 22.9751 46.7735 22.9751C46.7895 22.9751 46.9719 23.0609 47.1787 23.1657C47.6069 23.3826 47.6548 23.4424 47.5716 23.6553C47.5166 23.7962 47.4981 23.7839 47.8427 23.8362C48.0207 23.8632 48.0316 23.8096 47.8679 23.7125C47.8033 23.6742 47.7503 23.633 47.7501 23.6209C47.7498 23.6088 47.7399 23.5624 47.728 23.5178C47.7074 23.4402 47.712 23.4376 47.8342 23.4575C47.9044 23.469 48.1405 23.5858 48.3589 23.7171C48.7666 23.9622 48.9726 24.0542 49.114 24.0542C49.1583 24.0542 49.2033 24.077 49.2139 24.1048C49.2247 24.1329 49.2745 24.1554 49.3262 24.1554C49.4354 24.1554 49.5044 24.2248 49.474 24.3043C49.4622 24.3353 49.3941 24.3906 49.3226 24.4273C49.1666 24.5073 49.1558 24.5875 49.288 24.6858C49.349 24.7312 49.3992 24.813 49.4269 24.9128C49.4886 25.1342 49.6428 25.3525 49.7858 25.4208C49.8765 25.4641 49.961 25.4746 50.1164 25.4621C50.4538 25.4348 50.8308 25.1871 50.7972 25.0147C50.7868 24.9616 50.7735 24.9649 50.68 25.044C50.5658 25.1408 50.3998 25.1651 50.3998 25.0851C50.3998 25.0044 50.4995 24.931 50.6092 24.931C50.6664 24.931 50.742 24.9045 50.7773 24.872C50.8126 24.8395 50.9345 24.7674 51.0482 24.7118C51.228 24.6239 51.2563 24.5971 51.265 24.5072C51.278 24.3742 51.1782 24.324 50.9013 24.324C50.7121 24.324 50.7016 24.3197 50.7016 24.2418C50.7016 24.1907 50.7486 24.1151 50.8258 24.0418L50.95 23.924L50.8603 23.9014C50.8038 23.8872 50.6937 23.9049 50.5626 23.9494C50.4483 23.9883 50.3485 24.0138 50.341 24.0063C50.3335 23.9987 50.3442 23.9608 50.3648 23.9221C50.4011 23.854 50.3959 23.8545 50.2115 23.9365C50.1065 23.9832 50.0134 24.0141 50.0045 24.0051C49.9737 23.9741 50.1011 23.8163 50.2368 23.7175C50.3118 23.6628 50.549 23.5247 50.7638 23.4107C51.2125 23.1723 51.3922 23.0484 51.4766 22.919C51.6236 22.6936 51.417 22.7264 51.0165 22.9919C50.6614 23.2273 50.5489 23.2653 50.3064 23.2319C50.0096 23.191 50.0382 23.1052 50.3914 22.976C50.5103 22.9326 50.601 22.8793 50.601 22.853C50.601 22.7889 50.5862 22.7917 50.2865 22.913C49.9218 23.0605 49.916 23.0552 49.9041 22.5527L49.8946 22.1544L50.0047 22.0398L50.1148 21.9253L50.4067 21.9358L50.6987 21.9463L50.8372 21.8115C51.0282 21.6256 51.089 21.4912 51.1645 21.088C51.2086 20.8526 51.2473 20.7301 51.2843 20.7093C51.3576 20.6681 51.361 20.3849 51.2885 20.3569C51.2543 20.3437 51.2382 20.2898 51.2382 20.1884C51.2382 20.0898 51.2042 19.9715 51.1376 19.8389C51.019 19.6025 51.0149 19.5576 51.1041 19.468C51.153 19.4187 51.2158 19.4005 51.3368 19.4005C51.428 19.4005 51.5119 19.4157 51.5233 19.4342C51.5502 19.478 51.7311 19.478 51.758 19.4342C51.7888 19.3842 51.9811 19.3934 52.1478 19.4529C52.2286 19.4817 52.4681 19.5187 52.6802 19.5352C52.9076 19.5528 53.1896 19.6005 53.3675 19.6514C53.7295 19.755 53.7198 19.7545 53.7198 19.6703C53.7198 19.6188 53.6975 19.6028 53.6251 19.6028C53.5731 19.6028 53.4044 19.5649 53.2503 19.5185C53.0599 19.4612 52.8889 19.4341 52.7163 19.4337C52.4252 19.4332 52.3093 19.3876 52.2756 19.2606C52.2545 19.181 52.2628 19.1692 52.3529 19.151C52.544 19.1126 52.7138 19.1269 52.7138 19.1813C52.7138 19.2197 52.7552 19.2319 52.8854 19.2319C53.0404 19.2319 53.0553 19.2254 53.0394 19.1645C53.0134 19.0645 53.1997 19.0692 53.2532 19.1698ZM52.9793 19.1427C52.9415 19.1752 52.7473 19.1926 52.7473 19.1636C52.7473 19.1455 52.8026 19.1307 52.8703 19.1307C52.9379 19.1307 52.987 19.1361 52.9793 19.1427ZM48.4033 19.6934C48.5551 19.7662 48.5555 19.8468 48.4043 19.9018C48.3195 19.9327 48.2288 20.0215 48.0792 20.2205C47.9652 20.3723 47.7621 20.6274 47.6279 20.7875C47.4012 21.0579 47.3861 21.0857 47.4134 21.1817C47.4389 21.271 47.4319 21.2923 47.3619 21.3384C47.2812 21.3916 47.281 21.3915 47.281 21.2601C47.281 21.1878 47.2584 21.0741 47.2307 21.0075C47.1658 20.8513 47.1665 20.5391 47.2322 20.3167C47.3295 19.9871 47.6573 19.7207 48.0244 19.6728C48.1412 19.6576 48.2476 19.6432 48.2608 19.6409C48.274 19.6385 48.3381 19.6621 48.4033 19.6934ZM49.1171 19.8325C49.0373 19.8419 49.0249 19.8584 49.0249 19.9547C49.0249 20.0602 49.0173 20.0671 48.883 20.0852C48.8049 20.0957 48.739 20.1015 48.7364 20.0981C48.7338 20.0947 48.7593 20.0273 48.793 19.9485C48.846 19.8248 48.8684 19.8052 48.9564 19.8052C49.0125 19.8052 49.0584 19.7895 49.0584 19.7703C49.0584 19.7486 49.0871 19.7518 49.1339 19.7785L49.2093 19.8216L49.1171 19.8325ZM48.7168 20.8419C48.7257 20.935 48.7182 20.9481 48.6665 20.9299C48.5131 20.8761 48.47 20.7052 48.6141 20.7219C48.6909 20.7308 48.708 20.7508 48.7168 20.8419ZM48.3299 20.8422C48.3591 20.8747 48.4058 20.9454 48.4336 20.9994C48.48 21.0891 48.4787 21.1083 48.4186 21.2268C48.3319 21.3977 48.2207 21.9591 48.2203 22.2282L48.22 22.4424L48.0775 22.3588C47.9991 22.3128 47.8859 22.2114 47.826 22.1335C47.732 22.0114 47.717 21.9652 47.717 21.7983C47.717 21.3637 47.9957 20.7831 48.2043 20.7831C48.2441 20.7831 48.3006 20.8097 48.3299 20.8422ZM56.6183 20.916C56.6749 20.9334 56.8646 20.9645 57.0399 20.985C57.3981 21.027 57.598 21.1067 57.876 21.3187C57.9762 21.3952 58.1083 21.4759 58.1695 21.4982C58.2596 21.5309 58.2769 21.5519 58.2599 21.6077C58.2306 21.704 58.1802 21.7611 58.1244 21.7611C58.0983 21.7611 57.9379 21.707 57.768 21.6409C57.5981 21.5748 57.3167 21.4835 57.1427 21.4379C56.9687 21.3924 56.702 21.3049 56.55 21.2435L56.2737 21.132L56.3256 21.2625C56.3542 21.3342 56.3719 21.3978 56.365 21.4038C56.3386 21.4267 55.9307 21.5588 55.8865 21.5588C55.8609 21.5588 55.8064 21.5314 55.7653 21.4979C55.7052 21.449 55.6907 21.4025 55.6907 21.2591C55.6907 21.1611 55.7038 21.0678 55.7197 21.0517C55.7361 21.0353 55.8137 21.0372 55.8973 21.0562C55.9791 21.0746 56.0749 21.0852 56.1103 21.0798C56.1722 21.0701 56.1718 21.0662 56.1018 20.977L56.0289 20.8843H56.2721C56.4059 20.8843 56.5616 20.8986 56.6183 20.916ZM55.1292 21.1545C55.3223 21.2536 55.373 21.3471 55.3324 21.5292C55.3132 21.6156 55.2641 21.7076 55.2139 21.751C55.1669 21.7919 55.1283 21.857 55.1283 21.8957C55.1283 21.985 55.0208 22.1986 54.9379 22.2741C54.9029 22.3058 54.8201 22.3546 54.7538 22.3825C54.6762 22.415 54.6258 22.4626 54.6126 22.5157C54.5826 22.6359 54.3085 22.8658 54.0394 22.9964C53.7778 23.1235 53.6339 23.1416 53.6048 23.051C53.5944 23.0185 53.5401 22.9658 53.4841 22.9339C53.3835 22.8765 53.2178 22.5844 53.2171 22.4632C53.2165 22.3493 53.3124 22.3006 53.5378 22.3006C53.6591 22.3006 53.7534 22.2859 53.7534 22.2669C53.7534 22.2484 53.7166 22.2332 53.6717 22.2332C53.5473 22.2332 53.418 22.1735 53.418 22.116C53.418 22.0122 53.2929 22.0679 53.1842 22.22C53.0485 22.4101 52.9075 22.4762 52.699 22.4474C52.5315 22.4243 52.5007 22.366 52.6259 22.3086C52.6697 22.2885 52.8282 22.1633 52.978 22.0304C53.2003 21.833 53.2503 21.7708 53.2503 21.6913C53.2503 21.5655 53.3385 21.5104 53.6236 21.4584C53.8054 21.4252 53.8527 21.4029 53.8828 21.3365C53.903 21.2918 53.9388 21.2543 53.9623 21.2532C54.0649 21.2484 54.3176 21.1895 54.4409 21.1416C54.6375 21.0653 54.9673 21.0715 55.1292 21.1545ZM48.8361 21.3986C48.8756 21.547 48.8553 21.6269 48.705 21.9134L48.5529 22.2036L48.6379 22.3053C48.7208 22.4043 48.7528 22.5817 48.6944 22.618C48.6786 22.6278 48.6343 22.6021 48.5959 22.5609C48.2624 22.2037 48.3489 21.3227 48.7176 21.3227C48.7911 21.3227 48.8209 21.3418 48.8361 21.3986ZM53.006 21.4544C53.0496 21.5193 53.0827 21.6197 53.0827 21.6866V21.8046L52.8649 21.7841C52.7451 21.7729 52.6168 21.7474 52.5798 21.7275C52.4498 21.6575 52.5256 21.4797 52.7305 21.374C52.8655 21.3045 52.9153 21.3191 53.006 21.4544ZM47.1415 21.5098C47.1853 21.6064 47.1896 21.7295 47.1585 21.9904C47.1399 22.146 47.1282 22.1678 47.0683 22.159C47.0166 22.1514 46.9834 22.0981 46.9346 21.9446C46.8699 21.7407 46.87 21.7399 46.9394 21.5821C47.0172 21.4052 47.0834 21.3815 47.1415 21.5098ZM50.0489 21.5944C50.0857 21.6543 50.0346 21.7891 49.9668 21.8107C49.9278 21.8232 49.8705 21.9124 49.8201 22.0392C49.7228 22.2837 49.662 22.3263 49.662 22.15C49.662 22.0199 49.7424 21.8285 49.7971 21.8285C49.815 21.8285 49.8297 21.7678 49.8297 21.6936C49.8297 21.5668 49.8357 21.5588 49.9284 21.5588C49.9826 21.5588 50.0368 21.5748 50.0489 21.5944ZM57.8279 21.815C58.0965 22.0001 58.1032 22.008 58.1292 22.1624C58.1529 22.3034 58.1512 22.3077 58.0892 22.263C57.8923 22.1209 57.4423 21.7465 57.4423 21.7247C57.4423 21.6854 57.5188 21.6641 57.5932 21.6827C57.6301 21.6919 57.7357 21.7515 57.8279 21.815ZM52.3784 22.0351C52.3784 22.165 52.3947 22.302 52.4146 22.3394C52.4435 22.3937 52.4385 22.4168 52.3895 22.4542C52.3557 22.48 52.3055 22.4924 52.2778 22.4817C52.2501 22.4711 52.1181 22.4464 51.9844 22.4269C51.8506 22.4074 51.7412 22.3758 51.7412 22.3567C51.7412 22.2964 52.3043 21.7527 52.3423 21.7763C52.3626 21.7889 52.3784 21.9025 52.3784 22.0351ZM55.2792 22.3034C55.2792 22.4512 55.2782 22.4525 55.1535 22.4629C55.05 22.4715 55.0277 22.4623 55.0277 22.4114C55.0277 22.3773 55.0532 22.3118 55.0845 22.266C55.2082 22.0842 55.2792 22.0979 55.2792 22.3034ZM54.9942 22.6553C54.9942 22.7019 54.9325 22.8619 54.857 23.0108C54.7816 23.1597 54.7275 23.3015 54.7368 23.326C54.7468 23.3521 54.8388 23.3801 54.9601 23.3939C55.267 23.4288 55.2723 23.4326 55.2468 23.6034C55.2175 23.7997 55.0469 24.3017 54.9631 24.438C54.9261 24.4983 54.8635 24.577 54.824 24.6129C54.7846 24.6487 54.7239 24.734 54.6893 24.8023C54.6293 24.9205 54.6209 24.925 54.5167 24.895C54.3306 24.8414 54.2041 24.6516 54.1241 24.3058C54.0601 24.029 54.0448 23.9976 53.9574 23.9644C53.8486 23.9232 53.8005 23.7839 53.8371 23.6162C53.8597 23.513 53.9946 23.3798 54.0765 23.3798C54.1763 23.3798 54.1191 23.2826 54.0133 23.2723L53.9043 23.2617L54.0024 23.1681C54.0563 23.1166 54.1846 23.0265 54.2874 22.9679C54.3902 22.9093 54.555 22.7959 54.6535 22.7159C54.8622 22.5465 54.9942 22.523 54.9942 22.6553ZM48.381 22.6446C48.4031 22.6669 48.4212 22.72 48.4212 22.7626C48.4212 22.826 48.4032 22.8402 48.3226 22.8402C48.2057 22.8402 48.1728 22.7987 48.2007 22.6865C48.2229 22.5977 48.3135 22.5767 48.381 22.6446ZM55.2419 22.82C55.2717 22.8831 55.296 23.0121 55.296 23.1066V23.2786L55.1367 23.2781C54.922 23.2774 54.8784 23.2452 54.9059 23.1073C54.9349 22.9612 55.0857 22.7053 55.1427 22.7053C55.1675 22.7053 55.2121 22.7569 55.2419 22.82ZM55.8996 22.7834C55.8996 22.7932 56.0279 22.8804 56.1847 22.9771C56.3415 23.0737 56.4694 23.1622 56.469 23.1736C56.4686 23.185 56.4388 23.2322 56.4027 23.2786C56.3116 23.3956 56.3184 23.4135 56.4541 23.4135C56.5456 23.4135 56.5787 23.4304 56.5999 23.4879C56.6244 23.5545 56.6323 23.5469 56.6763 23.4144C56.7272 23.2608 56.7446 23.2442 56.9392 23.1639L57.0566 23.1155L56.8605 23.1128C56.6236 23.1094 56.4506 23.0334 56.3836 22.9031C56.3392 22.8167 56.3165 22.8065 56.1698 22.8065C56.0796 22.8065 55.9819 22.7973 55.9527 22.786C55.9235 22.7748 55.8996 22.7736 55.8996 22.7834ZM48.8769 22.9244C48.9127 23.0676 48.876 23.1131 48.7581 23.0717C48.6759 23.0429 48.656 23.0168 48.656 22.9381C48.656 22.8519 48.668 22.8402 48.756 22.8402C48.8346 22.8402 48.8604 22.8582 48.8769 22.9244ZM59.3375 22.947C59.2528 23.014 59.1526 23.1931 59.1526 23.2775C59.1526 23.3333 59.3019 23.3179 59.4719 23.2446C59.5879 23.1946 59.6237 23.1629 59.6088 23.1238C59.5977 23.0946 59.5886 23.0265 59.5886 22.9723C59.5886 22.8913 59.5745 22.8739 59.5092 22.8739C59.4656 22.8739 59.3883 22.9068 59.3375 22.947ZM50.1232 23.3311C50.22 23.3744 50.2992 23.4245 50.2992 23.4427C50.2992 23.4859 49.9053 23.5273 49.6908 23.5066C49.5674 23.4947 49.4984 23.4666 49.4345 23.4023C49.3864 23.3539 49.3547 23.3066 49.3642 23.2971C49.3961 23.265 49.7451 23.2216 49.8465 23.2371C49.9018 23.2456 50.0263 23.2879 50.1232 23.3311ZM55.687 23.6031C55.7131 23.6373 55.7162 23.6883 55.6966 23.7573C55.6673 23.8597 55.6679 23.8602 55.7804 23.8419C55.8805 23.8255 55.8981 23.8343 55.9323 23.9173C55.9536 23.9689 55.9663 24.0778 55.9605 24.1592C55.9515 24.2854 55.9401 24.3056 55.8829 24.2966C55.846 24.2909 55.7366 24.2776 55.6397 24.2672C55.4309 24.2447 55.4013 24.2988 55.5894 24.3591C55.8633 24.4469 55.9332 24.4949 55.9332 24.595C55.9332 24.6472 55.895 24.7353 55.8483 24.7912C55.7407 24.9198 55.5005 24.9575 55.2379 24.8871C55.0664 24.8411 55.0612 24.8418 55.0107 24.9192C54.9523 25.0089 54.8865 25.0206 54.8295 24.9514C54.7995 24.9152 54.8029 24.8921 54.8445 24.8503C54.8741 24.8205 54.9197 24.7961 54.9459 24.7961C54.9755 24.7961 55.0016 24.7445 55.0152 24.6593C55.0271 24.5841 55.0931 24.435 55.1618 24.3281C55.2524 24.1873 55.2935 24.0793 55.3113 23.936C55.3393 23.7113 55.3826 23.5786 55.4406 23.5403C55.4953 23.5042 55.6397 23.541 55.687 23.6031ZM49.9639 23.7C49.9639 23.7278 49.9076 23.8132 49.8388 23.8898L49.7137 24.029L49.495 24.0103C49.2108 23.986 49.153 23.962 49.1656 23.8729C49.1746 23.8099 49.1951 23.8023 49.3369 23.8097C49.4359 23.8148 49.5392 23.7966 49.6049 23.7624C49.8198 23.6507 49.9639 23.6256 49.9639 23.7ZM59.1472 23.9378C59.1949 24.0431 59.1985 24.2566 59.1526 24.2566C59.1341 24.2566 59.1191 24.2338 59.1191 24.206C59.1191 24.142 59.1027 24.1425 59.0005 24.2098C58.9207 24.2625 58.9178 24.2616 58.9182 24.1846C58.9184 24.1407 58.9279 24.0479 58.9394 23.9783C58.9561 23.8767 58.9747 23.8519 59.0342 23.8519C59.0811 23.8519 59.1226 23.8835 59.1472 23.9378ZM51.4059 23.9782C51.4059 24.1206 51.6094 24.1709 51.6863 24.0474C51.7332 23.9722 51.7078 23.9512 51.5428 23.9289C51.422 23.9126 51.4059 23.9184 51.4059 23.9782ZM50.098 24.1508C50.098 24.2045 49.9596 24.3577 49.9111 24.3577C49.8298 24.3577 49.8526 24.1913 49.9387 24.1564C50.0372 24.1166 50.098 24.1145 50.098 24.1508ZM49.7913 24.8097C49.8366 24.9127 49.9121 25.0001 50.0282 25.084C50.1219 25.1517 50.1986 25.212 50.1986 25.218C50.1986 25.224 50.2078 25.253 50.219 25.2823C50.2357 25.3261 50.2122 25.3357 50.0874 25.3357C49.906 25.3357 49.7653 25.2332 49.6533 25.0195C49.5623 24.8459 49.5471 24.4062 49.6285 24.3071C49.6747 24.2509 49.6807 24.2628 49.7018 24.4522C49.7144 24.5656 49.7547 24.7265 49.7913 24.8097ZM50.4154 24.5754C50.4457 24.9011 50.4231 24.9774 50.3045 24.9494C50.022 24.8829 49.9694 24.4451 50.2322 24.3479C50.3744 24.2953 50.3912 24.3162 50.4154 24.5754ZM59.021 24.4226L59.1191 24.5211V24.9767C59.1191 25.3913 59.1123 25.4428 59.0436 25.5511C58.9634 25.6776 58.8508 25.714 58.8508 25.6134C58.8508 25.5807 58.798 25.4751 58.7334 25.3787C58.61 25.1944 58.5825 25.0347 58.6626 24.9678C58.6882 24.9465 58.7445 24.7929 58.7876 24.6265C58.8308 24.4601 58.8789 24.324 58.8946 24.324C58.9102 24.324 58.9671 24.3683 59.021 24.4226ZM59.6584 24.5601C59.7063 24.5601 59.6945 24.7496 59.644 24.7919C59.5733 24.8508 59.4738 24.7224 59.5021 24.6089C59.5176 24.5471 59.5399 24.5262 59.5759 24.5401C59.6043 24.5511 59.6414 24.5601 59.6584 24.5601ZM47.1469 24.813C47.1469 24.9097 47.1641 24.9358 47.2559 24.9783C47.3158 25.0061 47.4841 25.0449 47.6297 25.0645C47.8009 25.0877 47.9886 25.143 48.1604 25.221C48.4373 25.3467 48.5088 25.3504 48.4037 25.2336C48.2787 25.0947 47.9352 24.9433 47.2894 24.7425L47.1469 24.6982V24.813ZM52.3449 25.0263C52.3449 25.0911 52.4583 25.2112 52.5501 25.2436C52.6397 25.2752 52.8144 25.1469 52.8144 25.0495C52.8144 24.967 52.808 24.9647 52.5796 24.9647C52.3747 24.9647 52.3449 24.9725 52.3449 25.0263ZM59.762 25.2724C59.9313 25.3935 60.0245 25.6307 60.0245 25.9399C60.0245 26.4225 59.916 26.7183 59.7389 26.7183C59.6161 26.7183 59.536 26.5681 59.423 26.1256C59.4037 26.05 59.3341 25.9188 59.2684 25.8339L59.1488 25.6795L59.1998 25.4823C59.2647 25.2312 59.352 25.1528 59.5339 25.182C59.6062 25.1936 59.7088 25.2343 59.762 25.2724ZM52.3784 25.5003C52.3784 25.5353 52.4077 25.5716 52.4435 25.581C52.5213 25.6014 52.5461 25.5816 52.5461 25.4987C52.5461 25.4552 52.5212 25.4368 52.4623 25.4368C52.4025 25.4368 52.3784 25.4551 52.3784 25.5003ZM58.572 25.5026C58.7201 25.5934 58.7618 25.6871 58.7393 25.8779C58.7288 25.967 58.7376 26.0841 58.759 26.1412C58.7932 26.2322 58.7885 26.2536 58.7177 26.3293C58.6738 26.3763 58.6216 26.4146 58.6018 26.4143C58.5546 26.4136 58.3804 25.8461 58.3568 25.6161C58.3404 25.4563 58.3452 25.4368 58.4017 25.437C58.4366 25.437 58.5132 25.4666 58.572 25.5026ZM58.3394 26.0094C58.4192 26.1856 58.4469 26.5932 58.3817 26.6337C58.3351 26.6627 58.0471 26.4865 58.0618 26.438C58.0685 26.4159 58.0999 26.2841 58.1316 26.145C58.2165 25.7723 58.2284 25.7646 58.3394 26.0094ZM59.1727 25.9685C59.2686 26.0328 59.3262 26.2851 59.2552 26.3292C59.2379 26.34 59.1625 26.3389 59.0876 26.3269C58.9379 26.3028 58.9286 26.2792 58.9867 26.0691C59.021 25.9449 59.0856 25.91 59.1727 25.9685ZM48.0922 26.035C48.1006 26.0787 48.1625 26.1045 48.3352 26.136C48.4628 26.1592 48.574 26.1712 48.5825 26.1626C48.591 26.1541 48.573 26.1087 48.5424 26.0617C48.493 25.986 48.464 25.9764 48.2839 25.9764C48.1092 25.9764 48.0825 25.9846 48.0922 26.035ZM59.164 26.5777C59.204 26.6468 59.2354 26.7798 59.2456 26.9234C59.2643 27.1861 59.2499 27.1985 59.033 27.1073C58.9466 27.0711 58.8923 27.0669 58.8273 27.0918C58.7282 27.1297 58.6845 27.0914 58.6836 26.966C58.6832 26.9099 58.6677 26.8973 58.616 26.9108C58.5619 26.9251 58.549 26.9119 58.549 26.8423C58.549 26.7421 58.6053 26.694 58.6592 26.7482C58.7177 26.8071 58.7444 26.7938 58.8037 26.6761C58.9333 26.4187 59.0529 26.386 59.164 26.5777ZM45.9396 27.417C45.9396 27.5809 46.0278 27.705 46.2111 27.799C46.3247 27.8573 46.342 27.8814 46.342 27.9814C46.342 28.1267 46.3948 28.268 46.4784 28.3462C46.5834 28.4447 46.5554 28.5184 46.3351 28.7231C46.1586 28.8871 46.1354 28.9214 46.1829 28.9481C46.2711 28.9977 46.4428 28.9069 46.828 28.607C47.2907 28.2467 47.3899 28.2038 47.7619 28.2028L48.0583 28.2021L47.9701 28.0967C47.8697 27.9766 47.8743 27.9513 47.989 27.9939C48.1776 28.0639 48.2536 28.0701 48.2536 28.0157C48.2536 27.9183 48.096 27.8033 47.8641 27.7312C47.5875 27.6454 47.4896 27.5851 47.448 27.4753C47.4175 27.3944 47.4091 27.3927 47.0371 27.3927C46.8115 27.3927 46.6427 27.3781 46.6213 27.3566C46.6015 27.3367 46.4401 27.3117 46.2625 27.3011L45.9396 27.2817V27.417ZM58.012 27.6224C58.0112 28.0265 57.6435 28.4616 57.2495 28.525C57.0788 28.5525 57.0728 28.5297 57.1861 28.2864C57.3471 27.9404 57.8781 27.3807 57.9834 27.4461C57.9993 27.456 58.0122 27.5354 58.012 27.6224ZM51.146 27.5177C51.0487 27.5366 51.0365 27.6962 51.1324 27.6962C51.1997 27.6962 51.3053 27.5968 51.3053 27.5334C51.3053 27.4935 51.2826 27.4912 51.146 27.5177ZM47.3292 27.6771C47.4845 27.7241 47.6164 27.8127 47.6164 27.8701C47.6164 27.9189 47.141 27.9034 47.0825 27.8527C47.0533 27.8274 46.9239 27.7795 46.7948 27.7462C46.6657 27.7128 46.5457 27.6728 46.5282 27.6572C46.4735 27.6084 47.1586 27.6254 47.3292 27.6771ZM55.5781 27.9349C55.758 28.1499 55.6236 28.2017 55.2994 28.0423C55.1961 27.9915 55.1074 27.9482 55.1024 27.946C55.0973 27.9438 55.1027 27.917 55.1143 27.8865C55.1303 27.8448 55.1793 27.8311 55.3134 27.8311C55.4708 27.8311 55.5012 27.843 55.5781 27.9349ZM59.4758 27.983C59.4865 28.0108 59.4855 28.0725 59.4736 28.12C59.4573 28.1852 59.4338 28.2038 59.3778 28.1958C59.3019 28.185 59.2629 28.0772 59.2998 27.9804C59.3241 27.9168 59.4513 27.9186 59.4758 27.983ZM53.5128 28.1223C53.5356 28.2083 53.5501 28.2824 53.5449 28.2871C53.5397 28.2918 53.4411 28.3065 53.3258 28.3196L53.1162 28.3436V28.22C53.1162 28.0227 53.1636 27.966 53.3284 27.966C53.4699 27.966 53.4715 27.9674 53.5128 28.1223ZM47.1491 28.0346C47.2397 28.0834 47.2299 28.1639 47.1286 28.2027C46.9166 28.2837 46.886 28.2807 46.8307 28.1731C46.8017 28.1167 46.778 28.0546 46.778 28.0352C46.778 27.9894 47.0643 27.9891 47.1491 28.0346ZM60.7404 28.1865C60.7295 28.215 60.7451 28.326 60.775 28.4332C60.8049 28.5404 60.8291 28.6726 60.8287 28.727C60.828 28.8238 60.6797 29.3755 60.645 29.4104C60.6354 29.4201 60.584 29.3862 60.5309 29.335C60.4753 29.2815 60.4254 29.2564 60.4134 29.2759C60.4 29.2978 60.3124 29.2869 60.1683 29.2454C59.9095 29.171 59.9194 29.1639 59.8412 29.4769C59.791 29.678 59.7911 29.7 59.8432 29.7825C60.0116 30.0493 60.1124 30.0795 60.3096 29.9219C60.4581 29.8033 60.494 29.7966 60.494 29.8878C60.494 30.014 60.295 30.5797 60.1946 30.7389C60.087 30.9096 59.992 30.9557 59.8198 30.9211C59.7289 30.9028 59.7193 30.9086 59.7288 30.9761C59.7369 31.0339 59.7651 31.0541 59.8485 31.0622C59.9097 31.0681 59.9574 31.0571 59.9574 31.0369C59.9574 31.0172 60.0167 31.001 60.0892 31.001C60.2517 31.001 60.3046 30.9502 60.3782 30.7233C60.4098 30.6257 60.4998 30.4472 60.5781 30.3266C60.7174 30.1121 60.8294 29.91 60.8294 29.873C60.8294 29.8628 60.7911 29.8545 60.7444 29.8545C60.6707 29.8545 60.664 29.8457 60.694 29.7893C60.8358 29.5228 60.9567 28.3951 60.8623 28.2179C60.8116 28.1226 60.769 28.1116 60.7404 28.1865ZM60.2721 28.4923C60.2388 28.626 60.3881 28.6764 60.4684 28.5586C60.5272 28.4722 60.4946 28.4044 60.394 28.4044C60.3143 28.4044 60.2896 28.4222 60.2721 28.4923ZM57.7693 30.2909C57.8975 30.5257 57.8981 30.5289 57.8112 30.5289C57.7523 30.5289 57.7441 30.5514 57.7441 30.7114C57.7441 30.9054 57.6726 31.3275 57.6137 31.4813C57.5791 31.5716 57.5936 31.6755 57.6408 31.6755C57.6538 31.6755 57.6995 31.5389 57.7423 31.372C57.785 31.2051 57.8338 31.0685 57.8506 31.0685C57.8674 31.0685 57.9499 31.2186 58.034 31.4021L58.1869 31.7357L58.4434 31.7596C58.7625 31.7895 58.9743 31.8585 59.0939 31.9718C59.1722 32.0459 59.1861 32.0863 59.1861 32.2396C59.1861 32.3535 59.1614 32.4688 59.1191 32.5523C59.0822 32.625 59.052 32.7111 59.052 32.7436C59.052 32.7984 59.0561 32.7987 59.1067 32.7477C59.1369 32.7174 59.2086 32.5971 59.266 32.4803C59.3235 32.3635 59.3878 32.2629 59.4088 32.2568C59.4298 32.2506 59.4882 32.2813 59.5386 32.3249C59.6261 32.4005 59.6291 32.4134 59.6061 32.6131C59.5928 32.728 59.5695 32.8221 59.5542 32.8221C59.5389 32.8221 59.4795 32.9046 59.4221 33.0054C59.3422 33.1458 59.2964 33.1916 59.2268 33.2008L59.1358 33.2128L59.228 33.2589C59.3362 33.3129 59.3601 33.4628 59.2607 33.4628C59.1554 33.4628 59.0503 33.3598 58.9603 33.1688C58.8289 32.8897 58.7387 32.8452 58.3645 32.8748C58.0752 32.8976 57.9707 32.8992 57.6492 32.8855C57.5117 32.8796 57.4943 32.8667 57.3171 32.6399C57.0257 32.2669 56.9574 32.2295 56.7582 32.3339C56.7047 32.3619 56.6569 32.3808 56.6519 32.3758C56.647 32.3708 56.7134 32.2074 56.7995 32.0127L56.956 31.6586V31.1626C56.956 30.7494 56.9651 30.6573 57.0106 30.6115C57.0876 30.5338 57.6232 30.0951 57.6435 30.093C57.6527 30.0921 57.7093 30.1812 57.7693 30.2909ZM59.0842 30.3756C59.1079 30.4043 59.1673 30.4278 59.2163 30.4278C59.3513 30.4278 59.4544 30.5163 59.4544 30.632C59.4544 30.6866 59.4412 30.7313 59.4251 30.7313C59.3569 30.7313 59.1006 30.6238 59.0409 30.5702C58.987 30.5217 58.8508 30.2591 58.8508 30.2035C58.8508 30.1796 59.0338 30.3145 59.0842 30.3756ZM55.4637 30.3804C55.5467 30.4467 55.6411 30.5429 55.6735 30.5943C55.7318 30.6868 55.7312 30.6893 55.6066 30.8796C55.4838 31.0671 55.4779 31.0712 55.3569 31.0506C55.2338 31.0297 55.2327 31.0306 55.1947 31.1755C55.1343 31.4062 54.9371 31.7949 54.8139 31.9263C54.7171 32.0296 54.6799 32.0464 54.5497 32.0464C54.3335 32.0464 54.2899 31.9681 54.2899 31.5797C54.2899 31.1637 54.3075 31.1043 54.4873 30.9106L54.6453 30.7406L54.7946 30.8015C54.9572 30.8678 55.0948 30.8837 55.0948 30.836C55.0948 30.8195 55.0716 30.797 55.0433 30.7861C54.9975 30.7684 54.998 30.7568 55.0472 30.6813C55.0839 30.6249 55.0892 30.5964 55.0629 30.5964C54.9772 30.5964 55.0445 30.4131 55.1584 30.3361C55.2211 30.2938 55.2815 30.2593 55.2926 30.2595C55.3037 30.2597 55.3807 30.3141 55.4637 30.3804ZM61.6666 30.3918C61.75 30.5485 61.6756 30.7742 61.4989 30.9007C61.4424 30.9412 61.3689 30.9671 61.3355 30.9584C61.3021 30.9496 61.2526 30.955 61.2254 30.9703C61.1578 31.0083 60.9823 31.2672 61.0071 31.2921C61.0181 31.3032 61.0787 31.2802 61.1417 31.241C61.2898 31.1489 61.313 31.1504 61.6121 31.2708C61.7503 31.3265 61.9061 31.3711 61.9584 31.37C62.0373 31.3683 62.0123 31.3471 61.8103 31.2446C61.6631 31.1699 61.5671 31.1002 61.5671 31.068C61.5671 31.0388 61.6348 30.9017 61.7175 30.7634C61.8002 30.6252 61.8681 30.4703 61.8684 30.4193C61.8689 30.3355 61.8575 30.3266 61.7504 30.3266C61.6436 30.3266 61.6353 30.333 61.6666 30.3918ZM58.5773 30.9307C58.7792 31.0346 59.0072 31.2736 59.1041 31.4828C59.1837 31.6548 59.2141 31.8778 59.1579 31.8778C59.1423 31.8778 59.0404 31.8466 58.9315 31.8085C58.8225 31.7703 58.6307 31.7301 58.5052 31.7191C58.2785 31.6993 58.2764 31.6982 58.2062 31.5608C58.1084 31.3698 58.0784 30.9075 58.1599 30.8476C58.2284 30.7973 58.3746 30.8263 58.5773 30.9307ZM56.4781 30.9016C56.5472 30.921 56.6453 30.9727 56.696 31.0166C56.781 31.0901 56.7891 31.1186 56.7984 31.3775C56.8095 31.6907 56.8209 31.6647 56.4111 32.2659C56.3142 32.408 56.235 32.5384 56.235 32.5557C56.235 32.573 56.31 32.5489 56.4016 32.5023C56.5756 32.4136 56.6554 32.3946 56.6213 32.4501C56.6102 32.4681 56.5871 32.6072 56.5699 32.7592C56.5481 32.9513 56.5065 33.1023 56.4335 33.2544C56.3731 33.3804 56.3141 33.5746 56.2945 33.7125C56.2757 33.8441 56.2461 33.9669 56.2287 33.9855C56.1712 34.0466 56.0065 33.8142 55.9316 33.5665C55.8926 33.4372 55.7993 33.2292 55.7244 33.1043C55.5375 32.7927 55.524 32.6449 55.6661 32.468C55.7783 32.3283 55.9172 32.0528 55.8894 32.0249C55.8807 32.0162 55.8164 32.082 55.7466 32.1711C55.5868 32.3749 55.5034 32.4511 55.44 32.4511C55.3978 32.4511 55.3921 32.3806 55.4026 31.9874C55.4163 31.4706 55.4243 31.4458 55.6948 31.0769L55.8493 30.8662L56.1009 30.8664C56.2392 30.8665 56.409 30.8823 56.4781 30.9016ZM50.7489 31.5694C50.7748 31.6115 50.6964 31.699 50.6094 31.7249C50.526 31.7499 50.5127 31.711 50.5687 31.6058C50.6039 31.5396 50.7166 31.5168 50.7489 31.5694ZM59.5417 31.7266C59.6476 31.8892 59.6783 32.2151 59.5876 32.2151C59.487 32.2151 59.3538 31.8718 59.3538 31.6125C59.3538 31.5517 59.4761 31.626 59.5417 31.7266ZM60.3003 31.7518C60.1921 31.8676 60.1251 32.1834 60.1251 32.5779C60.1251 32.9447 60.1624 33.0771 60.2911 33.1678C60.3452 33.2059 60.3586 33.2612 60.3669 33.4817C60.3737 33.661 60.386 33.7271 60.4044 33.682C60.4585 33.5488 60.4853 33.5132 60.5395 33.5025C60.5797 33.4945 60.5946 33.5162 60.5946 33.5828C60.5946 33.633 60.6272 33.727 60.667 33.7919C60.72 33.878 60.745 33.9877 60.7599 34.2005C60.7793 34.477 60.7822 34.4855 60.8186 34.3733C60.8397 34.3084 60.866 34.1214 60.8771 33.9578C60.8963 33.6729 60.9619 33.4628 61.0315 33.4628C61.0494 33.4628 61.0641 33.3983 61.0641 33.3195C61.0641 33.2407 61.0943 33.0963 61.1312 32.9987C61.1681 32.9012 61.1983 32.7899 61.1983 32.7514C61.1983 32.6122 61.1205 32.7127 61.0251 32.9753C60.9715 33.1228 60.9062 33.2721 60.88 33.3069C60.8336 33.3687 60.8293 33.3686 60.6977 33.3032C60.6236 33.2663 60.5679 33.2302 60.5741 33.223C60.5802 33.2158 60.5955 33.1668 60.608 33.1143C60.6304 33.0206 60.6293 33.0197 60.555 33.0721C60.3526 33.2147 60.2593 33.0519 60.2593 32.5566C60.2593 32.2743 60.2724 32.187 60.3374 32.039C60.4481 31.7871 60.4724 31.6755 60.4166 31.6755C60.3919 31.6755 60.3395 31.7098 60.3003 31.7518ZM55.1743 31.92C55.2048 32.0343 55.1994 32.2488 55.1661 32.2488C55.1499 32.2488 55.0896 32.2393 55.0319 32.2277C54.912 32.2036 54.8995 32.1444 54.9757 31.9611C55.0327 31.8238 55.1426 31.8011 55.1743 31.92ZM57.2261 32.7262C57.6221 33.1406 57.6485 33.1862 57.6368 33.4345L57.6267 33.6483L57.4699 33.7333C57.3836 33.7801 57.2821 33.8579 57.2444 33.9062C57.2065 33.9545 57.1449 34.0021 57.1073 34.012C56.9897 34.043 56.9683 33.9391 56.9936 33.458L57.0168 33.0149L56.8983 33.0373C56.7942 33.0569 56.7773 33.0503 56.7594 32.983C56.7066 32.7849 56.7513 32.461 56.8341 32.4419C56.9194 32.4221 56.9722 32.4604 57.2261 32.7262ZM54.855 32.5147C54.8929 32.5389 54.8928 32.5579 54.8541 32.6322C54.8114 32.7141 54.8025 32.7171 54.7375 32.6713C54.6988 32.6441 54.6592 32.591 54.6494 32.5533C54.6348 32.4971 54.6475 32.4849 54.7207 32.4853C54.7697 32.4856 54.8301 32.4989 54.855 32.5147ZM54.5739 32.8474C54.5904 32.9034 54.5825 32.9232 54.5437 32.9232C54.4545 32.9232 54.357 32.7959 54.357 32.6794V32.5704L54.4542 32.671C54.5077 32.7263 54.5615 32.8056 54.5739 32.8474ZM55.124 32.6392C55.1569 32.6687 55.0859 32.8245 55.0245 32.8575C54.9314 32.9076 54.9209 32.8896 54.9472 32.7245C54.9668 32.6012 54.9781 32.5869 55.0405 32.6062C55.0796 32.6182 55.1172 32.6331 55.124 32.6392ZM59.8164 32.9111C59.8219 32.9479 59.7758 33.1212 59.7141 33.2963C59.6195 33.5643 59.5894 33.6163 59.5232 33.626C59.4465 33.6371 59.445 33.6323 59.4628 33.4356C59.4791 33.2543 59.5703 33.0342 59.7 32.8631C59.7444 32.8045 59.8043 32.8293 59.8164 32.9111ZM49.6203 32.9317C49.5853 33.0388 49.159 33.1917 49.159 33.0971C49.159 33.0551 49.2657 32.9654 49.3609 32.9271C49.4832 32.8781 49.637 32.8808 49.6203 32.9317ZM52.6904 33.1751C52.5577 33.2422 52.4085 33.3456 52.3588 33.4049C52.2695 33.5116 52.2689 33.5163 52.2895 33.884C52.301 34.0882 52.3403 34.3767 52.3768 34.525C52.4686 34.8982 52.4649 35.0497 52.3599 35.2053C52.2889 35.3105 52.2782 35.3552 52.2969 35.4681C52.3353 35.7003 52.4321 35.8406 52.8099 36.2113C53.0107 36.4083 53.2139 36.6415 53.2614 36.7294C53.3622 36.9156 53.597 37.8049 53.6702 38.278C53.7568 38.8374 53.8446 38.9892 54.0544 38.9429C54.126 38.927 54.1586 38.9368 54.1834 38.9814C54.2302 39.0654 54.2499 38.8772 54.2705 38.1502C54.2866 37.5827 54.3234 37.3043 54.3935 37.2193C54.4188 37.1886 54.4712 37.1911 54.6181 37.2297C55.0092 37.3326 55.3519 37.2191 55.5874 36.9088C55.69 36.7735 55.7901 36.5113 55.7533 36.4743C55.7441 36.4651 55.7059 36.5182 55.6684 36.5922C55.5779 36.7704 55.5096 36.835 55.4114 36.835C55.3507 36.835 55.3183 36.8643 55.2819 36.9519C55.2227 37.0945 55.1377 37.121 54.8254 37.0947C54.5238 37.0693 54.3829 36.9973 54.3969 36.8759C54.406 36.7966 54.4292 36.7808 54.5874 36.7456C54.8415 36.6892 54.8648 36.6531 54.7244 36.5339C54.6243 36.4488 54.5892 36.438 54.4669 36.4542C54.2103 36.4883 54.0552 36.2964 54.0552 35.9447V35.7559H53.9419C53.8476 35.7559 53.8216 35.7729 53.7869 35.8571C53.764 35.9127 53.7316 35.9583 53.715 35.9583C53.6425 35.9583 53.3834 35.673 53.3517 35.5582C53.3042 35.3864 53.3011 35.3916 53.47 35.3661C53.7776 35.3197 53.7943 35.143 53.5179 34.8615C53.3474 34.6879 53.2831 34.5325 53.4165 34.6162C53.4905 34.6627 53.5009 34.6568 53.5335 34.5503C53.5493 34.4984 53.5427 34.4742 53.5125 34.4735C53.4438 34.4719 53.2503 34.28 53.2505 34.2136C53.251 34.0714 53.328 33.8986 53.4561 33.7523C53.5319 33.6656 53.5849 33.5856 53.5738 33.5744C53.5626 33.5632 53.4929 33.5945 53.4187 33.6438C53.3445 33.6931 53.2839 33.7254 53.2839 33.7154C53.2839 33.7054 53.3456 33.5989 53.421 33.4788C53.5332 33.3002 53.5743 33.2605 53.6466 33.2605H53.7351L53.6429 33.1677C53.5578 33.0821 53.5271 33.0741 53.2413 33.064C52.9425 33.0535 52.9234 33.0573 52.6904 33.1751ZM53.3988 33.1946C53.4536 33.2485 53.3187 33.3553 53.0795 33.4471C52.8026 33.5535 52.6991 33.6653 52.6232 33.9399C52.5827 34.0865 52.5538 34.1372 52.5151 34.1298C52.4761 34.1224 52.4598 34.0712 52.4528 33.9346C52.4356 33.5982 52.6477 33.3204 53.0225 33.1887C53.1937 33.1285 53.3338 33.1307 53.3988 33.1946ZM58.0711 33.1468C58.1835 33.1771 58.165 33.2892 58.0236 33.4348C57.9111 33.5507 57.8969 33.5565 57.8569 33.5037C57.792 33.4178 57.8022 33.2695 57.8782 33.193C57.9517 33.1192 57.9606 33.117 58.0711 33.1468ZM58.6263 33.2533C58.7051 33.3408 58.7837 33.546 58.7837 33.664C58.7837 33.7203 58.7781 33.7663 58.7712 33.7663C58.7642 33.7663 58.694 33.7434 58.615 33.7153C58.536 33.6873 58.4653 33.6706 58.4578 33.6781C58.4503 33.6856 58.4904 33.7447 58.5469 33.8094C58.6656 33.9453 58.6663 33.9509 58.5984 34.1859L58.5472 34.3629L58.372 34.3355C58.1401 34.2992 58.063 34.2097 58.0355 33.9449C58.0048 33.6494 58.0507 33.5198 58.212 33.4466C58.2996 33.4069 58.3555 33.3541 58.3778 33.2899C58.4173 33.1758 58.5403 33.1577 58.6263 33.2533ZM56.7031 33.6438L56.7806 33.8922L56.6883 34.0627C56.5973 34.2309 56.5312 34.2583 56.4619 34.1566C56.3857 34.0447 56.4928 33.3953 56.5874 33.3953C56.6084 33.3953 56.6605 33.5071 56.7031 33.6438ZM53.116 33.7579C53.1156 33.8771 53.0439 34.0722 52.9676 34.1614C52.9001 34.2403 52.8816 34.2468 52.835 34.2079C52.6923 34.0888 52.8616 33.7021 53.0575 33.6996C53.0914 33.6992 53.1161 33.7238 53.116 33.7579ZM57.6368 33.9793C57.627 34.1122 57.6219 34.1175 57.4674 34.157L57.3081 34.1977L57.3089 34.1084C57.3097 34.0112 57.388 33.8962 57.4906 33.8416C57.6003 33.7833 57.648 33.8281 57.6368 33.9793ZM56.9381 34.135C56.9942 34.2405 56.979 34.2721 56.8722 34.2721C56.7891 34.2721 56.7716 34.2584 56.7716 34.1935C56.7716 34.0569 56.8768 34.02 56.9381 34.135ZM55.6102 34.1794C55.648 34.3209 55.6335 34.8972 55.5911 34.9398C55.5208 35.0106 55.4701 34.984 55.4274 34.8539C55.4046 34.7844 55.3416 34.6858 55.2873 34.6349L55.1886 34.5422L55.2591 34.4221C55.3515 34.2645 55.3482 34.2324 55.2419 34.2592L55.1543 34.2813L55.2122 34.1924C55.2614 34.1169 55.2943 34.1035 55.4301 34.1035C55.5676 34.1035 55.5928 34.1142 55.6102 34.1794ZM56.2312 34.2934C56.3015 34.343 56.308 34.3691 56.2961 34.5548C56.2849 34.7312 56.2605 34.796 56.1281 35.0016C55.9567 35.2678 55.8872 35.3356 55.9137 35.2108C55.9229 35.1675 55.9556 34.931 55.9864 34.6852C56.047 34.2025 56.0638 34.1756 56.2312 34.2934ZM57.7593 34.3936C57.7718 34.4604 57.7768 34.5203 57.7705 34.5266C57.745 34.5523 57.4976 34.4763 57.4714 34.4347C57.4048 34.3291 57.4522 34.2903 57.6649 34.2767C57.722 34.2731 57.7413 34.2969 57.7593 34.3936ZM57.0434 34.5672C57.0811 34.6658 57.0435 34.7685 56.9044 34.9466L56.8385 35.0309L56.7044 34.8889C56.5691 34.7455 56.5298 34.6048 56.6111 34.5543C56.6533 34.5281 56.844 34.4852 56.9485 34.4783C56.9845 34.476 57.022 34.5111 57.0434 34.5672ZM57.7128 34.7309C57.813 34.7606 57.9 34.7897 57.9062 34.7955C57.9123 34.8013 57.8878 34.8732 57.8517 34.9553C57.7826 35.1125 57.6498 35.2303 57.4988 35.2684C57.4177 35.2889 57.4029 35.278 57.3551 35.1628L57.3017 35.0344L57.4058 34.9484C57.5378 34.8393 57.5388 34.778 57.4087 34.778C57.3074 34.778 57.2723 34.7307 57.3501 34.6991C57.4278 34.6676 57.5298 34.6765 57.7128 34.7309ZM56.8517 35.5126C56.8782 35.5642 56.9105 35.6629 56.9234 35.7318C56.9435 35.84 56.9382 35.857 56.8843 35.8565C56.85 35.8562 56.7615 35.8217 56.6877 35.7798C56.4748 35.6589 56.4881 35.4187 56.7078 35.4187C56.7784 35.4187 56.816 35.4432 56.8517 35.5126Z" fill="#9A031E"/>
</g>
</svg>
