<svg width="208" height="22" viewBox="0 0 208 22" fill="none" xmlns="http://www.w3.org/2000/svg">
<path d="M9.20703 18.12C8.00703 18.12 6.91903 17.88 5.94303 17.4C4.96703 16.92 4.12703 16.272 3.42303 15.456C2.71903 14.624 2.17503 13.696 1.79103 12.672C1.40703 11.632 1.21503 10.568 1.21503 9.48C1.21503 8.344 1.41503 7.264 1.81503 6.24C2.21503 5.2 2.77503 4.28 3.49503 3.48C4.23103 2.664 5.08703 2.024 6.06303 1.56C7.03903 1.08 8.09503 0.839999 9.23103 0.839999C10.431 0.839999 11.519 1.088 12.495 1.584C13.471 2.08 14.303 2.744 14.991 3.576C15.695 4.408 16.239 5.336 16.623 6.36C17.007 7.384 17.199 8.432 17.199 9.504C17.199 10.64 16.999 11.728 16.599 12.768C16.199 13.792 15.639 14.712 14.919 15.528C14.199 16.328 13.351 16.96 12.375 17.424C11.399 17.888 10.343 18.12 9.20703 18.12ZM2.89503 9.48C2.89503 10.408 3.04703 11.304 3.35103 12.168C3.65503 13.016 4.08703 13.776 4.64703 14.448C5.20703 15.104 5.87103 15.632 6.63903 16.032C7.42303 16.416 8.27903 16.608 9.20703 16.608C10.183 16.608 11.055 16.408 11.823 16.008C12.607 15.592 13.271 15.048 13.815 14.376C14.375 13.688 14.799 12.92 15.087 12.072C15.375 11.224 15.519 10.36 15.519 9.48C15.519 8.552 15.367 7.664 15.063 6.816C14.759 5.968 14.319 5.208 13.743 4.536C13.183 3.864 12.519 3.336 11.751 2.952C10.983 2.568 10.135 2.376 9.20703 2.376C8.24703 2.376 7.37503 2.576 6.59103 2.976C5.82303 3.376 5.15903 3.92 4.59903 4.608C4.05503 5.28 3.63103 6.04 3.32703 6.888C3.03903 7.736 2.89503 8.6 2.89503 9.48ZM26.4837 18V0.959999H28.1637V8.544H30.7317L36.5877 0.959999H38.5317L32.1237 9.216L38.9397 18H36.8757L30.7797 10.08H28.1637V18H26.4837ZM47.6211 18.12C46.4211 18.12 45.3331 17.88 44.3571 17.4C43.3811 16.92 42.5411 16.272 41.8371 15.456C41.1331 14.624 40.5891 13.696 40.2051 12.672C39.8211 11.632 39.6291 10.568 39.6291 9.48C39.6291 8.344 39.8291 7.264 40.2291 6.24C40.6291 5.2 41.1891 4.28 41.9091 3.48C42.6451 2.664 43.5011 2.024 44.4771 1.56C45.4531 1.08 46.5091 0.839999 47.6451 0.839999C48.8451 0.839999 49.9331 1.088 50.9091 1.584C51.8851 2.08 52.7171 2.744 53.4051 3.576C54.1091 4.408 54.6531 5.336 55.0371 6.36C55.4211 7.384 55.6131 8.432 55.6131 9.504C55.6131 10.64 55.4131 11.728 55.0131 12.768C54.6131 13.792 54.0531 14.712 53.3331 15.528C52.6131 16.328 51.7651 16.96 50.7891 17.424C49.8131 17.888 48.7571 18.12 47.6211 18.12ZM41.3091 9.48C41.3091 10.408 41.4611 11.304 41.7651 12.168C42.0691 13.016 42.5011 13.776 43.0611 14.448C43.6211 15.104 44.2851 15.632 45.0531 16.032C45.8371 16.416 46.6931 16.608 47.6211 16.608C48.5971 16.608 49.4691 16.408 50.2371 16.008C51.0211 15.592 51.6851 15.048 52.2291 14.376C52.7891 13.688 53.2131 12.92 53.5011 12.072C53.7891 11.224 53.9331 10.36 53.9331 9.48C53.9331 8.552 53.7811 7.664 53.4771 6.816C53.1731 5.968 52.7331 5.208 52.1571 4.536C51.5971 3.864 50.9331 3.336 50.1651 2.952C49.3971 2.568 48.5491 2.376 47.6211 2.376C46.6611 2.376 45.7891 2.576 45.0051 2.976C44.2371 3.376 43.5731 3.92 43.0131 4.608C42.4691 5.28 42.0451 6.04 41.7411 6.888C41.4531 7.736 41.3091 8.6 41.3091 9.48ZM72.2205 0.959999V18H70.5645V10.032H60.4605V18H58.7805V0.959999H60.4605V8.544H70.5645V0.959999H72.2205ZM89.4833 21.24V18H76.4993V0.959999H78.1793V16.512H87.2513V0.959999H88.9073V16.512H90.9713V21.24H89.4833ZM105.549 16.512V18H94.1008V0.959999H105.333V2.448H95.7808V8.592H104.109V10.008H95.7808V16.512H105.549ZM108.726 18V0.959999H115.782C116.518 0.959999 117.19 1.112 117.798 1.416C118.422 1.72 118.958 2.136 119.406 2.664C119.854 3.176 120.206 3.752 120.462 4.392C120.718 5.016 120.846 5.656 120.846 6.312C120.846 7.24 120.638 8.12 120.222 8.952C119.822 9.768 119.254 10.432 118.518 10.944C117.782 11.456 116.918 11.712 115.926 11.712H110.406V18H108.726ZM110.406 10.224H115.854C116.526 10.224 117.11 10.04 117.606 9.672C118.102 9.304 118.486 8.824 118.758 8.232C119.03 7.64 119.166 7 119.166 6.312C119.166 5.608 119.006 4.96 118.686 4.368C118.366 3.776 117.942 3.312 117.414 2.976C116.902 2.624 116.334 2.448 115.71 2.448H110.406V10.224ZM135.752 2.448H129.68V18H128V2.448H121.928V0.959999H135.752V2.448ZM149.752 16.512V18H138.304V0.959999H149.536V2.448H139.984V8.592H148.312V10.008H139.984V16.512H149.752Z" fill="#9A031E"/>
<path d="M154 10H206M206 10L194.826 5M206 10L194.826 15" stroke="#9A031E" stroke-linecap="round"/>
</svg>
