<svg width="333" height="58" viewBox="0 0 333 58" fill="none" xmlns="http://www.w3.org/2000/svg">
<g opacity="0.5">
<rect x="0.5" y="0.5" width="332" height="57" rx="4.5" fill="white" stroke="#9A031E"/>
<path d="M41.84 29.36C41.84 28.32 42.024 27.304 42.392 26.312C42.76 25.304 43.296 24.392 44 23.576C44.72 22.744 45.592 22.088 46.616 21.608C47.64 21.112 48.8 20.864 50.096 20.864C51.632 20.864 52.96 21.216 54.08 21.92C55.2 22.608 56.032 23.496 56.576 24.584L54.464 26C54.144 25.312 53.736 24.768 53.24 24.368C52.76 23.968 52.232 23.688 51.656 23.528C51.096 23.368 50.544 23.288 50 23.288C49.104 23.288 48.32 23.472 47.648 23.84C46.976 24.192 46.408 24.664 45.944 25.256C45.496 25.848 45.152 26.512 44.912 27.248C44.688 27.984 44.576 28.72 44.576 29.456C44.576 30.272 44.712 31.064 44.984 31.832C45.256 32.584 45.632 33.256 46.112 33.848C46.608 34.424 47.192 34.88 47.864 35.216C48.536 35.552 49.272 35.72 50.072 35.72C50.616 35.72 51.184 35.624 51.776 35.432C52.368 35.24 52.912 34.944 53.408 34.544C53.92 34.128 54.32 33.584 54.608 32.912L56.84 34.184C56.488 35.032 55.936 35.752 55.184 36.344C54.448 36.936 53.616 37.384 52.688 37.688C51.776 37.992 50.872 38.144 49.976 38.144C48.776 38.144 47.68 37.896 46.688 37.4C45.696 36.888 44.84 36.216 44.12 35.384C43.4 34.536 42.84 33.592 42.44 32.552C42.04 31.496 41.84 30.432 41.84 29.36ZM58.9902 38V25.448H61.7263L66.0463 33.2L70.3903 25.448H73.0783V38H70.5583V29.168L66.8623 35.768H65.2063L61.4863 29.168V38H58.9902ZM81.8803 38.24C80.8883 38.24 80.0003 38.072 79.2163 37.736C78.4323 37.384 77.7523 36.904 77.1763 36.296C76.6163 35.688 76.1843 35 75.8803 34.232C75.5763 33.448 75.4243 32.616 75.4243 31.736C75.4243 30.856 75.5763 30.024 75.8803 29.24C76.1843 28.456 76.6163 27.768 77.1763 27.176C77.7523 26.568 78.4323 26.096 79.2163 25.76C80.0163 25.408 80.9043 25.232 81.8803 25.232C82.8563 25.232 83.7363 25.408 84.5203 25.76C85.3203 26.096 86.0003 26.568 86.5603 27.176C87.1363 27.768 87.5763 28.456 87.8802 29.24C88.1843 30.024 88.3363 30.856 88.3363 31.736C88.3363 32.616 88.1843 33.448 87.8802 34.232C87.5763 35 87.1363 35.688 86.5603 36.296C86.0003 36.904 85.3203 37.384 84.5203 37.736C83.7363 38.072 82.8563 38.24 81.8803 38.24ZM78.1363 31.76C78.1363 32.56 78.3043 33.28 78.6403 33.92C78.9763 34.56 79.4243 35.064 79.9843 35.432C80.5443 35.8 81.1763 35.984 81.8803 35.984C82.5683 35.984 83.1923 35.8 83.7523 35.432C84.3283 35.048 84.7843 34.536 85.1203 33.896C85.4563 33.24 85.6243 32.52 85.6243 31.736C85.6243 30.936 85.4563 30.216 85.1203 29.576C84.7843 28.936 84.3283 28.432 83.7523 28.064C83.1923 27.68 82.5683 27.488 81.8803 27.488C81.1763 27.488 80.5443 27.68 79.9843 28.064C79.4243 28.448 78.9763 28.96 78.6403 29.6C78.3043 30.224 78.1363 30.944 78.1363 31.76ZM93.6538 38V27.776H89.5018V25.448H100.47V27.776H96.2938V38H93.6538ZM109.571 38.24C108.563 38.24 107.675 38 106.907 37.52C106.139 37.04 105.531 36.416 105.083 35.648V43.112H102.443V25.448H104.771V27.704C105.251 26.952 105.875 26.352 106.643 25.904C107.411 25.456 108.267 25.232 109.211 25.232C110.075 25.232 110.867 25.408 111.587 25.76C112.307 26.096 112.931 26.568 113.459 27.176C113.987 27.784 114.395 28.48 114.683 29.264C114.987 30.032 115.139 30.848 115.139 31.712C115.139 32.912 114.899 34.008 114.419 35C113.955 35.992 113.299 36.784 112.451 37.376C111.619 37.952 110.659 38.24 109.571 38.24ZM108.707 35.984C109.267 35.984 109.771 35.864 110.219 35.624C110.683 35.384 111.075 35.064 111.395 34.664C111.731 34.264 111.987 33.808 112.163 33.296C112.339 32.784 112.427 32.256 112.427 31.712C112.427 31.136 112.331 30.592 112.139 30.08C111.947 29.568 111.667 29.12 111.299 28.736C110.947 28.352 110.531 28.048 110.051 27.824C109.587 27.6 109.075 27.488 108.515 27.488C108.179 27.488 107.827 27.552 107.459 27.68C107.091 27.808 106.747 27.984 106.427 28.208C106.107 28.432 105.827 28.696 105.587 29C105.347 29.304 105.179 29.624 105.083 29.96V33.248C105.307 33.76 105.603 34.224 105.971 34.64C106.339 35.04 106.763 35.368 107.243 35.624C107.723 35.864 108.211 35.984 108.707 35.984ZM123.202 38.24C122.226 38.24 121.338 38.072 120.538 37.736C119.754 37.384 119.074 36.912 118.498 36.32C117.922 35.712 117.474 35.024 117.154 34.256C116.85 33.472 116.698 32.64 116.698 31.76C116.698 30.576 116.97 29.496 117.514 28.52C118.058 27.528 118.818 26.736 119.794 26.144C120.77 25.536 121.914 25.232 123.226 25.232C124.538 25.232 125.666 25.536 126.61 26.144C127.57 26.736 128.314 27.52 128.842 28.496C129.37 29.472 129.634 30.52 129.634 31.64C129.634 31.832 129.626 32.016 129.61 32.192C129.594 32.352 129.578 32.488 129.562 32.6H119.506C119.554 33.336 119.754 33.984 120.106 34.544C120.474 35.088 120.938 35.52 121.498 35.84C122.058 36.144 122.658 36.296 123.298 36.296C124.002 36.296 124.666 36.12 125.29 35.768C125.93 35.416 126.362 34.952 126.586 34.376L128.842 35.024C128.57 35.632 128.154 36.184 127.594 36.68C127.05 37.16 126.402 37.544 125.65 37.832C124.898 38.104 124.082 38.24 123.202 38.24ZM119.434 30.848H127.018C126.97 30.128 126.762 29.496 126.394 28.952C126.042 28.392 125.586 27.96 125.026 27.656C124.482 27.336 123.874 27.176 123.202 27.176C122.546 27.176 121.938 27.336 121.378 27.656C120.834 27.96 120.386 28.392 120.034 28.952C119.682 29.496 119.482 30.128 119.434 30.848ZM134.763 38V27.776H130.611V25.448H141.579V27.776H137.403V38H134.763ZM143.553 38V25.448H146.193V29.576H149.193C150.681 29.576 151.809 29.952 152.577 30.704C153.361 31.456 153.753 32.448 153.753 33.68C153.753 34.512 153.585 35.256 153.249 35.912C152.913 36.568 152.417 37.08 151.761 37.448C151.121 37.816 150.321 38 149.361 38H143.553ZM146.193 35.96H148.953C149.481 35.96 149.905 35.864 150.225 35.672C150.545 35.464 150.785 35.192 150.945 34.856C151.105 34.504 151.185 34.128 151.185 33.728C151.185 33.328 151.113 32.968 150.969 32.648C150.825 32.312 150.585 32.048 150.249 31.856C149.929 31.648 149.489 31.544 148.929 31.544H146.193V35.96ZM161.834 38V25.448H164.57L168.89 33.2L173.234 25.448H175.922V38H173.402V29.168L169.706 35.768H168.05L164.33 29.168V38H161.834ZM178.172 34.328C178.172 33.528 178.396 32.832 178.844 32.24C179.308 31.632 179.94 31.168 180.74 30.848C181.54 30.512 182.468 30.344 183.524 30.344C184.084 30.344 184.652 30.384 185.228 30.464C185.82 30.544 186.34 30.672 186.788 30.848V30.056C186.788 29.176 186.524 28.488 185.996 27.992C185.468 27.496 184.708 27.248 183.716 27.248C183.012 27.248 182.348 27.376 181.724 27.632C181.1 27.872 180.436 28.216 179.732 28.664L178.844 26.888C179.676 26.328 180.508 25.912 181.34 25.64C182.188 25.368 183.076 25.232 184.004 25.232C185.684 25.232 187.004 25.68 187.964 26.576C188.94 27.456 189.428 28.712 189.428 30.344V35.024C189.428 35.328 189.476 35.544 189.572 35.672C189.684 35.8 189.868 35.872 190.124 35.888V38C189.884 38.048 189.668 38.08 189.476 38.096C189.284 38.112 189.124 38.12 188.996 38.12C188.436 38.12 188.012 37.984 187.724 37.712C187.436 37.44 187.268 37.12 187.22 36.752L187.148 36.032C186.604 36.736 185.908 37.28 185.06 37.664C184.212 38.048 183.356 38.24 182.492 38.24C181.66 38.24 180.916 38.072 180.26 37.736C179.604 37.384 179.092 36.912 178.724 36.32C178.356 35.728 178.172 35.064 178.172 34.328ZM186.164 35.096C186.356 34.888 186.508 34.68 186.62 34.472C186.732 34.264 186.788 34.08 186.788 33.92V32.48C186.34 32.304 185.868 32.176 185.372 32.096C184.876 32 184.388 31.952 183.908 31.952C182.948 31.952 182.164 32.144 181.556 32.528C180.964 32.912 180.668 33.44 180.668 34.112C180.668 34.48 180.764 34.832 180.956 35.168C181.164 35.504 181.452 35.776 181.82 35.984C182.204 36.192 182.676 36.296 183.236 36.296C183.812 36.296 184.364 36.184 184.892 35.96C185.42 35.736 185.844 35.448 186.164 35.096ZM195.466 38V27.776H191.314V25.448H202.282V27.776H198.106V38H195.466ZM209.944 38.24C208.968 38.24 208.08 38.072 207.28 37.736C206.496 37.384 205.816 36.912 205.24 36.32C204.664 35.712 204.216 35.024 203.896 34.256C203.592 33.472 203.44 32.64 203.44 31.76C203.44 30.576 203.712 29.496 204.256 28.52C204.8 27.528 205.56 26.736 206.536 26.144C207.512 25.536 208.656 25.232 209.968 25.232C211.28 25.232 212.408 25.536 213.352 26.144C214.312 26.736 215.056 27.52 215.584 28.496C216.112 29.472 216.376 30.52 216.376 31.64C216.376 31.832 216.368 32.016 216.352 32.192C216.336 32.352 216.32 32.488 216.304 32.6H206.248C206.296 33.336 206.496 33.984 206.848 34.544C207.216 35.088 207.68 35.52 208.24 35.84C208.8 36.144 209.4 36.296 210.04 36.296C210.744 36.296 211.408 36.12 212.032 35.768C212.672 35.416 213.104 34.952 213.328 34.376L215.584 35.024C215.312 35.632 214.896 36.184 214.336 36.68C213.792 37.16 213.144 37.544 212.392 37.832C211.64 38.104 210.824 38.24 209.944 38.24ZM206.176 30.848H213.76C213.712 30.128 213.504 29.496 213.136 28.952C212.784 28.392 212.328 27.96 211.768 27.656C211.224 27.336 210.616 27.176 209.944 27.176C209.288 27.176 208.68 27.336 208.12 27.656C207.576 27.96 207.128 28.392 206.776 28.952C206.424 29.496 206.224 30.128 206.176 30.848ZM225.657 38.24C224.649 38.24 223.761 38 222.993 37.52C222.225 37.04 221.617 36.416 221.169 35.648V43.112H218.529V25.448H220.857V27.704C221.337 26.952 221.961 26.352 222.729 25.904C223.497 25.456 224.353 25.232 225.297 25.232C226.161 25.232 226.953 25.408 227.673 25.76C228.393 26.096 229.017 26.568 229.545 27.176C230.073 27.784 230.481 28.48 230.769 29.264C231.073 30.032 231.225 30.848 231.225 31.712C231.225 32.912 230.985 34.008 230.505 35C230.041 35.992 229.385 36.784 228.537 37.376C227.705 37.952 226.745 38.24 225.657 38.24ZM224.793 35.984C225.353 35.984 225.857 35.864 226.305 35.624C226.769 35.384 227.161 35.064 227.481 34.664C227.817 34.264 228.073 33.808 228.249 33.296C228.425 32.784 228.513 32.256 228.513 31.712C228.513 31.136 228.417 30.592 228.225 30.08C228.033 29.568 227.753 29.12 227.385 28.736C227.033 28.352 226.617 28.048 226.137 27.824C225.673 27.6 225.161 27.488 224.601 27.488C224.265 27.488 223.913 27.552 223.545 27.68C223.177 27.808 222.833 27.984 222.513 28.208C222.193 28.432 221.913 28.696 221.673 29C221.433 29.304 221.265 29.624 221.169 29.96V33.248C221.393 33.76 221.689 34.224 222.057 34.64C222.425 35.04 222.849 35.368 223.329 35.624C223.809 35.864 224.297 35.984 224.793 35.984ZM233.6 38V25.472H236.24V34.472L242.6 25.448H245V38H242.36V29.192L236.072 38H233.6ZM247.242 34.328C247.242 33.528 247.466 32.832 247.914 32.24C248.378 31.632 249.01 31.168 249.81 30.848C250.61 30.512 251.538 30.344 252.594 30.344C253.154 30.344 253.722 30.384 254.298 30.464C254.89 30.544 255.41 30.672 255.858 30.848V30.056C255.858 29.176 255.594 28.488 255.066 27.992C254.538 27.496 253.778 27.248 252.786 27.248C252.082 27.248 251.418 27.376 250.794 27.632C250.17 27.872 249.506 28.216 248.802 28.664L247.914 26.888C248.746 26.328 249.578 25.912 250.41 25.64C251.258 25.368 252.146 25.232 253.074 25.232C254.754 25.232 256.074 25.68 257.034 26.576C258.01 27.456 258.498 28.712 258.498 30.344V35.024C258.498 35.328 258.546 35.544 258.642 35.672C258.754 35.8 258.938 35.872 259.194 35.888V38C258.954 38.048 258.738 38.08 258.546 38.096C258.354 38.112 258.194 38.12 258.066 38.12C257.506 38.12 257.082 37.984 256.794 37.712C256.506 37.44 256.338 37.12 256.29 36.752L256.218 36.032C255.674 36.736 254.978 37.28 254.13 37.664C253.282 38.048 252.426 38.24 251.562 38.24C250.73 38.24 249.986 38.072 249.33 37.736C248.674 37.384 248.162 36.912 247.794 36.32C247.426 35.728 247.242 35.064 247.242 34.328ZM255.234 35.096C255.426 34.888 255.578 34.68 255.69 34.472C255.802 34.264 255.858 34.08 255.858 33.92V32.48C255.41 32.304 254.938 32.176 254.442 32.096C253.946 32 253.458 31.952 252.978 31.952C252.018 31.952 251.234 32.144 250.626 32.528C250.034 32.912 249.738 33.44 249.738 34.112C249.738 34.48 249.834 34.832 250.026 35.168C250.234 35.504 250.522 35.776 250.89 35.984C251.274 36.192 251.746 36.296 252.306 36.296C252.882 36.296 253.434 36.184 253.962 35.96C254.49 35.736 254.914 35.448 255.234 35.096ZM260.693 38.12V35.768C261.093 35.768 261.453 35.672 261.773 35.48C262.093 35.272 262.373 34.936 262.613 34.472C262.853 33.992 263.045 33.328 263.189 32.48C263.333 31.632 263.429 30.552 263.477 29.24L263.645 25.448H272.597V38H269.957V27.776H265.973L265.925 29.48C265.861 31.16 265.709 32.56 265.469 33.68C265.229 34.784 264.893 35.664 264.461 36.32C264.045 36.96 263.517 37.424 262.877 37.712C262.253 37.984 261.525 38.12 260.693 38.12ZM275.764 38V25.448H278.404V29.576H280.78C282.268 29.576 283.404 29.952 284.188 30.704C284.972 31.456 285.364 32.448 285.364 33.68C285.364 34.512 285.196 35.256 284.86 35.912C284.524 36.568 284.028 37.08 283.372 37.448C282.732 37.816 281.932 38 280.972 38H275.764ZM278.404 35.96H280.564C281.092 35.96 281.516 35.864 281.836 35.672C282.156 35.464 282.388 35.192 282.532 34.856C282.692 34.504 282.772 34.128 282.772 33.728C282.772 33.328 282.7 32.968 282.556 32.648C282.412 32.312 282.172 32.048 281.836 31.856C281.516 31.648 281.084 31.544 280.54 31.544H278.404V35.96ZM287.428 38V25.472H290.068V38H287.428Z" fill="#9A031E"/>
</g>
</svg>
