<svg width="342" height="22" viewBox="0 0 342 22" fill="none" xmlns="http://www.w3.org/2000/svg">
<g opacity="0.5">
<path d="M12.414 18V10.656C12.062 10.816 11.654 10.968 11.19 11.112C10.726 11.256 10.222 11.376 9.678 11.472C9.134 11.552 8.55 11.592 7.926 11.592C6.038 11.592 4.646 11.184 3.75 10.368C2.854 9.536 2.406 8.224 2.406 6.432V0.959999H4.038V6.24C4.038 7.568 4.358 8.536 4.998 9.144C5.654 9.752 6.71 10.056 8.166 10.056C8.982 10.056 9.774 9.968 10.542 9.792C11.326 9.616 11.95 9.4 12.414 9.144V0.959999H14.046V18H12.414ZM18.4273 18V0.959999H20.0833V15.696L30.6433 0.959999H32.2033V18H30.5473V3.528L20.1073 18H18.4273ZM48.6617 2.448H42.5897V18H40.9097V2.448H34.8377V0.959999H48.6617V2.448ZM54.8769 0.959999H56.2929L63.3729 18H61.5969L59.3889 12.672H51.7329L49.5489 18H47.7489L54.8769 0.959999ZM59.0049 11.352L55.5729 2.928L52.0929 11.352H59.0049ZM76.2945 2.448H70.2225V18H68.5425V2.448H62.4705V0.959999H76.2945V2.448ZM78.8469 18V0.959999H80.5269V7.584H84.8469C86.0789 7.584 87.1029 7.8 87.9189 8.232C88.7349 8.664 89.3429 9.272 89.7429 10.056C90.1589 10.84 90.3669 11.752 90.3669 12.792C90.3669 13.736 90.1669 14.608 89.7669 15.408C89.3669 16.208 88.7669 16.84 87.9669 17.304C87.1669 17.768 86.1669 18 84.9669 18H78.8469ZM80.5269 16.584H84.7509C85.6949 16.584 86.4549 16.408 87.0309 16.056C87.6069 15.688 88.0229 15.216 88.2789 14.64C88.5509 14.048 88.6869 13.432 88.6869 12.792C88.6869 12.12 88.5669 11.496 88.3269 10.92C88.0869 10.344 87.6789 9.88 87.1029 9.528C86.5269 9.176 85.7349 9 84.7269 9H80.5269V16.584ZM99.6126 18V0.959999H112.477V18H110.797V2.448H101.293V18H99.6126ZM123.609 18.12C122.409 18.12 121.321 17.88 120.345 17.4C119.369 16.92 118.529 16.272 117.825 15.456C117.121 14.624 116.577 13.696 116.193 12.672C115.809 11.632 115.617 10.568 115.617 9.48C115.617 8.344 115.817 7.264 116.217 6.24C116.617 5.2 117.177 4.28 117.897 3.48C118.633 2.664 119.489 2.024 120.465 1.56C121.441 1.08 122.497 0.839999 123.633 0.839999C124.833 0.839999 125.921 1.088 126.897 1.584C127.873 2.08 128.705 2.744 129.393 3.576C130.097 4.408 130.641 5.336 131.025 6.36C131.409 7.384 131.601 8.432 131.601 9.504C131.601 10.64 131.401 11.728 131.001 12.768C130.601 13.792 130.041 14.712 129.321 15.528C128.601 16.328 127.753 16.96 126.777 17.424C125.801 17.888 124.745 18.12 123.609 18.12ZM117.297 9.48C117.297 10.408 117.449 11.304 117.753 12.168C118.057 13.016 118.489 13.776 119.049 14.448C119.609 15.104 120.273 15.632 121.041 16.032C121.825 16.416 122.681 16.608 123.609 16.608C124.585 16.608 125.457 16.408 126.225 16.008C127.009 15.592 127.673 15.048 128.217 14.376C128.777 13.688 129.201 12.92 129.489 12.072C129.777 11.224 129.921 10.36 129.921 9.48C129.921 8.552 129.769 7.664 129.465 6.816C129.161 5.968 128.721 5.208 128.145 4.536C127.585 3.864 126.921 3.336 126.153 2.952C125.385 2.568 124.537 2.376 123.609 2.376C122.649 2.376 121.777 2.576 120.993 2.976C120.225 3.376 119.561 3.92 119.001 4.608C118.457 5.28 118.033 6.04 117.729 6.888C117.441 7.736 117.297 8.6 117.297 9.48ZM133.545 21.264V16.512H134.265C134.713 16.512 135.105 16.328 135.441 15.96C135.793 15.592 136.089 15 136.329 14.184C136.585 13.352 136.785 12.24 136.929 10.848C137.089 9.456 137.201 7.728 137.265 5.664L137.385 0.959999H147.585V16.512H149.625V21.264H148.137V18H135.033V21.264H133.545ZM136.665 16.512H145.905V2.448H138.921L138.825 5.856C138.777 8.016 138.665 9.824 138.489 11.28C138.329 12.72 138.097 13.864 137.793 14.712C137.489 15.544 137.113 16.144 136.665 16.512ZM152.745 18V0.959999H159.801C160.537 0.959999 161.209 1.112 161.817 1.416C162.441 1.72 162.977 2.136 163.425 2.664C163.873 3.176 164.225 3.752 164.481 4.392C164.737 5.016 164.865 5.656 164.865 6.312C164.865 7.24 164.657 8.12 164.241 8.952C163.841 9.768 163.273 10.432 162.537 10.944C161.801 11.456 160.937 11.712 159.945 11.712H154.425V18H152.745ZM154.425 10.224H159.873C160.545 10.224 161.129 10.04 161.625 9.672C162.121 9.304 162.505 8.824 162.777 8.232C163.049 7.64 163.185 7 163.185 6.312C163.185 5.608 163.025 4.96 162.705 4.368C162.385 3.776 161.961 3.312 161.433 2.976C160.921 2.624 160.353 2.448 159.729 2.448H154.425V10.224ZM174.539 18.12C173.339 18.12 172.251 17.88 171.275 17.4C170.299 16.92 169.459 16.272 168.755 15.456C168.051 14.624 167.507 13.696 167.123 12.672C166.739 11.632 166.547 10.568 166.547 9.48C166.547 8.344 166.747 7.264 167.147 6.24C167.547 5.2 168.107 4.28 168.827 3.48C169.563 2.664 170.419 2.024 171.395 1.56C172.371 1.08 173.427 0.839999 174.563 0.839999C175.763 0.839999 176.851 1.088 177.827 1.584C178.803 2.08 179.635 2.744 180.323 3.576C181.027 4.408 181.571 5.336 181.955 6.36C182.339 7.384 182.531 8.432 182.531 9.504C182.531 10.64 182.331 11.728 181.931 12.768C181.531 13.792 180.971 14.712 180.251 15.528C179.531 16.328 178.683 16.96 177.707 17.424C176.731 17.888 175.675 18.12 174.539 18.12ZM168.227 9.48C168.227 10.408 168.379 11.304 168.683 12.168C168.987 13.016 169.419 13.776 169.979 14.448C170.539 15.104 171.203 15.632 171.971 16.032C172.755 16.416 173.611 16.608 174.539 16.608C175.515 16.608 176.387 16.408 177.155 16.008C177.939 15.592 178.603 15.048 179.147 14.376C179.707 13.688 180.131 12.92 180.419 12.072C180.707 11.224 180.851 10.36 180.851 9.48C180.851 8.552 180.699 7.664 180.395 6.816C180.091 5.968 179.651 5.208 179.075 4.536C178.515 3.864 177.851 3.336 177.083 2.952C176.315 2.568 175.467 2.376 174.539 2.376C173.579 2.376 172.707 2.576 171.923 2.976C171.155 3.376 170.491 3.92 169.931 4.608C169.387 5.28 168.963 6.04 168.659 6.888C168.371 7.736 168.227 8.6 168.227 9.48ZM185.699 18V0.959999H197.122V2.448H187.379V8.376H192.995C194.867 8.376 196.251 8.816 197.147 9.696C198.043 10.56 198.491 11.688 198.491 13.08C198.491 13.992 198.291 14.824 197.891 15.576C197.507 16.312 196.915 16.904 196.115 17.352C195.331 17.784 194.339 18 193.139 18H185.699ZM187.379 16.512H192.947C193.875 16.512 194.619 16.344 195.179 16.008C195.739 15.672 196.147 15.24 196.403 14.712C196.659 14.168 196.786 13.608 196.786 13.032C196.786 12.456 196.674 11.92 196.451 11.424C196.227 10.912 195.827 10.504 195.251 10.2C194.691 9.88 193.899 9.72 192.875 9.72H187.379V16.512ZM214.795 0.959999V18H213.139V10.032H203.035V18H201.355V0.959999H203.035V8.544H213.139V0.959999H214.795ZM225.938 18.12C224.738 18.12 223.65 17.88 222.674 17.4C221.698 16.92 220.858 16.272 220.154 15.456C219.45 14.624 218.906 13.696 218.521 12.672C218.138 11.632 217.946 10.568 217.946 9.48C217.946 8.344 218.146 7.264 218.546 6.24C218.946 5.2 219.506 4.28 220.226 3.48C220.962 2.664 221.818 2.024 222.794 1.56C223.77 1.08 224.826 0.839999 225.962 0.839999C227.162 0.839999 228.25 1.088 229.226 1.584C230.202 2.08 231.034 2.744 231.722 3.576C232.426 4.408 232.97 5.336 233.354 6.36C233.738 7.384 233.93 8.432 233.93 9.504C233.93 10.64 233.73 11.728 233.33 12.768C232.93 13.792 232.37 14.712 231.65 15.528C230.93 16.328 230.082 16.96 229.106 17.424C228.13 17.888 227.074 18.12 225.938 18.12ZM219.626 9.48C219.626 10.408 219.778 11.304 220.082 12.168C220.386 13.016 220.818 13.776 221.378 14.448C221.938 15.104 222.602 15.632 223.37 16.032C224.154 16.416 225.01 16.608 225.938 16.608C226.914 16.608 227.786 16.408 228.554 16.008C229.338 15.592 230.002 15.048 230.546 14.376C231.106 13.688 231.53 12.92 231.818 12.072C232.106 11.224 232.25 10.36 232.25 9.48C232.25 8.552 232.098 7.664 231.794 6.816C231.49 5.968 231.05 5.208 230.474 4.536C229.914 3.864 229.25 3.336 228.482 2.952C227.714 2.568 226.866 2.376 225.938 2.376C224.978 2.376 224.106 2.576 223.322 2.976C222.554 3.376 221.89 3.92 221.33 4.608C220.786 5.28 220.362 6.04 220.058 6.888C219.77 7.736 219.626 8.6 219.626 9.48ZM235.969 9.36C235.969 8.32 236.145 7.304 236.497 6.312C236.865 5.304 237.393 4.392 238.081 3.576C238.769 2.744 239.617 2.088 240.625 1.608C241.633 1.112 242.777 0.863999 244.057 0.863999C245.577 0.863999 246.873 1.216 247.945 1.92C249.033 2.608 249.833 3.496 250.345 4.584L249.025 5.4C248.657 4.648 248.193 4.056 247.633 3.624C247.073 3.176 246.473 2.856 245.833 2.664C245.209 2.472 244.585 2.376 243.961 2.376C242.937 2.376 242.033 2.584 241.249 3C240.465 3.4 239.801 3.944 239.257 4.632C238.729 5.304 238.329 6.064 238.057 6.912C237.785 7.744 237.649 8.592 237.649 9.456C237.649 10.4 237.809 11.304 238.129 12.168C238.449 13.032 238.897 13.8 239.473 14.472C240.049 15.128 240.721 15.656 241.489 16.056C242.273 16.44 243.121 16.632 244.033 16.632C244.673 16.632 245.329 16.52 246.001 16.296C246.673 16.072 247.297 15.728 247.873 15.264C248.465 14.8 248.937 14.2 249.289 13.464L250.681 14.184C250.329 15.032 249.785 15.752 249.049 16.344C248.313 16.936 247.489 17.384 246.577 17.688C245.681 17.992 244.801 18.144 243.937 18.144C242.769 18.144 241.697 17.896 240.721 17.4C239.745 16.888 238.897 16.216 238.177 15.384C237.473 14.536 236.929 13.592 236.545 12.552C236.161 11.496 235.969 10.432 235.969 9.36ZM265.599 2.448H259.527V18H257.847V2.448H251.775V0.959999H265.599V2.448ZM268.248 18V0.959999H269.904V15.696L280.464 0.959999H282.024V18H280.368V3.528L269.928 18H268.248Z" fill="#9A031E"/>
<path d="M288 10H340M340 10L328.826 5M340 10L328.826 15" stroke="#9A031E" stroke-linecap="round"/>
</g>
</svg>
