<svg width="25" height="24" viewBox="0 0 25 24" fill="none" xmlns="http://www.w3.org/2000/svg">
<path d="M12.5249 13C14.1818 13 15.5249 11.6569 15.5249 10C15.5249 8.34315 14.1818 7 12.5249 7C10.868 7 9.5249 8.34315 9.5249 10C9.5249 11.6569 10.868 13 12.5249 13Z" stroke="white" stroke-width="2" stroke-linecap="round" stroke-linejoin="round"/>
<path d="M12.5249 2C10.4032 2 8.36834 2.84285 6.86805 4.34315C5.36776 5.84344 4.5249 7.87827 4.5249 10C4.5249 11.892 4.9269 13.13 6.0249 14.5L12.5249 22L19.0249 14.5C20.1229 13.13 20.5249 11.892 20.5249 10C20.5249 7.87827 19.682 5.84344 18.1818 4.34315C16.6815 2.84285 14.6466 2 12.5249 2V2Z" stroke="white" stroke-width="2" stroke-linecap="round" stroke-linejoin="round"/>
</svg>
