<svg width="17" height="16" viewBox="0 0 17 16" fill="none" xmlns="http://www.w3.org/2000/svg">
<g clip-path="url(#clip0_189_647)">
<path d="M14.5249 14L11.4555 10.9252M13.1565 6.81579C13.1565 8.35823 12.5437 9.8375 11.4531 10.9282C10.3624 12.0188 8.88314 12.6316 7.34069 12.6316C5.79825 12.6316 4.31898 12.0188 3.22831 10.9282C2.13764 9.8375 1.5249 8.35823 1.5249 6.81579C1.5249 5.27335 2.13764 3.79408 3.22831 2.70341C4.31898 1.61273 5.79825 1 7.34069 1C8.88314 1 10.3624 1.61273 11.4531 2.70341C12.5437 3.79408 13.1565 5.27335 13.1565 6.81579V6.81579Z" stroke="white" stroke-width="2" stroke-linecap="round"/>
</g>
<defs>
<clipPath id="clip0_189_647">
<rect width="16" height="16" fill="white" transform="translate(0.524902)"/>
</clipPath>
</defs>
</svg>
