<svg width="24" height="24" viewBox="0 0 24 24" fill="none" xmlns="http://www.w3.org/2000/svg">
<path d="M22.25 4H2.75C2.33516 4 2 4.34531 2 4.77273V20.2273C2 20.6547 2.33516 21 2.75 21H22.25C22.6648 21 23 20.6547 23 20.2273V4.77273C23 4.34531 22.6648 4 22.25 4ZM21.3125 6.67557V19.2614H3.6875V6.67557L3.04063 6.15639L3.96172 4.93693L4.96484 5.74105H20.0375L21.0406 4.93693L21.9617 6.15639L21.3125 6.67557ZM20.0375 5.73864L12.5 11.7756L4.9625 5.73864L3.95938 4.93452L3.03828 6.15398L3.68516 6.67315L11.6914 13.0868C11.9217 13.2711 12.2049 13.3711 12.4965 13.3711C12.7881 13.3711 13.0713 13.2711 13.3016 13.0868L21.3125 6.67557L21.9594 6.15639L21.0383 4.93693L20.0375 5.73864Z" fill="white"/>
</svg>
