<svg width="25" height="24" viewBox="0 0 25 24" fill="none" xmlns="http://www.w3.org/2000/svg">
<path d="M21.6961 6.00875L19.1667 3.48206C18.858 3.17335 18.4447 3 18.0077 3C17.5707 3 17.1575 3.17098 16.8487 3.48206L14.1246 6.2011C13.8158 6.50981 13.6424 6.92538 13.6424 7.36233C13.6424 7.80165 13.8134 8.21247 14.1246 8.52356L16.2526 10.6537C15.7678 11.783 15.0713 12.8092 14.2006 13.6767C13.3289 14.5529 12.3101 15.244 11.1796 15.7332L9.05155 13.6031C8.7428 13.2943 8.32955 13.121 7.89255 13.121C7.677 13.1202 7.46346 13.1624 7.26444 13.2452C7.06542 13.328 6.88493 13.4496 6.73354 13.6031L4.00703 16.3221C3.69828 16.6308 3.5249 17.0464 3.5249 17.4833C3.5249 17.9226 3.6959 18.3335 4.00703 18.6445L6.53404 21.1712C7.06129 21.6984 7.78805 22 8.5338 22C8.68817 22 8.8378 21.9881 8.9898 21.962C12.1343 21.4443 15.2551 19.7702 17.775 17.253C20.2925 14.731 21.9645 11.6107 22.487 8.46419C22.6366 7.5713 22.3374 6.65229 21.6961 6.00875ZM20.8031 8.1816C20.34 10.9814 18.8342 13.774 16.5661 16.0419C14.2979 18.3097 11.5073 19.8153 8.70718 20.2783C8.35567 20.3377 7.99467 20.219 7.73817 19.9649L5.25628 17.4833L7.8878 14.8498L10.7331 17.6994L10.7544 17.7208L11.2674 17.5308C12.8229 16.959 14.2354 16.0558 15.4071 14.8839C16.5787 13.712 17.4815 12.2994 18.0528 10.7439L18.2428 10.231L15.3738 7.3647L18.0053 4.73116L20.4872 7.21272C20.7437 7.46919 20.8625 7.83015 20.8031 8.1816Z" fill="white"/>
</svg>
