<svg width="333" height="58" viewBox="0 0 333 58" fill="none" xmlns="http://www.w3.org/2000/svg">
<g opacity="0.5">
<rect width="333" height="58" rx="5" fill="#9A031E"/>
<path d="M87.944 38V20.96H90.632V28.088H92.624L97.976 20.96H101.048L94.784 29.216L101.504 38H98.216L92.624 30.56H90.632V38H87.944ZM104.405 43.328C104.117 43.328 103.813 43.288 103.493 43.208C103.173 43.128 102.837 43.008 102.485 42.848L103.157 40.88C103.349 40.976 103.533 41.048 103.709 41.096C103.885 41.144 104.045 41.168 104.189 41.168C104.589 41.168 104.949 41 105.269 40.664C105.605 40.344 105.901 39.856 106.157 39.2L106.637 37.904L101.333 25.448H104.093L107.933 35.312L111.341 25.448H113.885L108.365 39.92C108.093 40.672 107.749 41.296 107.333 41.792C106.933 42.288 106.485 42.664 105.989 42.92C105.493 43.192 104.965 43.328 104.405 43.328ZM115.826 38V25.448H126.626V38H123.986V27.776H118.466V38H115.826ZM129.818 38V25.472H132.458V34.472L138.818 25.448H141.218V38H138.578V29.192L132.29 38H129.818ZM147.349 38V27.776H143.197V25.448H154.165V27.776H149.989V38H147.349ZM156.139 38V25.448H158.779V29.576H161.779C163.267 29.576 164.395 29.952 165.163 30.704C165.947 31.456 166.339 32.448 166.339 33.68C166.339 34.512 166.171 35.256 165.835 35.912C165.499 36.568 165.003 37.08 164.347 37.448C163.707 37.816 162.907 38 161.947 38H156.139ZM158.779 35.96H161.539C162.067 35.96 162.491 35.864 162.811 35.672C163.131 35.464 163.371 35.192 163.531 34.856C163.691 34.504 163.771 34.128 163.771 33.728C163.771 33.328 163.699 32.968 163.555 32.648C163.411 32.312 163.171 32.048 162.835 31.856C162.515 31.648 162.075 31.544 161.515 31.544H158.779V35.96ZM180.492 38.24C178.396 38.24 176.804 37.608 175.716 36.344C174.628 35.08 174.084 33.272 174.084 30.92C174.084 29.384 174.212 28.088 174.468 27.032C174.74 25.96 175.132 25.08 175.644 24.392C176.172 23.704 176.82 23.144 177.588 22.712C178.372 22.264 179.276 21.904 180.3 21.632L185.652 20.144L185.748 22.352L180.492 23.84C179.66 24.096 178.948 24.432 178.356 24.848C177.78 25.264 177.324 25.808 176.988 26.48C176.652 27.136 176.428 27.968 176.316 28.976C176.764 28.16 177.404 27.52 178.236 27.056C179.068 26.592 180.052 26.36 181.188 26.36C182.356 26.36 183.364 26.608 184.212 27.104C185.06 27.584 185.716 28.256 186.18 29.12C186.644 29.984 186.876 30.976 186.876 32.096C186.876 33.312 186.628 34.384 186.132 35.312C185.652 36.224 184.932 36.944 183.972 37.472C183.028 37.984 181.868 38.24 180.492 38.24ZM180.492 35.984C181.66 35.984 182.564 35.64 183.204 34.952C183.86 34.264 184.188 33.352 184.188 32.216C184.188 31.128 183.86 30.24 183.204 29.552C182.564 28.848 181.66 28.496 180.492 28.496C179.804 28.496 179.18 28.648 178.62 28.952C178.06 29.24 177.62 29.664 177.3 30.224C176.98 30.768 176.82 31.432 176.82 32.216C176.82 32.952 176.964 33.608 177.252 34.184C177.54 34.744 177.956 35.184 178.5 35.504C179.044 35.824 179.708 35.984 180.492 35.984ZM189.256 38V25.472H191.896V34.472L198.256 25.448H200.656V38H198.016V29.192L191.728 38H189.256ZM202.803 38.12V35.768C203.203 35.768 203.563 35.672 203.883 35.48C204.203 35.272 204.483 34.936 204.723 34.472C204.963 33.992 205.155 33.328 205.299 32.48C205.443 31.632 205.539 30.552 205.587 29.24L205.755 25.448H214.707V38H212.067V27.776H208.083L208.035 29.48C207.971 31.16 207.819 32.56 207.579 33.68C207.339 34.784 207.003 35.664 206.571 36.32C206.155 36.96 205.627 37.424 204.987 37.712C204.363 37.984 203.635 38.12 202.803 38.12ZM223.561 38.24C222.585 38.24 221.697 38.072 220.897 37.736C220.113 37.384 219.433 36.912 218.857 36.32C218.281 35.712 217.833 35.024 217.513 34.256C217.209 33.472 217.057 32.64 217.057 31.76C217.057 30.576 217.329 29.496 217.873 28.52C218.417 27.528 219.177 26.736 220.153 26.144C221.129 25.536 222.273 25.232 223.585 25.232C224.897 25.232 226.025 25.536 226.969 26.144C227.929 26.736 228.673 27.52 229.201 28.496C229.729 29.472 229.993 30.52 229.993 31.64C229.993 31.832 229.985 32.016 229.969 32.192C229.953 32.352 229.937 32.488 229.921 32.6H219.865C219.913 33.336 220.113 33.984 220.465 34.544C220.833 35.088 221.297 35.52 221.857 35.84C222.417 36.144 223.017 36.296 223.657 36.296C224.361 36.296 225.025 36.12 225.649 35.768C226.289 35.416 226.721 34.952 226.945 34.376L229.201 35.024C228.929 35.632 228.513 36.184 227.953 36.68C227.409 37.16 226.761 37.544 226.009 37.832C225.257 38.104 224.441 38.24 223.561 38.24ZM219.793 30.848H227.377C227.329 30.128 227.121 29.496 226.753 28.952C226.401 28.392 225.945 27.96 225.385 27.656C224.841 27.336 224.233 27.176 223.561 27.176C222.905 27.176 222.297 27.336 221.737 27.656C221.193 27.96 220.745 28.392 220.393 28.952C220.041 29.496 219.841 30.128 219.793 30.848ZM235.123 38V27.776H230.971V25.448H241.939V27.776H237.763V38H235.123Z" fill="white"/>
</g>
</svg>
