<svg width="24" height="24" viewBox="0 0 24 24" fill="none" xmlns="http://www.w3.org/2000/svg">
<path fill-rule="evenodd" clip-rule="evenodd" d="M2.67055 2.05211C2.46613 2.11658 2.11747 2.47778 2.05479 2.69005C1.98174 2.9375 1.98174 11.0589 2.05479 11.3063C2.12239 11.5352 2.46742 11.8804 2.6962 11.948C2.82532 11.9862 3.80781 11.9987 6.6768 11.9987C11.0013 11.9987 10.7376 12.0188 11.0547 11.6658C11.1537 11.5556 11.257 11.3911 11.2843 11.3001C11.3553 11.0629 11.3553 2.9335 11.2843 2.69622C11.257 2.6053 11.1537 2.44074 11.0547 2.33052C10.7371 1.97702 11.0056 1.99706 6.65114 2.0019C3.98249 2.00486 2.77201 2.02015 2.67055 2.05211ZM13.333 2.05211C13.1286 2.11658 12.7799 2.47778 12.7172 2.69005C12.6442 2.9375 12.6442 11.0589 12.7172 11.3063C12.7848 11.5352 13.1299 11.8804 13.3586 11.948C13.4701 11.981 13.8454 11.9987 14.4311 11.9987H15.3322L15.3307 14.0719C15.3291 16.3776 15.3516 16.2545 15.055 15.5824C14.8316 15.0762 14.7089 14.9107 14.4536 14.7718C14.1912 14.6289 13.9039 14.6147 13.528 14.7263C13.1038 14.8522 12.8649 15.1694 12.9393 15.5081C13.0076 15.8194 14.385 19.7352 14.4528 19.8108C14.4944 19.8574 14.7093 20.1089 14.9303 20.3698L15.3322 20.8443V21.3198C15.3322 21.769 15.3378 21.8009 15.4345 21.8975L15.5367 21.9998H17.9978H20.459L20.5612 21.8975C20.6586 21.8 20.6634 21.7713 20.6635 21.2828L20.6635 20.7705L20.9966 20.2704L21.3297 19.7704L21.3297 17.4833C21.3298 15.868 21.3156 15.1488 21.2815 15.0348C21.1434 14.5738 20.5627 14.2412 20.1128 14.3654C19.9685 14.4053 19.9586 14.4016 19.9208 14.293C19.7785 13.8845 19.1993 13.5828 18.78 13.6987C18.6357 13.7386 18.6258 13.7348 18.588 13.6263C18.5296 13.4589 18.3014 13.2154 18.1059 13.1122C17.9775 13.0444 17.8607 13.0218 17.6334 13.0209L17.3314 13.0197V12.5092V11.9987H19.2399C21.4363 11.9987 21.4155 12.0015 21.7171 11.6658C21.8162 11.5556 21.9195 11.3911 21.9467 11.3001C22.0178 11.0629 22.0178 2.9335 21.9467 2.69622C21.9195 2.6053 21.8162 2.44074 21.7171 2.33052C21.3995 1.97702 21.668 1.99706 17.3136 2.0019C14.6449 2.00486 13.4345 2.02015 13.333 2.05211ZM10.5651 2.76669L10.6674 2.86895V6.99818V11.1274L10.5651 11.2297L10.4629 11.332H6.66896H2.87501L2.7728 11.2297L2.67055 11.1274V6.99818V2.86895L2.7728 2.76669L2.87501 2.66438H6.66896H10.4629L10.5651 2.76669ZM21.2276 2.76669L21.3298 2.86895V6.99818V11.1274L21.2276 11.2297L21.1254 11.332H19.2284H17.3314V11.0972C17.3314 10.7355 17.2565 10.5458 17.0204 10.3096C16.7053 9.9943 16.3317 9.9155 15.957 10.0852C15.5633 10.2635 15.3718 10.5571 15.3409 11.0299L15.3212 11.332H14.4293C13.538 11.332 13.5374 11.3319 13.4352 11.2297L13.333 11.1274V6.99818V2.86895L13.4352 2.76669L13.5375 2.66438H17.3314H21.1254L21.2276 2.76669ZM4.20127 3.52906C3.30446 4.41007 3.00108 5.02689 2.99721 5.97724C2.99459 6.61868 3.16144 7.18154 3.50592 7.69355C3.69202 7.97012 5.38343 9.67326 5.69019 9.89291C6.27479 10.3116 6.77563 10.4763 7.46032 10.475C8.45817 10.4731 9.12041 10.142 10.037 9.18675C10.3614 8.84867 10.3952 8.79067 10.3776 8.60252C10.3732 8.55593 9.97174 8.11943 9.46727 7.61283C8.64481 6.78687 8.55222 6.70648 8.4231 6.70648C8.29894 6.70648 8.22139 6.76487 7.79381 7.18029C7.39143 7.5712 7.26764 7.66688 7.08622 7.72718C6.684 7.86086 6.26546 7.73472 5.96141 7.38827C5.78132 7.18304 5.70064 6.98085 5.69772 6.72732C5.69343 6.3572 5.76865 6.22564 6.28824 5.69463C6.96314 5.0048 6.99683 5.13627 5.85279 3.99503C5.02391 3.16815 4.92336 3.0811 4.797 3.0811C4.67546 3.0811 4.59803 3.13931 4.20127 3.52906ZM5.85562 5.16424L5.73046 5.28942L5.14965 4.70719L4.56884 4.125L4.69075 3.99765L4.81266 3.87035L5.39672 4.4547L5.98074 5.03901L5.85562 5.16424ZM16.7483 4.06266C15.7751 4.27177 14.9333 5.12173 14.7282 6.10225C14.4801 7.28863 15.0556 8.49689 16.1236 9.03165C16.6298 9.28514 16.9012 9.33018 17.9268 9.33106C18.7913 9.33177 18.7932 9.33156 18.8952 9.22946C18.9596 9.165 18.9974 9.07957 18.9974 8.9984C18.9974 8.91722 18.9596 8.8318 18.8952 8.76733C18.7933 8.6654 18.7897 8.66503 17.946 8.66503C16.7889 8.66503 16.448 8.56764 15.9537 8.09597C15.1518 7.33068 15.1286 6.09659 15.901 5.28642C16.6836 4.46549 17.9792 4.46549 18.7618 5.28642C19.1519 5.69558 19.3306 6.16472 19.3306 6.77966C19.3306 7.09286 19.3206 7.13703 19.2284 7.22925C19.1043 7.35343 18.9203 7.36281 18.7834 7.25192C18.6948 7.18012 18.6827 7.12907 18.6611 6.73603C18.6415 6.37728 18.6172 6.25881 18.5245 6.06929C18.124 5.25025 17.0189 5.06464 16.3755 5.70838C15.731 6.35316 15.9188 7.45732 16.7416 7.86161C16.9398 7.95899 17.0305 7.97745 17.3106 7.97741C17.5894 7.97741 17.6811 7.95887 17.8729 7.8639C17.9989 7.80148 18.1339 7.72709 18.173 7.69863C18.2319 7.65567 18.2603 7.66175 18.3396 7.73434C18.5834 7.95758 18.9542 8.04442 19.278 7.95408C19.5514 7.87782 19.8767 7.55216 19.953 7.27825C20.0315 6.99677 19.9899 6.22743 19.8772 5.87306C19.4606 4.56409 18.0941 3.77346 16.7483 4.06266ZM4.72149 5.19591L5.29276 5.76888L5.19322 5.97724C4.87896 6.63523 5.01391 7.37251 5.54795 7.9152C6.07066 8.44638 6.83452 8.59727 7.4629 8.29349C7.56174 8.24573 7.66274 8.20665 7.68735 8.20665C7.71201 8.20665 7.99219 8.4673 8.31002 8.78592L8.88792 9.36519L8.66351 9.49499C8.27741 9.71831 7.91306 9.81103 7.43949 9.80636C6.98834 9.80194 6.70291 9.72802 6.31494 9.5152C6.00935 9.34756 4.18724 7.53007 3.98782 7.194C3.55699 6.46796 3.54707 5.56103 3.96212 4.8417C4.03155 4.72136 4.10227 4.62293 4.11931 4.62293C4.1363 4.62293 4.40732 4.88079 4.72149 5.19591ZM17.595 6.05491C18.0229 6.23381 18.1273 6.79512 17.7945 7.12811C17.5243 7.39839 17.1385 7.39839 16.8683 7.12811C16.3533 6.61277 16.9216 5.77343 17.595 6.05491ZM9.02116 8.08059L9.6021 8.6629L9.48035 8.79004L9.35861 8.91718L8.78429 8.3437C8.46846 8.02829 8.21002 7.75243 8.21002 7.73068C8.21002 7.68684 8.37691 7.49824 8.41569 7.49824C8.42918 7.49824 8.70162 7.76031 9.02116 8.08059ZM16.5628 10.7675L16.665 10.8698V13.6656V16.4613L16.7673 16.5636C16.8317 16.6281 16.9171 16.6659 16.9982 16.6659C17.0793 16.6659 17.1647 16.6281 17.2292 16.5636L17.3314 16.4613V15.1657V13.8701L17.4337 13.7679C17.4981 13.7034 17.5835 13.6656 17.6646 13.6656C17.7457 13.6656 17.8311 13.7034 17.8956 13.7679L17.9978 13.8701V15.1657V16.4613L18.1001 16.5636C18.1645 16.6281 18.2499 16.6659 18.331 16.6659C18.4121 16.6659 18.4975 16.6281 18.562 16.5636L18.6642 16.4613V15.4991V14.5369L18.7665 14.4346C18.8309 14.3701 18.9163 14.3323 18.9974 14.3323C19.0786 14.3323 19.1639 14.3701 19.2284 14.4346L19.3306 14.5369V15.4991V16.4613L19.4329 16.5636C19.5681 16.6989 19.7595 16.6989 19.8948 16.5636C19.9943 16.464 19.997 16.4446 19.997 15.8325C19.997 15.2204 19.9997 15.2009 20.0993 15.1013C20.1637 15.0368 20.2491 14.999 20.3302 14.999C20.4114 14.999 20.4967 15.0368 20.5612 15.1013L20.6634 15.2036L20.6633 17.3828L20.6633 19.562L20.3302 20.0621L19.9971 20.5621L19.9971 20.9476L19.997 21.3331H17.9978H15.9986V21.0515C15.9986 20.8966 15.9815 20.7104 15.9607 20.6376C15.9398 20.5648 15.7073 20.2539 15.4439 19.9468L14.9651 19.3883L14.2948 17.4403C13.9262 16.3688 13.6245 15.4678 13.6245 15.4381C13.6245 15.3595 13.9694 15.2814 14.0988 15.3306C14.237 15.3832 14.2365 15.3822 14.8571 16.7215C15.3056 17.6892 15.4144 17.8918 15.5137 17.9438C15.6522 18.0164 15.799 17.9907 15.9163 17.8733C15.9969 17.7927 15.9986 17.7208 15.9986 14.3759C15.9986 11.9548 16.0121 10.9312 16.045 10.859C16.1376 10.6556 16.4039 10.6086 16.5628 10.7675ZM2.67055 12.7199C2.46613 12.7844 2.11747 13.1456 2.05479 13.3579C1.98182 13.605 1.98182 21.0603 2.05479 21.3074C2.12239 21.5363 2.46742 21.8815 2.6962 21.9491C2.82532 21.9873 3.80781 21.9998 6.6768 21.9998C11.0013 21.9998 10.7376 22.0198 11.0547 21.6669C11.1537 21.5567 11.257 21.3921 11.2843 21.3012C11.3552 21.0642 11.3552 13.601 11.2843 13.364C11.257 13.2731 11.1537 13.1085 11.0547 12.9983C10.7371 12.6448 11.0056 12.6649 6.65114 12.6697C3.98249 12.6727 2.77201 12.688 2.67055 12.7199ZM10.5651 13.4345L10.6674 13.5368V17.3326V21.1285L10.5651 21.2308L10.4629 21.3331H6.66896H2.87501L2.7728 21.2308L2.67055 21.1285V17.3326V13.5368L2.7728 13.4345L2.87501 13.3322H6.66896H10.4629L10.5651 13.4345ZM3.4392 15.1013L3.33695 15.2036V17.3326V19.4616L3.4392 19.5639L3.54141 19.6662H6.66896H9.79652L9.89873 19.5639L10.001 19.4616V17.3326V15.2036L9.89873 15.1013L9.79652 14.999H6.66896H3.54141L3.4392 15.1013ZM8.75147 15.6819C8.75147 15.6908 8.35334 16.0518 7.86678 16.4841C7.38018 16.9164 6.91212 17.3328 6.82661 17.4094L6.67113 17.5487L5.8088 16.7844C5.33453 16.3639 4.86081 15.941 4.75605 15.8445L4.56563 15.6691L6.65855 15.6674C7.80964 15.6665 8.75147 15.6731 8.75147 15.6819ZM4.84881 16.8301C5.16489 17.1119 5.41792 17.3466 5.41109 17.3516C5.39564 17.363 4.75897 17.9237 4.32614 18.3071L4.00335 18.593V17.3295V16.0662L4.13872 16.192C4.21314 16.2612 4.53273 16.5483 4.84881 16.8301ZM9.32525 17.9529L9.31375 18.5731L8.61761 17.9549L7.92151 17.3365L8.61761 16.7153L9.31375 16.0941L9.32525 16.7133C9.33158 17.0539 9.33158 17.6117 9.32525 17.9529ZM6.12172 17.9516C6.38195 18.1679 6.46696 18.2077 6.6683 18.2077C6.87076 18.2077 7.03065 18.132 7.25332 17.9308L7.41621 17.7835L8.09119 18.3811L8.76622 18.9786L7.71759 18.9898C7.14086 18.9959 6.1984 18.9959 5.62325 18.9898L4.57754 18.9786L5.23799 18.3872C5.60122 18.0619 5.90523 17.7946 5.91347 17.7933C5.92176 17.792 6.01547 17.8633 6.12172 17.9516Z" fill="black"/>
</svg>
