<svg width="24" height="24" viewBox="0 0 24 24" fill="none" xmlns="http://www.w3.org/2000/svg">
<path fill-rule="evenodd" clip-rule="evenodd" d="M2.38842 2.07246C2.3141 2.11234 2.20009 2.21059 2.13507 2.29082L2.01687 2.43668L2.00456 3.11871C1.99316 3.75102 1.99839 3.81344 2.0763 3.97434C2.17735 4.18301 2.33747 4.30535 2.54619 4.33332L2.70065 4.35402V8.97187V13.5897L2.54104 13.6616C2.33489 13.7546 2.13421 13.991 2.05235 14.2374C1.89817 14.7014 2.12335 15.2268 2.57366 15.4537L2.70065 15.5176V17.5818V19.646L2.54619 19.6667C2.33747 19.6946 2.17735 19.817 2.0763 20.0257C1.99839 20.1866 1.99316 20.249 2.00456 20.8813L2.01687 21.5633L2.13507 21.7092C2.20009 21.7894 2.3141 21.8877 2.38842 21.9275C2.51904 21.9975 2.84463 22 12 22C21.1554 22 21.481 21.9975 21.6116 21.9275C21.6859 21.8877 21.7999 21.7894 21.8649 21.7092L21.9831 21.5633L21.9954 20.8813C22.0068 20.249 22.0016 20.1866 21.9237 20.0257C21.8227 19.817 21.6625 19.6946 21.4538 19.6667L21.2994 19.646V17.5816V15.5172L21.4459 15.4417C21.8832 15.2164 22.1 14.696 21.9476 14.2374C21.8658 13.9909 21.6651 13.7546 21.4588 13.6616L21.299 13.5896L21.309 8.97816L21.3189 4.36676L21.4695 4.33551C21.6809 4.29156 21.8259 4.17633 21.9237 3.97434C22.0016 3.81344 22.0068 3.75102 21.9954 3.11871L21.9831 2.43668L21.8649 2.29082C21.7999 2.21059 21.6859 2.11234 21.6116 2.07246C21.481 2.00246 21.1554 2 12 2C2.84463 2 2.51904 2.00246 2.38842 2.07246ZM21.408 3.15203C21.4175 3.6318 21.4107 3.70457 21.3517 3.74773C21.2635 3.81219 2.7793 3.82078 2.659 3.75645C2.58988 3.71945 2.58343 3.66992 2.58343 3.17699C2.58343 2.88059 2.59519 2.62625 2.60957 2.61191C2.62395 2.59754 6.85699 2.5902 12.0164 2.59562L21.397 2.60547L21.408 3.15203ZM4.22254 4.56707C4.29228 4.84387 4.48171 5.26738 4.67371 5.5757C4.84102 5.84441 4.84638 5.86348 4.91026 6.41555C4.96074 6.85199 4.97086 7.18035 4.95484 7.85938C4.92624 9.07285 4.79433 9.83523 4.41779 10.9636C4.22004 11.5561 3.69752 12.6816 3.42881 13.0938L3.28873 13.3086L3.28776 8.8457L3.28674 4.38281H3.73143H4.17616L4.22254 4.56707ZM5.45443 4.54883C5.72126 5.21781 6.34639 5.79562 7.05728 6.03039C7.52025 6.18324 8.25576 6.15215 8.70369 5.96074C8.72811 5.95027 8.82107 6.05098 8.91023 6.18449C9.09372 6.45918 9.09809 6.44941 8.73741 6.5682C8.2002 6.74516 7.54932 6.76883 7.0182 6.63078C6.6712 6.54059 6.11515 6.25262 5.82617 6.0134C5.40555 5.66527 5.02822 5.11648 4.84661 4.58875L4.77573 4.38281H5.08195H5.3882L5.45443 4.54883ZM8.30261 4.4707C8.32203 4.57746 8.47062 5.27965 8.48949 5.35387C8.50923 5.4316 8.23872 5.51797 7.89734 5.54293C7.55987 5.56762 7.23514 5.49922 6.91157 5.33531C6.66463 5.2102 6.22237 4.77902 6.10495 4.54883L6.02024 4.38281H7.15344H8.28659L8.30261 4.4707ZM9.47519 4.43164C9.48206 4.45852 9.51735 4.60352 9.55361 4.75391C9.78152 5.69973 10.5683 6.47496 11.5022 6.67402C11.8688 6.75215 12.3979 6.72504 12.7424 6.61043C13.6101 6.32184 14.2939 5.54469 14.4791 4.63672L14.5268 4.40234L14.8295 4.39086C15.1048 4.38047 15.1304 4.38574 15.1123 4.44945C15.1014 4.48801 15.0804 4.59863 15.0655 4.69531C14.962 5.37082 14.473 6.15809 13.8713 6.61809C13.2882 7.06379 12.6709 7.27344 11.9414 7.27344C10.3425 7.27344 9.12998 6.17957 8.89953 4.5293L8.87909 4.38281H9.17089C9.37164 4.38281 9.46663 4.39805 9.47519 4.43164ZM13.8987 4.54449C13.8524 4.83375 13.6301 5.24836 13.3751 5.52086C12.6043 6.34465 11.3957 6.34465 10.6249 5.52086C10.3699 5.24836 10.1476 4.83375 10.1013 4.54449L10.0754 4.38281H12H13.9246L13.8987 4.54449ZM17.9007 4.53777C17.8571 4.62301 17.7145 4.80719 17.5836 4.94707C17.1848 5.37328 16.6454 5.58738 16.0831 5.54262C15.7565 5.5166 15.4914 5.42922 15.5105 5.35387C15.5294 5.27965 15.678 4.57746 15.6974 4.4707L15.7134 4.38281H16.8466H17.9798L17.9007 4.53777ZM19.1534 4.58875C18.9718 5.11648 18.5945 5.66527 18.1738 6.0134C17.8848 6.25262 17.3288 6.54059 16.9818 6.63078C16.4507 6.76883 15.7998 6.74516 15.2626 6.5682C14.9019 6.44941 14.9063 6.45918 15.0898 6.18449C15.1789 6.05098 15.2719 5.95027 15.2963 5.96074C15.7451 6.1525 16.4807 6.18336 16.9427 6.02977C17.6273 5.80219 18.1946 5.2993 18.4958 4.65309L18.6217 4.38281H18.923H19.2243L19.1534 4.58875ZM20.7133 8.83594C20.7133 11.2852 20.7065 13.2891 20.6982 13.2891C20.6691 13.2891 20.3642 12.7518 20.1511 12.3248C19.6302 11.2811 19.3157 10.2906 19.1224 9.08461C19.0344 8.53613 19.0253 6.8252 19.1071 6.23828C19.1558 5.88934 19.1816 5.81434 19.3483 5.53516C19.5361 5.22078 19.7424 4.74547 19.7934 4.50977L19.8208 4.38281H20.267H20.7133V8.83594ZM5.94593 6.80434C6.27437 7.00504 6.75388 7.17949 7.18239 7.25418C7.36822 7.2866 7.52611 7.31898 7.5333 7.32617C7.55741 7.35023 7.42593 7.99082 7.28882 8.51742C6.84789 10.2109 5.94089 11.8111 4.67864 13.1225L4.29271 13.5234H4.08277C3.96731 13.5234 3.87284 13.5181 3.87284 13.5116C3.87284 13.505 3.98494 13.3033 4.12193 13.0633C4.60592 12.2152 4.99681 11.2323 5.23601 10.2617C5.48221 9.26277 5.56719 8.46859 5.54707 7.355C5.53226 6.53766 5.53257 6.53414 5.61095 6.59082C5.65429 6.62215 5.80503 6.71824 5.94593 6.80434ZM18.453 7.3518C18.4382 8.16879 18.477 8.76551 18.5875 9.42188C18.8115 10.7526 19.2889 12.0733 19.95 13.1912C20.0474 13.356 20.1272 13.4982 20.1272 13.5071C20.1272 13.5161 20.0322 13.5234 19.9161 13.5234H19.7049L19.2664 13.0645C17.8762 11.6096 16.9546 9.83738 16.552 7.845C16.4962 7.56855 16.4571 7.33578 16.4651 7.32773C16.4732 7.31969 16.6307 7.28676 16.8153 7.25461C17.3663 7.15852 17.9349 6.9243 18.3276 6.63156C18.4017 6.57641 18.4635 6.53125 18.465 6.53125C18.4666 6.53125 18.4612 6.90051 18.453 7.3518ZM9.4841 7.49359C9.42842 7.76996 9.32116 8.21035 9.24575 8.47223C9.08035 9.04644 9.07707 9.11797 9.21156 9.22371C9.41744 9.38562 9.57881 9.31238 9.69396 9.00473C9.78875 8.75145 10.0285 7.82934 10.068 7.56621C10.0825 7.46965 10.1022 7.39062 10.1117 7.39062C10.1213 7.39062 10.2731 7.45898 10.4492 7.54254C10.9947 7.80148 11.3444 7.87672 12 7.87617C12.6954 7.87559 13.1274 7.77332 13.6901 7.47613C13.7923 7.42215 13.8815 7.38523 13.8884 7.39406C13.8952 7.40293 13.9402 7.6018 13.9883 7.83602C14.5025 10.3384 16.0151 12.8032 17.8211 14.0816L18.1113 14.287L18.1004 14.4915C18.0944 14.604 18.1108 14.7618 18.1368 14.8421C18.2317 15.136 18.5223 15.4351 18.7741 15.4983C18.8306 15.5125 18.8768 15.5283 18.8768 15.5335C18.8768 15.5386 18.6769 15.9546 18.4326 16.4578C17.9889 17.3719 17.6796 18.0592 17.2481 19.0898L17.0191 19.6367L16.1138 19.6472L15.2085 19.6577L15.1281 19.7599C15.0232 19.8932 15.0266 19.9789 15.142 20.113L15.2363 20.2227L18.3166 20.2422L21.397 20.2617V20.8281V21.3945H12H2.60297V20.8281V20.2617L8.32715 20.2422C11.4754 20.2314 14.0826 20.2074 14.1208 20.1887C14.278 20.112 14.3151 19.8614 14.1881 19.7344C14.1111 19.6574 14.0579 19.6562 10.5553 19.6562H7.00066L6.94557 19.5488C6.91529 19.4898 6.78986 19.1953 6.6669 18.8945C6.3526 18.1259 6.03865 17.4313 5.54738 16.4178C5.31408 15.9364 5.12317 15.5384 5.12317 15.5333C5.12317 15.5282 5.17029 15.5123 5.22784 15.4978C5.37628 15.4606 5.59998 15.2911 5.71622 15.1277C5.85395 14.9342 5.91236 14.7316 5.89959 14.4915L5.88872 14.287L6.17611 14.0836C7.22502 13.3411 8.18762 12.195 8.9461 10.7855C9.16077 10.3866 9.19613 10.2042 9.08301 10.0793C8.99807 9.98539 8.75074 9.98355 8.6715 10.0762C8.63934 10.1138 8.51278 10.3359 8.39029 10.5697C7.7763 11.7419 6.70679 13.0179 5.86481 13.5829L5.57251 13.779L5.33619 13.6581L5.09992 13.5373L5.36945 13.2471C5.51765 13.0876 5.79167 12.7549 5.97832 12.5078C7.08236 11.0465 7.75524 9.4807 8.10181 7.56641C8.14655 7.31922 8.1607 7.29191 8.249 7.28211C8.48238 7.25621 9.02976 7.10238 9.24536 7.00211C9.59584 6.8391 9.61003 6.86832 9.4841 7.49359ZM15.0505 7.11898C15.1886 7.16602 15.4247 7.22543 15.5752 7.25109L15.8487 7.2977L15.8982 7.56879C16.2494 9.49184 16.918 11.047 18.0217 12.5078C18.2083 12.7549 18.4824 13.0876 18.6306 13.2471L18.9001 13.5373L18.6638 13.6581L18.4275 13.779L18.1352 13.5829C17.7633 13.3333 17.0409 12.6372 16.6501 12.1518C15.6051 10.8538 14.8773 9.27066 14.5188 7.51531C14.4351 7.10547 14.4232 6.9877 14.4608 6.94227C14.5022 6.8925 14.527 6.89469 14.6538 6.95934C14.7338 7.00016 14.9123 7.07199 15.0505 7.11898ZM5.01775 14.1511C5.19307 14.1997 5.31818 14.375 5.31838 14.5723C5.31849 14.6691 5.28399 14.7377 5.18569 14.8359L5.05284 14.9688H3.95551H2.85819L2.73792 14.8613C2.49841 14.6473 2.57202 14.238 2.86522 14.1535C3.04441 14.1018 4.83313 14.0998 5.01775 14.1511ZM21.1158 14.1511C21.4282 14.2378 21.5108 14.6391 21.2621 14.8613L21.1418 14.9688H20.0445H18.9472L18.8143 14.8359C18.716 14.7377 18.6815 14.6691 18.6816 14.5723C18.6818 14.3866 18.8086 14.198 18.9633 14.1535C19.1424 14.1018 20.9312 14.0998 21.1158 14.1511ZM3.48617 15.6621C3.79614 16.4704 4.54907 19.5328 4.46127 19.6281C4.44588 19.6448 4.17968 19.6536 3.86975 19.6476L3.30628 19.6367L3.29616 17.5957C3.28612 15.5661 3.28651 15.5547 3.36551 15.5547C3.41615 15.5547 3.45991 15.5936 3.48617 15.6621ZM5.02412 16.6973C5.48795 17.6438 6.33443 19.5393 6.33443 19.6313C6.33443 19.645 6.05588 19.6562 5.7154 19.6562H5.0964L4.96871 19.002C4.76776 17.9724 4.39829 16.5364 4.14795 15.8122C4.10407 15.6854 4.0682 15.5755 4.0682 15.5681C4.0682 15.5607 4.15733 15.5547 4.26622 15.5547H4.46424L5.02412 16.6973ZM19.9318 15.5681C19.9318 15.5755 19.8959 15.6854 19.8521 15.8122C19.6017 16.5364 19.2322 17.9724 19.0313 19.002L18.9036 19.6562H18.2846C17.9441 19.6562 17.6656 19.645 17.6656 19.6313C17.6656 19.5393 18.512 17.6438 18.9759 16.6973L19.5358 15.5547H19.7338C19.8427 15.5547 19.9318 15.5607 19.9318 15.5681ZM20.7038 17.5957L20.6937 19.6367L20.1303 19.6476C19.8203 19.6536 19.5541 19.6448 19.5387 19.6281C19.471 19.5546 19.9255 17.5803 20.2807 16.4048C20.5327 15.5709 20.5394 15.5547 20.6345 15.5547C20.7135 15.5547 20.7139 15.5661 20.7038 17.5957Z" fill="black"/>
</svg>
