<svg width="24" height="24" viewBox="0 0 24 24" fill="none" xmlns="http://www.w3.org/2000/svg">
<path fill-rule="evenodd" clip-rule="evenodd" d="M3.68784 2.05338C3.27853 2.14298 2.91592 2.33014 2.61585 2.60663C2.32476 2.87487 2.2434 2.98889 2.11712 3.30519C1.84443 3.98844 2.05661 4.75422 2.66308 5.27581C3.15688 5.70047 3.58086 5.82336 4.5525 5.82336C4.90877 5.82336 5.20022 5.83109 5.20022 5.84055C5.20022 5.88334 4.9424 6.4716 4.7368 6.89789C4.38533 7.62662 3.97498 8.34625 3.518 9.03516C3.28773 9.38226 3.0126 9.83626 2.90649 10.0441C1.72993 12.3487 1.87956 14.6505 3.32944 16.5492C3.99529 17.4212 4.90174 18.168 5.92337 18.6863C6.13641 18.7943 6.3178 18.8884 6.32646 18.8952C6.33512 18.9021 6.26006 18.9438 6.1597 18.9879C5.66845 19.204 5.1 19.7697 4.89209 20.2493C4.76032 20.5534 4.68979 20.9983 4.7081 21.4097C4.72383 21.7622 4.72832 21.7751 4.87232 21.886L5.02036 22H7.55723H10.0941L10.2411 21.8868C10.4514 21.7248 10.4514 21.4937 10.2411 21.3318L10.0941 21.2185H7.85113H5.60816V21.09C5.60816 20.9076 5.72447 20.5458 5.85289 20.3289C6.08297 19.9402 6.61297 19.6007 7.14017 19.5041C7.47863 19.4422 16.5199 19.4422 16.8584 19.5041C17.3856 19.6007 17.9156 19.9402 18.1457 20.3289C18.2741 20.5458 18.3904 20.9076 18.3904 21.09V21.2185H16.1474H13.9045L13.7575 21.3318C13.6358 21.4255 13.6104 21.4733 13.6104 21.6093C13.6104 21.7452 13.6358 21.7931 13.7575 21.8868L13.9045 22H16.4413H18.9782L19.1262 21.8861C19.2722 21.7736 19.2745 21.7667 19.2898 21.3786C19.3078 20.9243 19.2154 20.4536 19.0447 20.1293C18.799 19.6626 18.2986 19.1901 17.8331 18.9854L17.6545 18.9069L18.0313 18.7137C19.396 18.0139 20.4819 17.0045 21.1583 15.8068C22.1309 14.0845 22.1072 12.0219 21.092 10.0482C20.9856 9.84118 20.7243 9.40813 20.5114 9.08588C20.0426 8.37622 19.828 8.01057 19.4535 7.28309C19.2093 6.80877 18.7983 5.90553 18.7983 5.84309C18.7983 5.83223 19.0898 5.82336 19.4461 5.82336C20.4177 5.82336 20.8417 5.70047 21.3355 5.27581C22.2444 4.49414 22.2178 3.27933 21.275 2.51066C20.7262 2.06327 20.009 1.91025 19.1156 2.05002C18.3945 2.16279 17.8107 2.44881 17.2544 2.96185C16.4325 3.71993 15.9592 4.55255 15.8677 5.40167L15.8391 5.66706H15.1883H14.5376L14.5351 5.07118C14.532 4.37051 14.4925 4.2334 14.2629 4.12735C14.0706 4.03854 13.9018 4.06253 13.7405 4.20159C13.6331 4.29416 13.6311 4.30885 13.6311 4.98151V5.66706H13.0418H12.4526V4.37567C12.4526 3.00245 12.4397 2.91332 12.2284 2.81583C12.1165 2.76418 11.8821 2.76418 11.7702 2.81583C11.5588 2.91332 11.546 3.00245 11.546 4.37567V5.66706H10.9568H10.3675V4.98151C10.3675 4.30885 10.3655 4.29416 10.2581 4.20159C10.0968 4.06253 9.92793 4.03854 9.73565 4.12735C9.50607 4.2334 9.46654 4.37051 9.4635 5.07118L9.46097 5.66706H8.81025H8.15949L8.13089 5.40167C8.03443 4.50719 7.52953 3.65147 6.65069 2.89316C6.16392 2.47315 5.80543 2.2745 5.26821 2.127C4.80637 2.00024 4.08427 1.9666 3.68784 2.05338ZM4.83339 2.83576C5.27583 2.92567 5.63396 3.10904 6.02032 3.44348C6.88775 4.1944 7.28495 5.00941 7.22702 5.91944C7.186 6.56362 6.9905 7.04657 5.93747 9.10558C5.24446 10.4607 5.05966 10.8745 4.89453 11.4411C4.7848 11.8176 4.77224 11.9319 4.77097 12.5636C4.76952 13.3115 4.80433 13.4985 5.03741 13.996C5.36585 14.6969 6.08106 15.3748 6.97564 15.8329L7.28527 15.9915V17.1984C7.28527 17.8621 7.27457 18.4052 7.26147 18.4052C7.21342 18.4052 6.59503 18.1254 6.29863 17.9696C5.23993 17.4128 4.25329 16.494 3.7057 15.5549C3.03318 14.4015 2.8588 13.0346 3.21444 11.704C3.41755 10.944 3.75293 10.2504 4.35759 9.34002C4.98392 8.39697 5.60753 7.21736 5.99716 6.2386C6.22493 5.66652 6.23912 5.53722 6.09484 5.35048C5.90166 5.10049 5.74279 5.06458 4.72429 5.04098C3.69024 5.01699 3.60308 4.99526 3.26235 4.67661C3.00267 4.43373 2.92117 4.25641 2.91859 3.92827C2.91433 3.39737 3.28434 2.97041 3.88573 2.81212C4.07552 2.76218 4.52666 2.77344 4.83339 2.83576ZM20.3662 2.90316C20.825 3.10568 21.0836 3.47708 21.08 3.92827C21.0774 4.25641 20.9959 4.43373 20.7362 4.67661C20.393 4.99765 20.3081 5.01882 19.2743 5.04153C18.4873 5.0588 18.3439 5.07173 18.187 5.13956C17.9686 5.234 17.8011 5.43789 17.8011 5.60931C17.8011 6.01803 18.8276 8.11653 19.5877 9.26187C20.4418 10.5489 20.7921 11.3945 20.9346 12.513C21.2327 14.8544 19.7114 17.1243 17.0778 18.2676C16.9035 18.3433 16.7502 18.4052 16.7371 18.4052C16.724 18.4052 16.7133 17.8621 16.7133 17.1984V15.9915L17.0229 15.8329C18.0751 15.2941 18.8205 14.495 19.125 13.5795C19.2156 13.307 19.229 13.1792 19.229 12.5832C19.229 11.4545 19.1445 11.2214 17.7357 8.46085C17.232 7.47396 16.9215 6.7593 16.8255 6.36578C16.6875 5.8003 16.7751 5.09193 17.049 4.55802C17.3329 4.00462 18.0949 3.24885 18.6004 3.01929C19.1852 2.75382 19.9186 2.70556 20.3662 2.90316ZM9.46097 10.8444V15.2402H8.89438H8.32779V10.8444V6.44854H8.89438H9.46097V10.8444ZM11.546 10.8455V15.2425L10.9681 15.2316L10.3902 15.2207L10.3785 10.8834C10.3721 8.49797 10.3765 6.52427 10.3884 6.49739C10.4041 6.46191 10.5653 6.44854 10.978 6.44854H11.546V10.8455ZM13.6084 10.8444V15.2207L13.0305 15.2316L12.4526 15.2425V10.8444V6.4462L13.0305 6.45714L13.6084 6.46808V10.8444ZM15.6708 10.8444V15.2402H15.1042H14.5376V10.8444V6.44854H15.1042H15.6708V10.8444ZM7.40235 15.1132C7.35443 15.1545 6.81767 14.7886 6.50269 14.5C5.85071 13.9025 5.62566 13.3469 5.66528 12.4324C5.70204 11.5836 5.8202 11.267 6.85733 9.23894L7.39858 8.18054L7.41014 11.6385C7.41653 13.5404 7.413 15.104 7.40235 15.1132ZM17.9077 10.7761C18.1974 11.4081 18.3075 11.8362 18.3333 12.4324C18.3513 12.8483 18.3395 13.031 18.2793 13.2641C18.1652 13.7062 17.9027 14.1254 17.5167 14.4818C17.2189 14.757 16.7033 15.123 16.6136 15.123C16.5936 15.123 16.5776 13.5536 16.578 11.6356L16.5787 8.14826L17.1603 9.28141C17.4801 9.90464 17.8165 10.5773 17.9077 10.7761ZM15.8068 17.3502V18.6787H11.9993H8.19181V17.3502V16.0217H11.9993H15.8068V17.3502ZM9.36011 16.7859C9.17522 16.8724 9.14368 16.9574 9.14368 17.3689C9.14368 17.7139 9.15261 17.7522 9.2531 17.8388C9.41442 17.9779 9.58326 18.0019 9.77554 17.9131C9.9631 17.8264 10.0439 17.6649 10.0474 17.3697C10.051 17.068 9.97597 16.8888 9.80949 16.8013C9.63833 16.7113 9.52769 16.7075 9.36011 16.7859ZM14.1891 16.8013C14.0226 16.8888 13.9476 17.068 13.9512 17.3697C13.9546 17.6649 14.0355 17.8264 14.223 17.9131C14.4153 18.0019 14.5841 17.9779 14.7455 17.8388C14.846 17.7522 14.8549 17.7139 14.8549 17.3689C14.8549 16.9527 14.8232 16.8705 14.6292 16.784C14.4545 16.7062 14.3632 16.7098 14.1891 16.8013ZM11.7624 21.2794C11.3613 21.4671 11.5505 22 12.0182 22C12.0818 22 12.2 21.949 12.2808 21.8868C12.4025 21.7931 12.4278 21.7452 12.4278 21.6093C12.4278 21.4733 12.4025 21.4255 12.2808 21.3318C12.1172 21.2057 11.955 21.1893 11.7624 21.2794Z" fill="black"/>
</svg>
