<svg width="70" height="70" viewBox="0 0 70 70" fill="none" xmlns="http://www.w3.org/2000/svg">
<path fill-rule="evenodd" clip-rule="evenodd" d="M34.2238 0.407882C34.0114 0.632228 33.8374 1.01803 33.8374 1.26557C33.8374 1.51311 33.6693 2.03762 33.4637 2.43123C32.9804 3.35649 33.1987 4.52171 33.9628 5.09595L34.5378 5.52792V12.7993V20.0707H31.3861H28.2343V17.6877C28.2343 15.574 28.2896 15.2484 28.7246 14.8064C29.2606 14.2614 29.3995 12.8433 28.958 12.4215C28.8168 12.2866 28.7012 11.949 28.7012 11.6711C28.7012 11.1018 27.9901 10.6368 27.4321 10.8413C27.229 10.9158 27.0028 11.2414 26.9292 11.5652C26.8557 11.889 26.6871 12.428 26.5545 12.763C26.2552 13.5194 26.459 14.3528 27.0784 14.9038C27.5038 15.2825 27.5444 15.5555 27.4842 17.6417L27.4172 19.9592L24.5759 20.0217L21.7344 20.0841L21.3457 18.8067C20.6336 16.4671 18.4154 12.9895 16.9171 11.8636C16.3878 11.466 16.3822 11.424 16.7009 10.2508C17.1129 8.73321 17.1108 8.4743 16.6859 8.4743C16.2356 8.4743 14.7921 9.69527 14.298 10.4943C14.083 10.8418 13.8414 11.0873 13.7606 11.0396C13.4921 10.881 8.9748 11.3694 8.90686 11.5643C8.66195 12.2659 8.01712 12.5716 5.46558 13.196C3.92798 13.5723 2.26127 13.8932 1.76189 13.909C0.874956 13.9373 0.844139 13.9663 0.434874 15.1645C0.204444 15.8391 0.00903343 16.5693 0.000395213 16.7869C-0.0238852 17.4071 1.07434 17.7135 2.26454 17.4185C3.49 17.1147 3.9539 17.1063 3.9539 17.3879C3.9539 17.5068 3.45498 17.745 2.84494 17.9171C1.6559 18.253 1.50485 18.6506 2.26011 19.4574C2.74034 19.9704 3.22548 19.9505 3.84697 19.3928C5.00542 18.3533 7.63681 18.7476 8.65495 20.1133C9.41021 21.1264 10.5266 21.4986 11.8807 21.1882C12.4831 21.0502 13.2523 20.6922 13.5906 20.3927L14.2054 19.8484L14.3478 20.5734C14.7451 22.5965 13.0243 26.8243 10.458 30.1306C8.82258 32.2374 5.47329 35.6144 3.6121 37.0329C2.41839 37.9428 2.33178 38.0762 2.18026 39.234C2.09154 39.9117 2.13777 41.1956 2.28275 42.0872C2.97451 46.3368 5.56971 50.4129 10.7085 55.3207C12.579 57.1072 14.924 59.1959 15.919 59.9624L17.7283 61.3557V60.1312C17.7283 59.0737 17.8124 58.8433 18.3435 58.4444C18.9519 57.9872 19.1303 57.9821 34.5434 57.9821C52.7175 57.9821 51.1503 57.7566 51.3473 60.3992L51.4641 61.9648L53.682 60.2623C56.6199 58.0073 61.0565 53.854 62.8467 51.683C66.4325 47.3345 68.1178 43.2814 67.8585 39.6303C67.7539 38.158 67.7221 38.0929 66.728 37.3135C62.6767 34.1369 58.0044 28.6026 56.6561 25.3837C55.9415 23.6776 55.5068 21.4465 55.7047 20.5009L55.8401 19.854L56.5228 20.4025C58.1099 21.6782 60.1691 21.5803 61.2904 20.176C62.4379 18.7389 64.9787 18.3306 66.1626 19.3928C66.7841 19.9505 67.2692 19.9704 67.7494 19.4574C68.5047 18.6506 68.3536 18.253 67.1646 17.9171C66.5546 17.745 66.0556 17.5068 66.0556 17.3879C66.0556 17.1103 66.661 17.1127 67.6897 17.3946C68.1375 17.5173 68.8458 17.5563 69.2642 17.4811C70.1623 17.3204 70.2043 17.0077 69.5747 15.1645C69.1649 13.9652 69.1355 13.9373 68.2477 13.9126C67.0031 13.8776 61.7912 12.5442 61.5747 12.2054C61.4786 12.0545 61.3112 11.8047 61.2028 11.6504C61.0184 11.387 56.5861 10.8406 56.2489 11.0396C56.1682 11.0873 55.9265 10.8418 55.7115 10.4943C55.2175 9.69527 53.774 8.4743 53.3236 8.4743C52.8987 8.4743 52.8966 8.73321 53.3087 10.2508C53.6267 11.4218 53.6208 11.4666 53.0981 11.8593C51.5967 12.9875 49.2153 16.8001 48.5612 19.1229L48.2943 20.0707H45.6183H42.9426V17.6176C42.9426 15.4246 42.9944 15.115 43.4319 14.6971C43.932 14.2194 43.9421 13.866 43.512 11.8689C43.3448 11.0922 42.7348 10.6234 42.1637 10.8326C41.7764 10.9747 41.0749 12.823 41.0749 13.7012C41.0749 14.0154 41.285 14.4732 41.5418 14.7185C41.9522 15.1106 42.0087 15.4618 42.0087 17.6176V20.0707H38.7402H35.4717V12.7993V5.52792L36.0467 5.09595C36.8109 4.52171 37.0291 3.35649 36.5459 2.43123C36.3402 2.03762 36.1721 1.48568 36.1721 1.20491C36.1721 0.71028 35.4059 0 34.8722 0C34.7281 0 34.4363 0.183536 34.2238 0.407882ZM10.2575 13.1465C9.35581 13.6062 9.10017 13.5716 9.55239 13.0513C9.71488 12.8644 10.1237 12.7157 10.461 12.7208C11.054 12.7297 11.047 12.7442 10.2575 13.1465ZM60.4571 13.0513C60.9094 13.5716 60.6537 13.6062 59.7521 13.1465C58.9625 12.7442 58.9555 12.7297 59.5485 12.7208C59.8859 12.7157 60.2947 12.8644 60.4571 13.0513ZM1.9622 14.7074C2.03761 14.8238 1.8931 15.0245 1.64119 15.1534C0.978848 15.4919 0.870287 15.4449 1.15231 14.9415C1.4215 14.4609 1.74275 14.368 1.9622 14.7074ZM68.9249 14.9415C69.0648 15.4527 69.001 15.4768 68.3684 15.1534C68.1164 15.0245 67.9719 14.8238 68.0473 14.7074C68.2848 14.3403 68.7977 14.4772 68.9249 14.9415ZM27.4811 24.6729L27.4172 28.3831L26.1387 28.6953C22.8863 29.4899 20.7085 31.7608 20.0583 35.0359C19.6341 37.1725 20.5082 39.9909 22.0897 41.5856C22.717 42.2183 22.7478 42.3488 22.7478 44.3779C22.7478 46.3332 22.8102 46.6272 23.5152 47.9953C24.3648 49.644 25.728 50.9406 27.4835 51.77C29.0262 52.499 32.7668 52.5313 34.2138 51.8284L35.1738 51.3621L36.0815 51.8132C37.4933 52.5152 40.5661 52.5908 42.2999 51.9664C44.0621 51.3317 45.9937 49.6407 46.8429 47.9891C47.4132 46.8796 47.4982 46.4479 47.5185 44.5541L47.5419 42.3882L48.4204 41.4594C49.9064 39.8881 50.2967 38.8018 50.2965 36.2388C50.2965 34.2255 50.2325 33.893 49.6402 32.8183C48.4136 30.5929 46.0797 28.8882 43.8725 28.6054L42.9426 28.4864V24.7173V20.948L45.5369 21.0111L48.1309 21.0742L49.0017 23.4158C49.4805 24.7037 50.6126 27.3129 51.5175 29.214C54.1214 34.6844 55.3162 38.3712 55.3162 40.9342C55.3162 43.0461 52.1607 47.5754 48.6539 50.497C45.793 52.8803 43.6978 54.1184 41.9856 54.4378C39.9752 54.8127 30.0343 54.8127 28.0239 54.4378C24.4353 53.7685 18.3099 48.4677 15.6827 43.7579C14.5651 41.7544 14.4951 41.1708 15.0428 38.4359C15.5503 35.902 16.1361 34.3379 18.5382 29.1025C20.3483 25.1575 21.3996 22.6476 21.8306 21.2415C21.8929 21.0383 22.6801 20.9627 24.7307 20.9627H27.5451L27.4811 24.6729ZM34.5378 22.053C34.5378 23.1371 34.5329 23.144 33.6623 23.2947C32.1747 23.5525 30.409 24.4488 29.2975 25.5108L28.2343 26.5261V23.7445V20.9627H31.3861H34.5378V22.053ZM42.0538 23.7508C42.0932 25.2842 42.0988 26.5386 42.0664 26.5384C42.0339 26.5382 41.6312 26.1401 41.1715 25.6539C40.1942 24.6207 37.9887 23.5028 36.5099 23.2909L35.4717 23.1422V22.0524V20.9627H38.7269H41.9821L42.0538 23.7508ZM38.1453 24.5032C39.6082 25.1212 41.2005 26.6115 41.8936 28.0114C42.4376 29.1094 42.5564 29.214 43.2624 29.214C44.3632 29.214 46.7222 30.4094 47.7354 31.4807C49.1374 32.9628 49.5919 34.1561 49.5907 36.3503C49.59 37.9883 49.5018 38.406 48.9431 39.4242C48.5873 40.0725 47.9051 40.9757 47.4268 41.4313L46.5573 42.26L46.7719 43.5407C47.6852 48.9911 41.9597 53.2501 36.5162 51.1698L35.0295 50.6016L34.0249 51.1123C33.1919 51.536 32.6615 51.623 30.9191 51.6228C29.0979 51.6223 28.6611 51.5434 27.6413 51.0309C24.6786 49.5423 22.9993 46.4001 23.5755 43.4232L23.8054 42.2353L22.7763 41.2094C21.3085 39.746 20.6882 38.0646 20.819 35.9043C20.9455 33.8167 21.6786 32.3482 23.2801 30.974C24.4239 29.9928 26.2062 29.2116 27.3004 29.212C27.7715 29.2123 27.9663 29.0214 28.3106 28.2217C29.1553 26.2592 31.1808 24.6223 33.4599 24.0599C34.5656 23.7869 36.9941 24.0168 38.1453 24.5032ZM39.9075 29.2473C40.2286 29.5026 40.695 29.8483 40.9441 30.0153C41.9466 30.6875 40.9855 30.561 39.3085 29.8003C38.3272 29.3552 37.4594 28.991 37.38 28.991C37.052 28.991 38.3835 29.7357 39.6255 30.2472L40.9581 30.7961L39.5573 30.6667C38.7869 30.5956 37.7363 30.4905 37.2227 30.4334C36.3782 30.3396 36.3537 30.35 36.9668 30.5423C37.3394 30.6591 38.39 30.8275 39.3015 30.9163C41.0891 31.0907 40.7954 31.3634 38.7402 31.4377C38.1624 31.4584 37.4795 31.5659 37.2227 31.6763C36.7637 31.8734 39.1455 31.7673 40.3161 31.5385C40.6051 31.4818 40.8414 31.5271 40.8414 31.6388C40.8414 31.7505 40.0801 32.0204 39.1497 32.238C38.2194 32.4559 37.579 32.6727 37.727 32.7197C37.8748 32.7668 38.6557 32.6419 39.4626 32.4423C40.929 32.0792 40.9294 32.0792 41.3452 32.598C41.5738 32.8832 41.7073 33.3174 41.6417 33.5627C41.5481 33.9121 41.6034 33.8878 41.8969 33.4512L42.2714 32.8937L42.1516 33.4512C42.0374 33.9831 42.0475 33.9889 42.3706 33.5759C42.6893 33.1682 42.711 33.1876 42.7399 33.9104L42.7705 34.6777L42.915 33.8972L43.0593 33.1167L43.3764 34.3006C43.7798 35.8084 43.9764 35.6831 43.6068 34.1537C43.3687 33.168 43.2508 33.0052 42.7752 33.0052C42.1161 33.0052 41.0749 32.0815 41.0749 31.497C41.0749 31.2695 41.2175 30.8969 41.3919 30.6692C41.6777 30.2959 41.6081 30.181 40.6897 29.5113C39.5807 28.7029 38.9597 28.4931 39.9075 29.2473ZM34.7713 31.8797C34.7713 32.1963 34.9233 32.3362 35.2674 32.3362C35.6928 32.3362 35.7437 32.4305 35.6253 32.9965C35.5492 33.3598 35.5768 33.7099 35.6863 33.7746C35.796 33.8392 35.9515 34.227 36.0318 34.6363C36.1121 35.0452 36.3909 35.5985 36.6514 35.8655L37.1249 36.351L37.6264 35.9045C38.1379 35.4493 39.1208 35.2736 38.8546 35.6848C38.7738 35.8095 38.5938 35.8443 38.4545 35.762C38.3151 35.6797 38.2665 35.7134 38.3464 35.8369C38.4264 35.9605 38.3291 36.2519 38.1299 36.4848C37.8134 36.855 37.7844 36.859 37.8967 36.5176C37.9674 36.3028 37.9233 36.1273 37.7991 36.1273C37.5033 36.1273 37.5064 36.7307 37.8029 36.9058C37.9294 36.9805 38.3755 36.5773 38.7941 36.01C39.453 35.1173 39.6407 34.9946 40.1893 35.0994C40.5566 35.1697 40.95 35.0997 41.1241 34.9333C41.669 34.4128 41.8539 34.4469 42.156 35.1238C42.3202 35.4917 42.4593 35.6474 42.4652 35.4694C42.4729 35.2319 42.5448 35.2121 42.7355 35.3943C43.0287 35.6744 42.7932 36.2033 42.4621 36.0078C42.3442 35.9382 42.3101 36.0367 42.3865 36.2272C42.4773 36.4531 42.3928 36.5733 42.1432 36.5733C41.9326 36.5733 41.701 36.4252 41.6284 36.2444C41.5142 35.96 41.3961 35.9674 40.7604 36.2974C39.978 36.7038 39.8851 36.7285 38.9737 36.774C38.5236 36.7965 38.4675 36.8501 38.729 37.0079C38.9155 37.1208 39.1562 37.1609 39.2636 37.0974C39.4308 36.9988 39.3514 37.6518 39.0951 38.4827C39.0512 38.6254 39.2896 38.6818 39.6953 38.625C40.5673 38.5028 41.5418 38.7398 41.5418 39.0741C41.5418 39.4842 40.3325 40.5874 39.883 40.5874C39.6608 40.5874 39.3208 40.5295 39.1275 40.4588C38.8261 40.3482 38.8359 40.273 39.1959 39.9291C39.4268 39.7086 39.7602 39.4682 39.9367 39.395C40.1132 39.3219 39.89 39.3056 39.4406 39.3587C38.2742 39.4967 36.9234 39.2516 36.7719 38.8745C36.7007 38.6972 36.7856 38.2824 36.961 37.9531C37.1576 37.5833 37.208 37.183 37.0924 36.9078C36.9313 36.524 36.9031 36.5503 36.8888 37.0965C36.8688 37.8775 36.1873 39.0264 35.7444 39.0264C35.5322 39.0264 35.4603 39.1832 35.5394 39.4724C35.6699 39.9494 35.5354 40.021 35.0552 39.73C34.8899 39.6298 34.8227 39.3812 34.9051 39.1758C35.0085 38.9185 34.9329 38.8034 34.6602 38.8034C34.4274 38.8034 34.3214 38.689 34.4015 38.5246C34.4764 38.3714 34.6023 38.0704 34.6817 37.8556C34.7608 37.6408 34.9973 37.4573 35.2072 37.4477C35.4168 37.4381 35.2994 37.3293 34.9464 37.2062C34.5509 37.0682 34.3044 36.8179 34.3044 36.5548C34.3044 36.1866 34.1304 36.1273 33.0495 36.1273C31.6034 36.1273 30.3 36.3382 30.4373 36.5501C30.4889 36.6302 30.0934 36.6986 29.5578 36.7024C29.0225 36.7062 27.9541 36.7742 27.1837 36.8534C26.1782 36.9569 26.0136 36.9428 26.6 36.8039L27.4172 36.6103L26.6 36.6143C25.3911 36.6206 25.1992 36.5909 25.1992 36.3994C25.1992 36.3035 26.3031 36.2374 27.6523 36.2522C29.0014 36.2671 30.0434 36.2201 29.9673 36.1476C29.8914 36.0751 28.8663 36.0084 27.6894 35.9995C26.5125 35.9906 25.3732 35.9074 25.1579 35.8146C24.5399 35.5486 24.9079 36.5267 25.5851 36.9506C26.1408 37.2983 26.4504 37.2929 29.1098 36.8884C30.25 36.7151 30.3252 36.8813 29.6741 38.1344C29.3358 38.7851 29.1597 38.9037 28.6146 38.8478C28.2551 38.8107 27.8175 38.8941 27.6424 39.0329C27.4671 39.1718 27.0298 39.257 26.6701 39.2222C26.3105 39.1874 25.8062 39.2777 25.5494 39.4231C25.1481 39.6501 25.1315 39.7186 25.4327 39.9108C25.6253 40.0339 26.177 40.1361 26.6584 40.1381C27.14 40.1399 27.5339 40.2418 27.5339 40.3644C27.5339 40.7183 28.4035 40.6231 28.5523 40.2529C28.626 40.069 28.5936 39.9184 28.4799 39.9184C28.3662 39.9184 28.2249 40.044 28.1661 40.1972C28.0835 40.4128 27.9866 40.4055 27.7382 40.1644C27.5617 39.9931 27.5411 39.9195 27.6929 40.0009C27.8444 40.0821 28.0372 40.0426 28.121 39.9131C28.2049 39.7833 28.4747 39.7382 28.7208 39.8129C28.9709 39.8888 29.1681 39.8435 29.1681 39.7104C29.1681 39.4091 27.8444 39.3961 27.6506 39.6954C27.4671 39.9791 26.3591 39.9791 25.8996 39.6954C25.707 39.5765 25.602 39.4708 25.6662 39.4606C25.7304 39.4506 26.2557 39.401 26.8335 39.3511C29.4973 39.1201 29.4576 39.1392 30.0826 37.7898C30.589 36.6964 31.2051 36.3503 32.6447 36.3503C33.2755 36.3503 33.6745 36.5046 34.0623 36.8991C34.5504 37.3955 34.5738 37.5133 34.3058 38.1312C34.0749 38.6636 33.9077 38.784 33.55 38.6756C32.5137 38.3614 31.9123 38.4323 31.2761 38.9437C30.9142 39.2345 30.4153 39.4724 30.1674 39.4724C29.9194 39.4724 29.4698 39.7233 29.1681 40.0299C28.8665 40.3366 28.7269 40.5874 28.8579 40.5874C28.9886 40.5874 29.286 40.3867 29.5183 40.1414C29.7506 39.8961 30.1085 39.6932 30.3133 39.6905C30.518 39.6878 30.9483 39.4894 31.2693 39.2494C32.263 38.507 34.0709 38.786 34.0709 39.6818C34.0709 40.0208 34.282 40.1129 35.2048 40.1755C36.6521 40.2743 37.106 40.1849 37.106 39.8009C37.106 39.5783 37.395 39.5056 38.1507 39.5386C39.1677 39.5828 39.1824 39.5935 38.6963 39.9467L38.1969 40.3098L38.6868 40.56C39.4735 40.9623 40.2314 40.8526 41.0298 40.2206C42.2492 39.2556 41.9107 38.3574 40.3278 38.3574C39.6052 38.3574 39.4406 38.2771 39.4406 37.9245C39.4406 37.6863 39.552 37.4259 39.6883 37.3454C39.9206 37.2082 41.8315 37.0352 43.2087 37.0265C44.1517 37.0207 44.2304 36.4139 43.3859 35.6603C42.9865 35.3039 42.5658 35.0122 42.4509 35.0122C42.336 35.0122 42.2422 34.8733 42.2422 34.7038C42.2422 34.2803 41.3704 34.0901 41.214 34.4795C41.1409 34.6615 40.7555 34.7892 40.2788 34.7892C39.8331 34.7892 39.4033 34.8896 39.3239 35.0122C39.2445 35.1349 38.972 35.2353 38.7183 35.2353C38.4645 35.2353 38.0025 35.3945 37.6917 35.5889C37.3807 35.7836 37.0249 35.8826 36.9005 35.8093C36.5681 35.613 35.8429 33.4291 35.8954 32.7822C35.9256 32.4104 35.7458 32.0911 35.3559 31.8239C34.7858 31.4332 34.7713 31.4348 34.7713 31.8797ZM44.5768 31.8429C44.5768 32.0324 44.638 32.1292 44.7127 32.0578C44.7872 31.9865 45.2189 32.0759 45.6718 32.2568C46.884 32.7405 46.8443 32.4947 45.6235 31.9582C44.7316 31.5663 44.5768 31.5492 44.5768 31.8429ZM34.306 32.2804C34.3051 32.4338 34.0943 32.5592 33.8374 32.5592C33.5806 32.5592 33.3705 32.6564 33.3705 32.7753C33.3705 32.8939 33.5204 32.9363 33.7037 32.8691C33.9469 32.7799 34.0025 32.872 33.9098 33.2106C33.7557 33.7741 34.1886 33.8261 34.5192 33.2839C34.9581 32.5641 34.7769 33.2993 34.2677 34.304C33.6939 35.4362 33.8739 36.0158 34.7991 36.0158C35.1049 36.0158 35.4932 36.1012 35.6624 36.2053C35.8315 36.3097 36.0304 36.3371 36.1044 36.2664C36.1784 36.1957 36.0663 36.0744 35.8553 35.9973C35.6442 35.9199 35.4717 35.6726 35.4717 35.4476C35.4717 35.2225 35.3764 34.9824 35.2599 34.9137C35.1437 34.8448 35.1056 34.9982 35.1759 35.2544C35.2824 35.6436 35.2114 35.708 34.7456 35.6451C34.2997 35.5849 34.2042 35.4583 34.2703 35.0143C34.3156 34.7085 34.5455 34.2001 34.7813 33.8838C35.1981 33.3247 35.1974 33.2911 34.7587 32.6553C34.5105 32.2958 34.3067 32.1272 34.306 32.2804ZM39.1605 33.1744C37.2136 34.194 37.2477 34.3961 39.2071 33.4512C40.0035 33.0672 40.7025 32.7982 40.7604 32.8533C40.8181 32.9086 40.4683 33.2663 39.9832 33.6486C39.4978 34.0306 39.1978 34.3432 39.3162 34.3432C39.4348 34.3432 39.8254 34.0745 40.1842 33.7462C40.9855 33.013 41.2602 33.166 40.5942 33.9746C40.3264 34.3 40.1935 34.5644 40.2991 34.5624C40.4048 34.5602 40.7289 34.2342 41.0195 33.8377C41.479 33.2108 41.5021 33.0848 41.1981 32.8716C41.006 32.7369 40.917 32.5612 41.0006 32.4813C41.3681 32.1303 40.6063 32.4173 39.1605 33.1744ZM44.0483 32.6597C43.8253 32.8154 43.643 32.9945 43.643 33.0578C43.643 33.3673 44.8463 35.7212 44.9527 35.6197C45.02 35.5553 44.7984 34.9808 44.4601 34.3432C44.1218 33.7056 43.8954 33.1359 43.9568 33.0772C44.0182 33.0186 44.5173 33.5788 45.066 34.322C45.6148 35.0653 46.1077 35.6315 46.1611 35.5802C46.2146 35.5292 45.8278 34.9126 45.3011 34.2099C44.1118 32.6236 44.0887 32.3326 45.2189 33.172C46.4686 34.1004 46.9423 34.283 45.9776 33.4646C44.7795 32.4481 44.5115 32.3362 44.0483 32.6597ZM39.4229 35.8485L38.8569 36.4618L39.499 35.9212C39.852 35.6237 40.141 35.3479 40.141 35.308C40.141 35.1329 39.9519 35.2754 39.4229 35.8485ZM41.3083 35.4344C41.3083 35.5439 41.4809 35.6967 41.6915 35.774C42.012 35.8916 42.0265 35.8588 41.7797 35.5749C41.4435 35.188 41.3083 35.1476 41.3083 35.4344ZM43.7434 36.5985C43.5211 36.9419 43.2767 36.8135 43.2389 36.3333C43.2092 35.9558 43.2638 35.9194 43.5368 36.1358C43.7207 36.2816 43.8136 36.4899 43.7434 36.5985ZM36.2888 36.5733C36.2095 36.696 36.2559 36.7963 36.3918 36.7963C36.5277 36.7963 36.639 36.696 36.639 36.5733C36.639 36.4506 36.5928 36.3503 36.5361 36.3503C36.4793 36.3503 36.3682 36.4506 36.2888 36.5733ZM41.7753 36.6848C42.0262 36.9736 41.9263 37.0184 41.045 37.0122C40.0969 37.0057 40.0565 36.9819 40.4774 36.6777C41.0534 36.2615 41.4092 36.2635 41.7753 36.6848ZM30.8673 37.0751C30.4697 37.5664 30.2867 38.0394 30.6684 37.59C30.8703 37.352 31.1671 37.0775 31.3277 36.9801C31.5184 36.8643 31.5285 36.8019 31.3562 36.7997C31.2114 36.7979 30.9915 36.9219 30.8673 37.0751ZM38.6625 37.3911C38.5768 37.4727 38.5067 37.6433 38.5067 37.7702C38.5067 37.9098 38.6155 37.8966 38.7829 37.7367C38.9349 37.5916 39.005 37.421 38.9387 37.3576C38.8724 37.2941 38.7479 37.3092 38.6625 37.3911ZM35.4717 37.9114C35.2614 38.0411 35.2324 38.1288 35.3996 38.131C35.5525 38.1328 35.7425 38.034 35.8219 37.9114C36.001 37.6344 35.9202 37.6344 35.4717 37.9114ZM36.869 39.6397C36.8734 39.9907 36.3528 40.0018 35.9935 39.6586C35.7864 39.4608 35.8168 39.3321 36.1203 39.1201C36.5398 38.8272 36.8613 39.0505 36.869 39.6397ZM34.6055 39.4724C34.5383 39.7177 34.4431 39.9184 34.3938 39.9184C34.3448 39.9184 34.3044 39.7177 34.3044 39.4724C34.3044 39.2271 34.3996 39.0264 34.5159 39.0264C34.6324 39.0264 34.6726 39.2271 34.6055 39.4724ZM39.7908 39.8343C39.1138 40.399 39.11 40.413 39.6741 40.2527C40.3551 40.0591 40.8414 39.7226 40.8414 39.4452C40.8414 39.1085 40.5164 39.2289 39.7908 39.8343ZM30.4732 41.6804C30.2082 41.9601 30.1569 42.1545 30.3219 42.252C30.7767 42.5205 31.3522 43.8097 31.3212 44.4901C31.2922 45.1183 31.3039 45.1277 31.5114 44.6428C31.6709 44.2704 31.6305 43.9381 31.3674 43.4518C30.9766 42.7301 31.0821 42.0517 31.5614 42.204C31.7218 42.2551 31.9193 42.5896 32.0005 42.9473C32.1453 43.5865 32.1483 43.5876 32.1756 43.0149C32.202 42.4587 31.4358 41.2565 31.055 41.2565C30.956 41.2565 30.6941 41.4471 30.4732 41.6804ZM31.3436 41.6247C31.539 41.8115 30.7522 42.3682 30.5017 42.2203C30.3978 42.159 30.4359 41.9672 30.5862 41.7941C30.8848 41.4505 31.1087 41.4003 31.3436 41.6247ZM39.6731 42.1498C39.3984 42.5185 39.2214 42.995 39.28 43.2091C39.364 43.5164 39.3921 43.4986 39.4135 43.1235C39.4535 42.4259 40.0026 42.0551 40.37 42.4779C40.53 42.6619 40.7683 42.7493 40.8995 42.6717C41.0387 42.5896 40.9058 42.349 40.5813 42.0959C40.2092 41.8053 40.1599 41.7049 40.4328 41.7932C41.5308 42.1487 41.6163 42.1545 41.0749 41.8374C40.2848 41.3742 40.2444 41.3834 39.6731 42.1498ZM40.0287 43.919C39.9435 44.1754 39.7777 44.3282 39.6598 44.2588C39.5422 44.1892 39.5137 44.301 39.5963 44.5068C39.7217 44.8188 39.802 44.7802 40.0789 44.2756C40.2615 43.9426 40.3598 43.6212 40.2974 43.5615C40.2349 43.5017 40.1139 43.6627 40.0287 43.919ZM31.8642 44.8803C31.9723 45.1517 31.9055 45.2706 31.6445 45.2706C31.1673 45.2706 31.1717 45.3101 31.7503 46.2467L32.2312 47.0255L33.1805 46.7054C34.4244 46.2864 35.941 46.3007 37.6072 46.7471C39.1485 47.1604 39.5639 47.0823 39.7299 46.3482C39.7945 46.0621 39.9234 45.6274 40.0163 45.3821C40.1389 45.0581 40.1223 45.0202 39.9556 45.2434C39.7072 45.5761 39.1126 45.3743 39.3339 45.0322C39.4077 44.918 39.3682 44.8246 39.2459 44.8246C38.8138 44.8246 38.7715 45.4495 39.1964 45.5556C39.5123 45.6346 39.5905 45.8105 39.5032 46.2465C39.3673 46.9253 39.2118 46.947 37.6684 46.4996C36.2676 46.0937 34.2474 46.0821 33.1002 46.4735C32.2823 46.7527 32.2352 46.7413 31.98 46.2068C31.6534 45.5217 31.8553 45.3003 33.0502 45.0356C34.0826 44.8068 36.95 44.7961 37.779 45.0179C38.2826 45.1529 38.2992 45.1955 37.9541 45.4691C37.7445 45.6352 37.5729 45.8716 37.5729 45.9943C37.5729 46.1187 37.7277 46.0944 37.9231 45.9396C38.21 45.7122 38.2733 45.7276 38.2733 46.0239C38.2733 46.2229 38.3592 46.3856 38.4643 46.3856C38.5693 46.3856 38.6552 46.0844 38.6552 45.716C38.6552 45.1381 38.5411 45.0159 37.8222 44.825C36.7803 44.5487 33.9591 44.5356 32.9841 44.8025C32.4833 44.9397 32.1644 44.9221 31.9795 44.7468C31.7745 44.5525 31.7465 44.5851 31.8642 44.8803ZM34.0709 45.5164C34.0709 45.86 34.1988 45.9532 34.5962 45.8995C35.2357 45.8127 35.2144 45.466 34.5551 45.2331C34.165 45.0951 34.0709 45.1502 34.0709 45.5164ZM35.5086 45.4936C35.5086 45.8003 35.5616 45.9258 35.6263 45.7724C35.6912 45.6192 35.6912 45.3683 35.6263 45.2149C35.5616 45.0617 35.5086 45.187 35.5086 45.4936ZM36.3563 45.3045C36.1847 45.7204 36.336 45.9396 36.7948 45.9396C36.9668 45.9396 37.0987 45.7151 37.0896 45.4379C37.074 44.9622 37.0635 44.9593 36.8877 45.3821L36.7021 45.8281L36.6052 45.3821C36.5221 44.999 36.487 44.9881 36.3563 45.3045ZM32.5823 45.449C32.5188 45.5471 32.6477 45.7351 32.8686 45.8669C33.1952 46.0618 33.2704 46.0284 33.2704 45.6888C33.2704 45.2724 32.802 45.1094 32.5823 45.449ZM8.79503 56.9228C8.05261 57.4613 7.90926 58.3083 8.40398 59.2354C8.79363 59.9655 8.81114 60.1283 8.52841 60.3984C8.24569 60.6684 8.12382 60.6617 7.65899 60.3509C7.36179 60.1519 6.7926 59.9891 6.39407 59.9891C4.93772 59.9891 4.10215 61.7919 5.08924 62.8039C5.51321 63.2388 5.51321 63.2624 5.08924 63.7626C3.6637 65.4444 6.01119 67.6789 7.66086 66.2108C8.17004 65.7577 8.19783 65.7559 8.51441 66.1551C8.93301 66.6829 8.93207 66.788 8.50647 67.1254C8.30755 67.2831 8.15627 67.7694 8.15627 68.2516C8.15627 69.8169 9.94555 70.5657 11.0851 69.477C11.7855 68.8082 11.831 67.8412 11.1981 67.0728C10.7638 66.5453 10.7603 66.4945 11.1397 66.1685C11.5042 65.8554 11.5929 65.8629 12.0927 66.2512C12.859 66.8464 13.8909 66.7971 14.5871 66.1319C15.2952 65.4557 15.3269 64.536 14.6655 63.8634L14.1708 63.3606L14.6655 62.7598C15.2898 62.0016 15.2933 61.3259 14.6763 60.5768C14.0802 59.8529 12.9239 59.7871 12.0701 60.4287C11.5179 60.8435 11.4647 60.8468 11.1234 60.4844C10.7956 60.1363 10.8035 60.0516 11.21 59.5741C11.8723 58.7963 11.7962 57.6721 11.0431 57.1063C10.3506 56.5858 9.36982 56.5058 8.79503 56.9228ZM58.733 57.1063C57.9876 57.6663 57.9021 58.7931 58.5472 59.5543C58.9401 60.0177 58.945 60.0922 58.6055 60.4307C58.2602 60.775 58.196 60.7726 57.6777 60.395C56.8408 59.7851 55.6847 59.8665 55.0998 60.5768C54.8337 60.8999 54.6158 61.3881 54.6158 61.6617C54.6158 61.9353 54.8337 62.4235 55.0998 62.7466L55.5836 63.3343L55.0998 63.9219C54.4578 64.7013 54.4886 65.4631 55.189 66.1319C55.8852 66.7971 56.9171 66.8464 57.6834 66.2512C58.1832 65.8629 58.2719 65.8554 58.6364 66.1685C59.0157 66.4945 59.0122 66.5453 58.578 67.0728C57.9451 67.8412 57.9906 68.8082 58.691 69.477C59.411 70.165 60.244 70.1743 61.0597 69.5042C61.7933 68.9014 61.8916 67.7817 61.2687 67.1243C60.946 66.784 60.9344 66.6504 61.193 66.2548C61.571 65.6765 61.674 65.6743 62.2035 66.2334C62.4568 66.5007 62.9225 66.6794 63.3664 66.6794C64.8549 66.6794 65.6606 64.9114 64.6924 63.7691C64.2755 63.2774 64.2755 63.2506 64.6924 62.8523C65.2974 62.2745 65.2546 61.0168 64.6107 60.4439C63.9951 59.8959 62.8602 59.8535 62.1171 60.3509C61.6228 60.6814 61.5446 60.682 61.2052 60.3578C60.8657 60.0335 60.8676 59.9675 61.2269 59.5882C61.4449 59.358 61.6198 58.8092 61.6198 58.3547C61.6198 56.8061 60.0411 56.1233 58.733 57.1063ZM10.4076 58.0965C10.5442 58.4366 10.1283 59.0971 9.77769 59.0971C9.51597 59.0971 9.26103 58.259 9.43893 57.9841C9.65838 57.6449 10.254 57.714 10.4076 58.0965ZM60.4562 58.0945C60.4896 58.2771 60.3507 58.6901 60.2272 58.8741C60.0297 59.168 59.9552 59.1633 59.6118 58.8357C59.3883 58.6221 59.2845 58.3052 59.3692 58.0945C59.5464 57.6534 60.3703 57.6244 60.4562 58.0945ZM23.098 60.9927C23.098 61.4634 23.2071 61.5502 23.7984 61.5502H24.4988V63.5573V65.5643H25.1992H25.8996V63.5573V61.5502H26.6C27.1914 61.5502 27.3004 61.4634 27.3004 60.9927C27.3004 60.4394 27.2848 60.4352 25.1992 60.4352C23.1137 60.4352 23.098 60.4394 23.098 60.9927ZM31.7363 62.9997V65.5643H32.57H33.4037L33.3287 63.5568L33.2538 61.5491L34.3627 61.5497C35.3902 61.5502 35.4717 61.5092 35.4717 60.9927C35.4717 60.4445 35.4407 60.4352 33.604 60.4352H31.7363V62.9997ZM42.4757 60.6296C42.4757 60.7367 42.0732 60.8856 41.5813 60.9608C40.4686 61.1307 39.9038 61.7061 39.746 62.8307C39.5959 63.8998 40.3229 64.8222 41.4834 65.0349C42.1766 65.162 42.2422 65.1257 42.2422 64.6148C42.2422 64.2428 42.0855 64.0162 41.7753 63.9386C40.9245 63.7261 41.278 61.9962 42.1722 61.9962C42.3974 61.9962 42.4757 62.485 42.4757 63.8918V65.7873H43.2928H44.1099V63.8918C44.1099 62.485 44.1881 61.9962 44.4134 61.9962C45.3029 61.9962 45.6468 63.6382 44.8103 63.8918C44.5038 63.9848 44.3434 64.2292 44.3434 64.6036C44.3434 65.1281 44.4043 65.1625 45.1014 65.0293C46.266 64.8068 46.7948 64.165 46.7948 62.9739C46.7948 61.7997 46.2422 61.2137 44.9105 60.9751C44.4702 60.8961 44.1099 60.7422 44.1099 60.6334C44.1099 60.5244 43.7422 60.4352 43.2928 60.4352C42.8434 60.4352 42.4757 60.5226 42.4757 60.6296ZM10.3382 62.0341C9.9731 62.4195 9.9208 62.4222 9.51737 62.0734C9.11394 61.7246 9.11114 61.6746 9.47628 61.2893C9.84142 60.9039 9.89372 60.9012 10.2971 61.25C10.7006 61.5988 10.7034 61.6488 10.3382 62.0341ZM60.2998 62.0341C59.9347 62.4195 59.8824 62.4222 59.4789 62.0734C59.0755 61.7246 59.0727 61.6746 59.4378 61.2893C59.803 60.9039 59.8553 60.9012 60.2587 61.25C60.6621 61.5988 60.6649 61.6488 60.2998 62.0341ZM6.95953 61.4048C7.15821 61.6334 7.11712 61.7951 6.78816 62.0794C6.40365 62.4119 6.32287 62.4159 6.06255 62.1162C5.71586 61.7172 5.9017 61.1042 6.36933 61.1042C6.55026 61.1042 6.81595 61.2395 6.95953 61.4048ZM13.9154 61.4561C13.9931 61.6494 13.8848 61.9721 13.6747 62.1728C13.3208 62.5107 13.2638 62.5102 12.904 62.1666C12.583 61.8602 12.5678 61.7355 12.8158 61.4498C13.2031 61.0043 13.7352 61.0072 13.9154 61.4561ZM56.8146 61.2395C57.2846 61.4117 57.2881 61.8591 56.8221 62.2286C56.5237 62.465 56.3951 62.4531 56.0897 62.1617C55.8859 61.967 55.7829 61.6494 55.8607 61.4561C56.0129 61.0772 56.2345 61.0268 56.8146 61.2395ZM63.8711 61.4416C63.9458 61.6271 63.8748 61.9306 63.7135 62.1162C63.4532 62.4159 63.3724 62.4119 62.9879 62.0794C62.659 61.7951 62.6179 61.6334 62.8166 61.4048C63.1644 61.0045 63.703 61.0232 63.8711 61.4416ZM12.0666 63.7087C11.6972 64.0617 11.6447 64.0606 11.2175 63.6915C10.7916 63.3233 10.7874 63.2725 11.1519 62.9012C11.5252 62.5207 11.5607 62.5214 12.001 62.9183C12.4322 63.3068 12.4362 63.3557 12.0666 63.7087ZM58.5939 63.6476C58.1491 64.0726 58.0954 64.0773 57.7258 63.7243C57.3563 63.3715 57.3586 63.32 57.7627 62.8934C58.1692 62.4643 58.2182 62.4601 58.631 62.8167C59.0578 63.1855 59.0568 63.2056 58.5939 63.6476ZM8.63301 63.0109C8.88095 63.2966 8.86577 63.4212 8.54476 63.7276C8.18242 64.074 8.13012 64.074 7.76778 63.7276C7.44677 63.4212 7.43159 63.2966 7.67953 63.0109C7.84483 62.8209 8.05938 62.6652 8.15627 62.6652C8.25316 62.6652 8.46771 62.8209 8.63301 63.0109ZM62.0965 63.0109C62.3445 63.2966 62.3293 63.4212 62.0083 63.7276C61.646 64.074 61.5937 64.074 61.2313 63.7276C60.9103 63.4212 60.8951 63.2966 61.1431 63.0109C61.3084 62.8209 61.5229 62.6652 61.6198 62.6652C61.7167 62.6652 61.9312 62.8209 62.0965 63.0109ZM6.95953 65.2637C6.81595 65.429 6.55026 65.5643 6.36933 65.5643C5.9017 65.5643 5.71586 64.9513 6.06255 64.5523C6.32287 64.2526 6.40365 64.2566 6.78816 64.5891C7.11712 64.8735 7.15821 65.0351 6.95953 65.2637ZM10.3382 65.3792C9.9731 65.7646 9.9208 65.7673 9.51737 65.4185C9.11394 65.0697 9.11114 65.0197 9.47628 64.6344C9.84142 64.249 9.89372 64.2464 10.2971 64.5951C10.7006 64.9439 10.7034 64.9939 10.3382 65.3792ZM13.7569 64.5579C14.0996 64.9524 13.91 65.5643 13.4452 65.5643C13.2643 65.5643 12.9855 65.4138 12.8256 65.2298C12.5937 64.9629 12.5937 64.8277 12.8256 64.5608C13.1909 64.1402 13.3936 64.1395 13.7569 64.5579ZM56.9505 64.5608C57.1823 64.8277 57.1823 64.9629 56.9505 65.2298C56.5695 65.6683 56.1033 65.6555 55.9209 65.2015C55.778 64.846 56.1355 64.2263 56.4836 64.2263C56.5805 64.2263 56.7906 64.3768 56.9505 64.5608ZM60.4562 64.565C60.6969 64.8422 60.674 64.9843 60.3302 65.3474C59.9361 65.7633 59.8828 65.7677 59.4789 65.4185C59.0762 65.0704 59.0734 65.0191 59.4362 64.6362C59.908 64.1382 60.0752 64.1264 60.4562 64.565ZM63.7184 64.5579C64.2928 65.2189 63.4864 65.92 62.8506 65.3128C62.655 65.1259 62.6573 64.9535 62.86 64.6438C63.1896 64.1395 63.3419 64.1244 63.7184 64.5579ZM10.3735 68.0154C10.5509 68.5493 10.3546 68.9095 9.88625 68.9095C9.47605 68.9095 9.2204 68.3731 9.40811 67.9059C9.60095 67.4256 10.2003 67.4936 10.3735 68.0154ZM60.4161 68.1153C60.5216 68.636 60.1611 68.9599 59.6743 68.7814C59.216 68.6133 59.1712 68.2154 59.5683 67.8363C59.9333 67.4875 60.314 67.6129 60.4161 68.1153Z" fill="white"/>
</svg>
