<svg width="24" height="24" viewBox="0 0 24 24" fill="none" xmlns="http://www.w3.org/2000/svg">
<path fill-rule="evenodd" clip-rule="evenodd" d="M13.8944 1.01028C13.4345 1.06598 6.35677 2.41676 6.1149 2.49504C5.21993 2.7847 4.49862 3.5394 4.18269 4.51665C3.99229 5.10566 3.99805 5.60787 4.21019 6.90962C4.30869 7.51431 4.41032 8.06653 4.43601 8.13676C4.5194 8.36484 4.72668 8.41697 4.91691 8.25765C5.05749 8.13992 5.05999 8.0412 4.94002 7.34321C4.77005 6.3546 4.87087 6.05203 5.42996 5.87241C5.74055 5.77264 5.81232 5.7359 6.12041 5.51913C6.34933 5.35802 6.60751 4.95632 6.71074 4.60057C6.77683 4.37271 6.79512 4.19653 6.7875 3.86167C6.77842 3.46372 6.78712 3.40756 6.8789 3.27027C7.07197 2.98167 7.20003 2.9486 10.6242 2.30361C12.3873 1.97149 13.9393 1.6987 14.073 1.69737C14.5254 1.69297 14.9598 2.01611 15.0972 2.45931C15.1424 2.60522 16.4762 10.5898 16.4762 10.7147C16.4762 10.7683 16.3783 10.7806 15.9491 10.781C15.3492 10.7816 15.1034 10.8372 14.7075 11.0612C14.0327 11.4433 13.6176 12.1922 13.6235 13.0172C13.6254 13.2901 13.6202 13.3057 13.5341 13.2836C13.4838 13.2707 11.7096 12.9362 9.59145 12.5402C7.47331 12.1442 5.72531 11.8063 5.70698 11.7894C5.68865 11.7724 5.58788 11.2448 5.4831 10.6168C5.30814 9.56857 5.28331 9.46646 5.18051 9.37187C5.0414 9.24383 4.9451 9.24177 4.79944 9.36376C4.64978 9.48905 4.65219 9.56852 4.8395 10.6931C4.92388 11.1998 4.98214 11.6258 4.96898 11.6398C4.95581 11.6538 4.54238 11.5899 4.05025 11.4977C3.55812 11.4056 3.09929 11.3302 3.0307 11.3302C2.96211 11.3302 2.82115 11.374 2.71744 11.4274C2.34515 11.6192 2.39068 11.429 1.64923 15.8911C1.22543 18.4414 0.987431 19.9837 1.00051 20.0945C1.02573 20.3081 1.19548 20.5794 1.37423 20.6918C1.46713 20.7502 3.32769 21.1168 7.59496 21.9175C14.253 23.1667 13.8554 23.1104 14.1522 22.8446C14.3336 22.682 14.3929 22.5435 14.4726 22.0961C14.5102 21.8851 14.5484 21.7045 14.5575 21.6948C14.5666 21.6852 14.6777 21.7612 14.8043 21.8636C15.1143 22.1144 15.6398 22.3851 16.1105 22.5364C16.4594 22.6485 16.5658 22.6612 17.1862 22.664C18.0002 22.6677 18.3536 22.5874 19.0099 22.2495C19.6112 21.9399 19.7328 21.7601 19.5282 21.4831C19.4085 21.3211 19.2813 21.3291 18.9352 21.5205C17.9016 22.0921 16.875 22.1584 15.8782 21.7179C14.3952 21.0626 13.5099 19.3707 13.7817 17.7111C13.9337 16.7829 14.3786 15.9566 15.0021 15.4445L15.2358 15.2525L16.1465 15.2456C17.2084 15.2375 17.4415 15.1809 17.892 14.8215C18.0299 14.7116 18.0499 14.7081 18.2362 14.7609C18.5413 14.8473 19.006 15.1045 19.3317 15.3672C19.7274 15.6864 20.0932 16.1661 20.3227 16.667C20.6082 17.2902 20.6687 17.5714 20.6676 18.2703C20.6665 19.0206 20.5951 19.3421 20.2769 20.0311C20.0501 20.522 20.0387 20.5624 20.0961 20.6713C20.1298 20.7352 20.2064 20.8169 20.2664 20.8526C20.438 20.9552 20.5952 20.8467 20.7891 20.492C21.1101 19.9046 21.2814 19.2802 21.324 18.5418C21.4263 16.7711 20.5002 15.1135 18.9736 14.3346C18.8093 14.2508 18.6366 14.1716 18.5898 14.1585C18.5063 14.1353 18.5067 14.1297 18.6065 13.8663C18.6772 13.6798 18.8937 12.4774 19.3145 9.93303C19.6478 7.91743 19.9408 6.16005 19.9657 6.0278L20.0108 5.7873L20.4057 5.78661C21.2383 5.78519 21.939 5.45244 22.3603 4.85838C22.6825 4.404 22.7739 4.13451 22.9307 3.17618C23.0357 2.53476 23.0257 2.36417 22.8706 2.14767C22.6615 1.85578 22.6138 1.84762 21.1169 1.84845C20.1384 1.84895 19.7004 1.86609 19.5217 1.91089C19.2152 1.98762 18.8377 2.22514 18.639 2.46614C18.2982 2.87947 18.2893 2.91805 17.6803 6.61187C17.3709 8.48889 17.1036 10.0623 17.0864 10.1083C17.0678 10.158 16.7963 8.6298 16.4177 6.34416C16.0672 4.22791 15.7524 2.39683 15.7183 2.27512C15.4967 1.48472 14.6762 0.915683 13.8944 1.01028ZM22.3713 2.57319C22.3713 2.79459 22.13 3.92122 22.0438 4.10226C21.9084 4.38678 21.6348 4.70607 21.402 4.85137C21.0423 5.07575 20.8813 5.09916 19.6927 5.09966C19.0833 5.09994 18.5847 5.09348 18.5847 5.08532C18.5847 4.96503 18.9003 3.27879 18.9363 3.20683C19.0885 2.90243 19.2904 2.72056 19.6123 2.59812C19.791 2.53013 22.3713 2.50686 22.3713 2.57319ZM6.16972 3.30216C6.15225 3.37146 6.1415 3.61004 6.1458 3.83235C6.16095 4.61243 5.92415 4.97992 5.2587 5.20928C5.09759 5.2648 4.9028 5.34593 4.8259 5.38963L4.68606 5.46897V5.32554C4.68606 4.84528 4.97264 4.19704 5.37337 3.77069C5.59132 3.53885 6.07428 3.18626 6.18599 3.17742C6.19451 3.17673 6.18715 3.23285 6.16972 3.30216ZM12.0903 4.53373C11.9858 4.67515 11.9887 4.64445 12.0478 4.98866C12.0745 5.14455 12.1328 5.30447 12.1843 5.36357C12.3342 5.53526 12.6118 5.47827 12.6899 5.25981C12.7445 5.10685 12.6557 4.60598 12.5549 4.49869C12.4324 4.36823 12.1996 4.38577 12.0903 4.53373ZM10.4558 5.30273C10.2 5.54465 10.0414 5.57168 9.76357 5.42083C9.5526 5.30626 9.50122 5.30635 9.36348 5.42174C9.13086 5.61652 9.21318 5.89862 9.5557 6.08034C10.062 6.34892 10.7493 6.13879 10.9938 5.64071C11.0746 5.47598 11.0703 5.35926 10.9792 5.2446C10.8307 5.05779 10.6995 5.07236 10.4558 5.30273ZM7.58485 5.35408C7.48553 5.45977 7.47822 5.49261 7.5055 5.7091C7.56544 6.1846 7.72934 6.3918 7.96884 6.29482C8.11979 6.23376 8.18184 6.12597 8.1793 5.92931C8.17177 5.34854 7.86703 5.05362 7.58485 5.35408ZM19.3112 6.00489C19.2912 6.12455 19.0041 7.85531 18.6732 9.85103C18.0195 13.7931 18.0267 13.7621 17.6851 14.1151C17.3202 14.4921 16.8822 14.6089 15.9814 14.5697C15.208 14.536 14.8607 14.3849 14.5625 13.9522C14.1093 13.2945 14.1842 12.4224 14.7404 11.8812C15.1255 11.5065 15.2803 11.4676 16.3894 11.4676C17.3113 11.4676 17.3345 11.4653 17.4472 11.3621C17.5581 11.2606 17.5791 11.1562 18.0079 8.57923C18.2529 7.10665 18.4539 5.87608 18.4545 5.84456C18.4553 5.80251 18.5741 5.7873 18.9015 5.7873H19.3475L19.3112 6.00489ZM10.5609 8.4232C9.18887 8.68372 8.02186 8.91845 7.96747 8.94483C7.83153 9.01075 7.76682 9.20512 7.82818 9.36289C7.93033 9.62546 7.8805 9.62991 10.6594 9.10842C12.0718 8.84332 13.2791 8.60429 13.3421 8.57721C13.4906 8.51345 13.5689 8.31926 13.5112 8.15769C13.4598 8.0139 13.3415 7.93868 13.1765 7.94496C13.1099 7.94748 11.9328 8.16273 10.5609 8.4232ZM10.7815 10.0275C9.26783 10.3153 8.25189 10.529 8.18894 10.573C8.10946 10.6284 8.08541 10.6859 8.08541 10.8203C8.08541 11.0379 8.2049 11.1671 8.39936 11.1599C8.60104 11.1524 13.4655 10.2356 13.5984 10.1801C13.7093 10.1338 13.8084 9.97196 13.8084 9.83715C13.8084 9.69839 13.6068 9.54333 13.4338 9.54896C13.344 9.5519 12.1504 9.76724 10.7815 10.0275ZM8.35878 13.0031C11.2496 13.5453 13.6653 13.9998 13.7272 14.0132C13.8018 14.0293 13.8863 14.114 13.978 14.2647C14.054 14.3897 14.2189 14.5862 14.3444 14.7016L14.5725 14.9112L14.2858 15.2165C14.1282 15.3844 13.8933 15.6922 13.7639 15.9005C13.5526 16.2408 13.523 16.271 13.4733 16.1983C13.0585 15.5924 12.8046 15.367 12.3926 15.2396C12.0865 15.1448 11.6214 15.1751 11.3395 15.3081C11.2241 15.3626 10.3373 15.9972 9.3689 16.7183C8.40048 17.4394 7.60223 18.0218 7.595 18.0124C7.58777 18.0031 7.47417 17.8305 7.34254 17.629C7.21092 17.4274 7.05773 17.2171 7.00214 17.1617C6.74228 16.9025 6.23147 16.7917 5.87467 16.9171C5.78719 16.9478 4.80374 17.6521 3.68923 18.4823C2.57471 19.3124 1.6559 19.9841 1.64747 19.9752C1.61799 19.9438 2.92958 12.1315 2.97386 12.0746C2.99839 12.0431 3.03741 12.0173 3.06061 12.0173C3.0838 12.0173 5.46799 12.461 8.35878 13.0031ZM4.94992 12.981C4.31307 13.1207 3.80653 13.6934 3.70063 14.3934C3.5622 15.3083 4.18708 16.2028 5.04566 16.3187C5.72032 16.4098 6.35036 16.0754 6.65656 15.4638C7.05816 14.6617 6.82214 13.6818 6.11594 13.2192C5.76477 12.9892 5.32354 12.899 4.94992 12.981ZM5.74153 13.7793C5.98013 13.9282 6.09021 14.0798 6.17153 14.3712C6.3708 15.0856 5.78594 15.7692 5.09333 15.6314C4.40507 15.4945 4.09926 14.6496 4.51618 14.0369C4.79393 13.6287 5.32217 13.5177 5.74153 13.7793ZM12.4602 16.016C12.5729 16.0918 12.7468 16.301 12.9421 16.596L13.2476 17.0574L13.1795 17.389C13.0702 17.9216 13.0804 18.821 13.2014 19.3239C13.3172 19.8051 13.5618 20.3877 13.8114 20.7771L13.9879 21.0522L13.8913 21.6465C13.7945 22.242 13.7325 22.392 13.5995 22.3521C13.5605 22.3404 12.7348 22.1828 11.7645 22.0019C10.7941 21.821 9.99809 21.6701 9.99546 21.6666C9.9103 21.5528 7.99935 18.6185 7.99935 18.6015C7.99935 18.5672 11.3842 16.0476 11.5708 15.943C11.7895 15.8205 12.222 15.856 12.4602 16.016ZM16.107 16.1108C15.8585 16.197 15.6684 16.3594 15.5361 16.5983L15.422 16.8044V18.2932C15.422 19.7407 15.4246 19.7872 15.5169 19.9709C15.6977 20.3308 16.0255 20.5378 16.4144 20.5378C16.6227 20.5378 16.755 20.4785 17.892 19.875C18.644 19.4759 19.2086 19.1471 19.3112 19.0484C19.5857 18.7844 19.6847 18.3448 19.556 17.961C19.4233 17.5651 19.3506 17.5109 17.9687 16.7789C16.5872 16.0472 16.4414 15.9949 16.107 16.1108ZM17.6341 17.3529C18.274 17.6923 18.8367 18.0118 18.8847 18.0629C18.9895 18.1745 18.9975 18.3714 18.903 18.515C18.8106 18.6554 16.5577 19.8507 16.3855 19.8507C16.3066 19.8507 16.2164 19.8074 16.1516 19.7382L16.0459 19.6258V18.3433C16.0459 17.4982 16.0623 17.0224 16.0939 16.9487C16.1435 16.8328 16.2719 16.7442 16.3982 16.7388C16.4381 16.7371 16.9943 17.0134 17.6341 17.3529ZM6.55037 17.6633C6.6622 17.7732 9.08826 21.4553 9.06511 21.48C9.05251 21.4933 2.57329 20.2852 2.48913 20.2538C2.4689 20.2463 3.07451 19.7763 3.83488 19.2094C6.12144 17.5047 6.03982 17.5602 6.25604 17.5602C6.39275 17.5602 6.47468 17.589 6.55037 17.6633Z" fill="black"/>
</svg>
