<svg width="24" height="24" viewBox="0 0 24 24" fill="none" xmlns="http://www.w3.org/2000/svg">
<path fill-rule="evenodd" clip-rule="evenodd" d="M2.6077 3.05024C2.38149 3.13528 2.23934 3.25515 2.12099 3.46059L2.01336 3.64748L2.0032 11.2772C1.99456 17.7525 2.00144 18.9482 2.04869 19.1793C2.13768 19.6151 2.32442 19.9605 2.65824 20.3069C2.95785 20.6177 3.20427 20.7735 3.63533 20.9246C3.84341 20.9976 4.11152 21 11.9992 21C19.8869 21 20.155 20.9976 20.3631 20.9246C20.7942 20.7735 21.0406 20.6177 21.3402 20.3069C21.543 20.0965 21.6735 19.9178 21.7637 19.7272C22.0184 19.1892 22.0066 19.5607 21.9953 12.4306L21.9851 5.95489L21.8668 5.75962C21.7936 5.63871 21.6757 5.51836 21.5573 5.44361L21.3661 5.3229L20.5541 5.31005L19.7421 5.29721L19.7302 4.46907L19.7182 3.6409L19.6 3.44579C19.5267 3.325 19.4088 3.20469 19.2903 3.12994L19.099 3.00923L10.9275 3.00189C4.01557 2.99566 2.73308 3.00312 2.6077 3.05024ZM18.8482 11.117L18.8584 18.3273L18.9634 18.5304C19.1217 18.8366 19.3954 19.059 19.6954 19.1249C20.1338 19.2214 20.4022 19.061 20.4022 18.7024C20.4022 18.4578 20.2681 18.3092 19.9918 18.2475C19.9273 18.2331 19.8438 18.193 19.8062 18.1585C19.7416 18.0991 19.7378 17.7623 19.7378 12.158V6.22044H20.4217H21.1057V12.4779C21.1057 16.4877 21.0916 18.8109 21.0666 18.9459C20.9814 19.4044 20.7145 19.7503 20.2849 19.959L20.0309 20.0825H11.9992H3.96754L3.71349 19.959C3.28389 19.7503 3.01706 19.4044 2.93186 18.9459C2.90661 18.81 2.89274 16.103 2.89274 11.321V3.90677H10.8654H18.838L18.8482 11.117ZM4.86255 5.91727C4.75062 6.03152 4.72967 6.08134 4.72967 6.23333C4.72967 6.3798 4.75128 6.43581 4.84457 6.53103C4.90777 6.59553 5.01549 6.65976 5.08396 6.67372C5.30318 6.71848 16.5376 6.70288 16.6973 6.6576C16.8842 6.60467 17.0118 6.426 17.009 6.22124C17.0065 6.03898 16.9489 5.93367 16.8037 5.8461C16.7065 5.78751 16.1639 5.78164 10.8461 5.78164H4.99544L4.86255 5.91727ZM4.86634 8.22707C4.76336 8.33218 4.73201 8.40283 4.71149 8.57611C4.69735 8.69563 4.69125 9.8166 4.69793 11.0672C4.71122 13.5439 4.70043 13.4271 4.93126 13.5939C5.01361 13.6535 5.25722 13.6612 7.35925 13.6713C8.9097 13.6787 9.74722 13.6683 9.84887 13.6403C9.94807 13.6131 10.0337 13.5529 10.0919 13.4696L10.1818 13.341L10.1937 11.0073C10.2002 9.72385 10.1948 8.59778 10.1816 8.50491C10.1656 8.39194 10.1187 8.29632 10.0398 8.2157L9.92176 8.09531H7.4586H4.99544L4.86634 8.22707ZM11.6942 8.21327C11.58 8.32983 11.5371 8.46945 11.5619 8.64349C11.58 8.7703 11.7767 8.95743 11.9236 8.98739C12.0861 9.02054 16.4851 9.02054 16.6476 8.98739C16.7945 8.95743 16.9912 8.7703 17.0093 8.64349C17.0341 8.46945 16.9912 8.32983 16.877 8.21327L16.7614 8.09531H14.2856H11.8098L11.6942 8.21327ZM9.26336 10.8877V12.7625H7.44598H5.62859V10.8877V9.0128H7.44598H9.26336V10.8877ZM11.9117 10.3976C11.8529 10.4067 11.7517 10.4683 11.687 10.5343C11.5885 10.6348 11.5693 10.686 11.5693 10.8478C11.5693 11.0085 11.5887 11.0609 11.6842 11.1584C11.7474 11.2229 11.8551 11.2871 11.9236 11.3011C12.0861 11.3342 16.4851 11.3342 16.6476 11.3011C16.7161 11.2871 16.8238 11.2229 16.887 11.1584C16.9825 11.0609 17.0019 11.0085 17.0019 10.8478C17.0019 10.6871 16.9825 10.6347 16.8872 10.5373C16.8186 10.4674 16.7125 10.4101 16.6233 10.3951C16.4622 10.3679 12.0884 10.3702 11.9117 10.3976ZM11.892 12.7109C11.8439 12.7203 11.7515 12.7821 11.6869 12.8481C11.5885 12.9485 11.5693 12.9997 11.5693 13.1614C11.5693 13.3221 11.5887 13.3745 11.684 13.4719C11.7526 13.5418 11.8587 13.5991 11.9479 13.6141C12.1423 13.6469 16.4289 13.6469 16.6233 13.6141C16.7125 13.5991 16.8186 13.5418 16.8872 13.4719C16.9825 13.3745 17.0019 13.3221 17.0019 13.1614C17.0019 13.0007 16.9825 12.9484 16.887 12.8509C16.8238 12.7864 16.7161 12.7221 16.6476 12.7082C16.5115 12.6804 12.0341 12.6829 11.892 12.7109ZM5.05242 15.0246C5.00427 15.034 4.91191 15.0958 4.84723 15.1618C4.7512 15.2598 4.72967 15.3148 4.72967 15.4622C4.72967 15.6142 4.75062 15.664 4.86255 15.7783L4.99544 15.9139H7.4586H9.92176L10.042 15.7912C10.2813 15.547 10.179 15.129 9.85771 15.038C9.71747 14.9982 5.24963 14.9857 5.05242 15.0246ZM11.892 15.0246C11.7768 15.0472 11.578 15.2526 11.5619 15.3657C11.5371 15.5398 11.58 15.6794 11.6942 15.796L11.8098 15.9139H14.2856H16.7614L16.877 15.796C16.9912 15.6794 17.0341 15.5398 17.0093 15.3657C16.9912 15.2389 16.7945 15.0518 16.6476 15.0218C16.5115 14.994 12.0341 14.9966 11.892 15.0246ZM5.05242 17.3382C5.00427 17.3477 4.91191 17.4095 4.84723 17.4754C4.7512 17.5735 4.72967 17.6285 4.72967 17.7759C4.72967 17.9279 4.75062 17.9777 4.86255 18.092L4.99544 18.2276H7.42448C10.0588 18.2276 10.0059 18.2319 10.1225 18.0095C10.2514 17.7637 10.1372 17.4524 9.88503 17.3622C9.78728 17.3272 9.13923 17.3154 7.44598 17.3178C6.17771 17.3195 5.10061 17.3287 5.05242 17.3382ZM11.855 17.3541C11.6128 17.4256 11.477 17.7986 11.6124 18.02C11.7423 18.2322 11.6828 18.2276 14.2856 18.2276C16.8884 18.2276 16.8289 18.2322 16.9588 18.02C17.1003 17.7887 16.9583 17.4256 16.6973 17.3516C16.5136 17.2995 12.0319 17.3019 11.855 17.3541Z" fill="black"/>
</svg>
