<svg width="24" height="24" viewBox="0 0 24 24" fill="none" xmlns="http://www.w3.org/2000/svg">
<path fill-rule="evenodd" clip-rule="evenodd" d="M4.11908 2.04836C3.17127 2.261 2.41914 2.94785 2.10531 3.8874L2.01394 4.16102L2.00273 11.8222C1.99475 17.2851 2.00394 19.5561 2.03473 19.7366C2.22768 20.8673 3.1672 21.7911 4.30022 21.9639C4.51525 21.9968 6.81606 22.0055 12.9373 21.9969L21.2812 21.9851L21.4375 21.9005C21.6218 21.8009 21.8103 21.6093 21.9119 21.4183C21.982 21.2866 21.9851 21.0257 21.9949 14.4036C22.0061 6.82677 22.0218 7.33268 21.7655 7.02162C21.699 6.94094 21.554 6.82833 21.4433 6.77134C21.2512 6.67245 21.2087 6.66698 20.5059 6.65064L19.7697 6.63356L20.8232 5.57318C21.7868 4.60322 21.8825 4.49487 21.9454 4.30224C22.0248 4.05861 22.009 3.75572 21.9059 3.5498C21.8151 3.36832 20.6515 2.19959 20.4653 2.10281C20.2445 1.98809 19.9479 1.96776 19.694 2.04997C19.4952 2.1143 19.3562 2.24509 17.2159 4.38061L14.9484 6.64309H10.6418H6.3352L6.32406 4.67893C6.31312 2.75054 6.3114 2.71192 6.22843 2.55842C6.12865 2.37389 5.93688 2.18529 5.74624 2.08428C5.63197 2.02374 5.50659 2.01041 4.98415 2.00322C4.56593 1.99747 4.27943 2.0124 4.11908 2.04836ZM5.55384 2.77039L5.66808 2.88465V9.63226C5.66808 16.832 5.67511 16.5544 5.49045 16.6253C5.45567 16.6386 5.27476 16.6499 5.08842 16.6503C4.06463 16.6523 3.44914 16.8511 2.87018 17.3666L2.65746 17.556L2.66789 10.8976L2.67833 4.23919L2.78506 3.97266C3.0049 3.42367 3.40548 3.01149 3.91472 2.81018C4.22237 2.68854 4.38217 2.66517 4.9383 2.66044L5.43961 2.65614L5.55384 2.77039ZM20.7231 3.23268C21.0426 3.54976 21.3142 3.84914 21.3264 3.89792C21.3618 4.03903 21.2762 4.18799 21.0052 4.45664L20.7526 4.707L20.0209 3.97523L19.2893 3.24347L19.5427 2.98538C20.0011 2.51843 20.0037 2.51898 20.7231 3.23268ZM19.5522 4.4448C19.9335 4.82661 20.2455 5.15698 20.2455 5.1789C20.2455 5.20087 20.1398 5.32353 20.0105 5.45146L19.7755 5.68407L19.0439 4.95243L18.3124 4.22075L18.5449 3.98567C18.6728 3.85637 18.7958 3.7506 18.8182 3.7506C18.8406 3.7506 19.1709 4.06299 19.5522 4.4448ZM17.4905 7.97177L15.6731 9.78947L14.9404 9.05669L14.2077 8.32391L16.0246 6.5064L17.8415 4.68894L18.5747 5.42148L19.3079 6.15407L17.4905 7.97177ZM13.7826 7.81381C13.4882 8.11463 13.2973 8.34443 13.2466 8.45911C13.1589 8.65744 13.0678 9.25924 13.0291 9.89641L13.0036 10.3159L10.0945 10.3264L7.18546 10.3369L7.09116 10.4466C6.96793 10.5899 6.96856 10.7617 7.0928 10.8859C7.18585 10.979 7.20574 10.9818 7.75719 10.9818H8.32563V15.518C8.32563 20.3446 8.32137 20.2297 8.50326 20.2995C8.63922 20.3517 8.79969 20.3223 8.89407 20.2279L8.99002 20.1319V17.7262V15.3206H10.8269H12.6637V16.6691V18.0176H11.4309H10.198L10.1021 18.1136C9.97785 18.2378 9.97722 18.4096 10.1004 18.5529L10.1947 18.6626L13.6015 18.673C15.8749 18.6799 17.0586 18.6699 17.1595 18.6427C17.3506 18.5912 17.5438 18.4302 17.6128 18.265C17.6561 18.1616 17.6661 17.6413 17.6661 15.5143V12.8911L17.5519 12.7769C17.4037 12.6286 17.2642 12.6286 17.116 12.7769L17.0018 12.8911V13.7736V14.6561H12.9955H8.98924L8.9994 12.8287L9.00956 11.0014L11.7648 10.9786C14.7116 10.9542 15.1355 10.9281 15.5485 10.7463C15.692 10.6831 16.0912 10.3066 17.3932 9.00619L19.0548 7.34667H20.0953C21.0615 7.34667 21.1423 7.35199 21.228 7.42141L21.3203 7.49611L21.3304 14.3035L21.3405 21.1109L21.2259 21.2255L21.1113 21.3401L12.8328 21.3394C5.87759 21.3389 4.51286 21.33 4.29545 21.2839C3.20765 21.0533 2.46948 19.941 2.71413 18.9011C2.86944 18.2411 3.29093 17.7525 3.94848 17.4702C4.13611 17.3896 4.25035 17.3746 4.84736 17.352C5.64271 17.322 5.84648 17.2618 6.08101 16.9878C6.34438 16.68 6.33246 16.9219 6.33246 11.8933V7.34667H10.2862H14.2398L13.7826 7.81381ZM14.9993 10.2059C14.7254 10.2604 13.9177 10.3266 13.8216 10.3025C13.6738 10.2655 13.6613 10.1515 13.7336 9.50299C13.7688 9.18771 13.7975 8.91234 13.7973 8.89107C13.7972 8.86981 14.0963 9.15124 14.462 9.51648L15.1269 10.1805L14.9993 10.2059ZM17.0018 16.6691V18.0176H15.1649H13.3281V16.6691V15.3206H15.1649H17.0018V16.6691Z" fill="black"/>
</svg>
