<svg width="24" height="24" viewBox="0 0 24 24" fill="none" xmlns="http://www.w3.org/2000/svg">
<path fill-rule="evenodd" clip-rule="evenodd" d="M2.6535 2.06129C2.27313 2.19691 1.99942 2.59823 2.00042 3.01871C2.00117 3.34336 2.30979 3.80984 2.58058 3.89579L2.66667 3.92313V10.6283V17.3335H2.33333H2V19.6668V22H12H22V19.6668V17.3335H21.6667H21.3333V10.6283V3.92313L21.4194 3.89579C21.5575 3.85196 21.7892 3.62693 21.8863 3.44231C22.0109 3.20545 22.0105 2.79543 21.8853 2.55744C21.771 2.33999 21.5074 2.11217 21.2976 2.04929C20.919 1.93588 20.6031 2.02 20.3111 2.31199C20.012 2.6111 19.9301 2.94025 20.0625 3.31178C20.0948 3.40257 20.1136 3.48444 20.1043 3.49377C20.095 3.5031 19.8568 3.54423 19.5749 3.58518C16.3309 4.05662 10.3033 4.1382 6.08333 3.76784C5.12154 3.68343 3.87158 3.52381 3.87563 3.48594C3.87596 3.48269 3.90329 3.40502 3.93629 3.31336C4.07158 2.9378 3.97529 2.56444 3.66929 2.2782C3.38196 2.0095 3.01717 1.93159 2.6535 2.06129ZM3.23104 2.76984C3.29554 2.8343 3.33333 2.91971 3.33333 3.00088C3.33333 3.08204 3.29554 3.16745 3.23104 3.23191C3.16658 3.2964 3.08117 3.33419 3 3.33419C2.91883 3.33419 2.83342 3.2964 2.76896 3.23191C2.70446 3.16745 2.66667 3.08204 2.66667 3.00088C2.66667 2.91971 2.70446 2.8343 2.76896 2.76984C2.83342 2.70535 2.91883 2.66756 3 2.66756C3.08117 2.66756 3.16658 2.70535 3.23104 2.76984ZM21.231 2.76984C21.4378 2.9765 21.2913 3.33419 21 3.33419C20.8287 3.33419 20.6667 3.17216 20.6667 3.00088C20.6667 2.82959 20.8287 2.66756 21 2.66756C21.0812 2.66756 21.1666 2.70535 21.231 2.76984ZM3.91746 4.1857C5.71538 4.47285 7.88992 4.61568 11.0417 4.65363C14.3152 4.69301 17.234 4.56551 19.3542 4.29052C19.8016 4.23249 20.6875 4.09541 20.6875 4.0842C20.6875 4.08416 20.6824 4.83225 20.6762 5.74662L20.6648 7.40909L20.3845 7.45817C16.3171 8.16989 7.97575 8.18847 3.86458 7.495L3.33333 7.40538V5.74025V4.07512L3.42788 4.09887C3.47988 4.11191 3.70021 4.15099 3.91746 4.1857ZM7.69367 5.19598C7.67883 5.21086 7.66667 5.36014 7.66667 5.52776C7.66667 5.8102 7.67354 5.83391 7.76042 5.85212C8.04087 5.91078 10.3505 5.97986 12.0208 5.97953C13.7065 5.97916 15.8028 5.91516 16.1979 5.85195L16.3333 5.83029V5.52218C16.3333 5.35268 16.3193 5.20648 16.3021 5.19723C16.2849 5.18802 15.8302 5.20748 15.2917 5.24044C14.0006 5.31952 10.405 5.33031 8.97917 5.25936C8.38333 5.22973 7.85642 5.19727 7.80825 5.18723C7.76013 5.17719 7.70854 5.18111 7.69367 5.19598ZM6.02379 6.4278C6.01308 6.47934 5.99729 6.62762 5.98863 6.75724L5.97296 6.9929L6.18438 7.0179C6.53233 7.05898 8.29775 7.20193 9.14583 7.25772C9.60629 7.28801 10.8004 7.3098 12 7.3098C13.1996 7.3098 14.3937 7.28801 14.8542 7.25772C15.7023 7.20193 17.4677 7.05898 17.8156 7.0179L18.027 6.9929L18.0114 6.75724C17.9825 6.32326 17.9824 6.32318 17.7587 6.35185C17.4635 6.38968 15.71 6.53205 14.8125 6.59108C13.7657 6.65992 10.2655 6.66025 9.1875 6.59159C8.72917 6.56238 7.8405 6.49251 7.21271 6.43626C6.58488 6.38005 6.06492 6.33406 6.05725 6.33406C6.04954 6.33406 6.0345 6.37626 6.02379 6.4278ZM3.91746 8.18551C5.71538 8.47266 7.88992 8.61549 11.0417 8.65345C14.3152 8.69282 17.234 8.56533 19.3542 8.29034C19.8013 8.23234 20.6875 8.09522 20.6875 8.08402C20.6875 8.08402 20.6827 10.1651 20.6767 12.7088L20.666 17.3335H20.333H20V15.1026V12.8716L19.8977 12.7694L19.7955 12.6671H18H16.2045L16.1023 12.7694L16 12.8716V15.1026V17.3335H14.5845H13.1689L12.7255 16.7398C12.4817 16.4133 12.2448 16.1133 12.199 16.0732C12.1418 16.0231 12.0456 16.0003 11.8912 16.0003H11.6667V14.4878V12.9753L11.882 12.8843L12.0973 12.7934L12.2406 12.9608C12.4522 13.208 12.6736 13.3098 13 13.3099C13.6622 13.3103 14.1132 12.7294 13.9569 12.0777C13.8608 11.6771 13.4192 11.3338 13 11.3338C12.6413 11.3338 12.2517 11.5891 12.0921 11.9286L12.0076 12.1084L10.9517 12.5592C10.371 12.8071 9.89058 13.0147 9.88417 13.0204C9.86913 13.0337 10.0875 13.5514 10.1279 13.5983C10.1447 13.6178 10.3337 13.5569 10.548 13.4629C10.7623 13.3689 10.9517 13.2921 10.9688 13.2921C10.986 13.2921 11 13.9014 11 14.6462V16.0003H10.7633H10.5265L9.85542 16.6669L9.18433 17.3335H8.59217H8V15.1026V12.8716L7.89771 12.7694L7.79546 12.6671H6H4.20454L4.10229 12.7694L4 12.8716V15.1026V17.3335H3.66667H3.33333V12.7043V8.07493L3.42788 8.09868C3.47988 8.11172 3.70021 8.1508 3.91746 8.18551ZM13.231 12.1027C13.2955 12.1672 13.3333 12.2526 13.3333 12.3338C13.3333 12.4149 13.2955 12.5004 13.231 12.5648C13.1666 12.6293 13.0812 12.6671 13 12.6671C12.9188 12.6671 12.8334 12.6293 12.769 12.5648C12.7045 12.5004 12.6667 12.4149 12.6667 12.3338C12.6667 12.2526 12.7045 12.1672 12.769 12.1027C12.8334 12.0382 12.9188 12.0005 13 12.0005C13.0812 12.0005 13.1666 12.0382 13.231 12.1027ZM7.32908 14.2399C7.32671 14.7383 7.31104 15.0887 7.29425 15.0186C7.24337 14.806 7.03242 14.4571 6.87767 14.3296C6.1345 13.717 5.05217 14.014 4.73617 14.9172C4.67267 15.0987 4.67058 15.0771 4.66867 14.2191L4.66667 13.3337H6H7.33333L7.32908 14.2399ZM19.3291 14.2399C19.3267 14.7383 19.311 15.0887 19.2943 15.0186C19.2434 14.806 19.0324 14.4571 18.8777 14.3296C18.1345 13.717 17.0522 14.014 16.7362 14.9172C16.6727 15.0987 16.6706 15.0771 16.6687 14.2191L16.6667 13.3337H18H19.3333L19.3291 14.2399ZM6.26371 14.7238C6.69179 14.9027 6.79617 15.4639 6.46325 15.7969C5.99513 16.265 5.228 15.8457 5.35117 15.189C5.42479 14.7968 5.88129 14.5641 6.26371 14.7238ZM18.2637 14.7238C18.6918 14.9027 18.7962 15.4639 18.4633 15.7969C17.9951 16.265 17.228 15.8457 17.3512 15.189C17.4248 14.7968 17.8813 14.5641 18.2637 14.7238ZM7.33333 16.4378V17.3335H6H4.66667L4.66867 16.4482C4.67058 15.5902 4.67267 15.5686 4.73617 15.7501C5.04375 16.6291 6.07613 16.9425 6.81454 16.3809C7.02437 16.2213 7.29025 15.8056 7.29117 15.6357C7.29146 15.5841 7.30104 15.542 7.3125 15.542C7.32396 15.542 7.33333 15.9451 7.33333 16.4378ZM19.3333 16.4378V17.3335H18H16.6667L16.6687 16.4482C16.6706 15.5902 16.6727 15.5686 16.7362 15.7501C17.0438 16.6291 18.0761 16.9425 18.8145 16.3809C19.0244 16.2213 19.2903 15.8056 19.2912 15.6357C19.2915 15.5841 19.301 15.542 19.3125 15.542C19.324 15.542 19.3333 15.9451 19.3333 16.4378ZM12.0833 17.0002L12.3371 17.3335H11.2424H10.1478L10.4792 17.0002L10.8105 16.6669H11.3201H11.8296L12.0833 17.0002ZM21.3333 18.3335V18.6668H12H2.66667V18.3335V18.0002H12H21.3333V18.3335ZM5.33333 19.8334V20.3334H5.66667H6V19.8334V19.3335H8H10V19.8334V20.3334H10.3333H10.6667V19.8334V19.3335H11.1667H11.6667V19.6668V20.0001H12H12.3333V19.6668V19.3335H14.1667H16V19.8334V20.3334H16.3333H16.6667V19.8334V19.3335H19H21.3333V20.3334V21.3334H20.5H19.6667V21V20.6667H19.3333H19V21V21.3334H18.6667H18.3333V20.6667V20.0001H18H17.6667V20.6667V21.3334H16.1667H14.6667V20.6667V20.0001H14.3333H14V20.6667V21.3334H11.5H9V21V20.6667H8.66667H8.33333V21V21.3334H8H7.66667V20.6667V20.0001H7.33333H7V20.6667V21.3334H5.5H4V20.6667V20.0001H3.66667H3.33333V20.6667V21.3334H3H2.66667V20.3334V19.3335H4H5.33333V19.8334Z" fill="black"/>
</svg>
